<?xml version="1.0" encoding="UTF-8" standalone="no"?>
<!DOCTYPE svg PUBLIC "-//W3C//DTD SVG 1.1//EN" "http://www.w3.org/Graphics/SVG/1.1/DTD/svg11.dtd">
<svg width="100%" height="100%" viewBox="0 0 71 75" version="1.1" xmlns="http://www.w3.org/2000/svg" xmlns:xlink="http://www.w3.org/1999/xlink" xml:space="preserve" style="fill-rule:evenodd;clip-rule:evenodd;stroke-linejoin:round;stroke-miterlimit:1.41421;">
    <g transform="matrix(1,0,0,1,-1191.77,-6.74817)">
        <g>
            <path d="M1229.63,80.772C1209.24,80.772 1205.76,76.689 1205.76,76.689C1205.76,76.689 1201.69,71.058 1201.64,65.04C1201.64,65.04 1197.17,60.526 1197.04,49.824C1196.99,46.037 1196.81,42.77 1197.35,40.453C1198.35,36.221 1200.39,34.328 1200.29,32.363C1200.23,31.258 1199.64,29.788 1200.57,28.246C1202.32,25.366 1205.34,22.033 1208.32,19.199C1213,14.749 1214.53,10.443 1225.34,8.301C1235.7,6.246 1241.97,7.269 1247.34,13.717C1250.23,17.193 1252.48,19.965 1253.55,22.872C1254.47,25.358 1254.26,27.999 1255.93,30.654C1259.54,36.412 1261.15,33.575 1261.28,43.118C1261.42,52.661 1260.77,54.774 1262.45,59.065C1263.25,61.128 1255.29,76.688 1255.29,76.688C1255.29,76.688 1250.02,80.772 1229.63,80.772Z" style="fill:white;fill-rule:nonzero;"/>
            <g>
                <path d="M1227.98,7.329C1230.17,6.432 1232.59,6.863 1234.88,6.784C1236.37,6.855 1237.98,6.686 1239.32,7.481C1241.44,8.831 1243.35,10.459 1245.33,12.001C1246.26,12.748 1247.11,13.695 1248.33,13.981C1247.86,14.513 1247.98,15.163 1248.23,15.76C1248.32,16.097 1248.38,16.438 1248.44,16.781C1248.32,16.809 1248.08,16.867 1247.96,16.895C1247.81,16.742 1247.52,16.441 1247.38,16.292C1244.89,19.29 1241.31,21.069 1238.76,24.008C1241.02,23.054 1242.9,21.105 1245.43,20.909C1245.3,21.367 1245.34,21.966 1244.86,22.232C1243.49,23.276 1241.74,23.727 1240.49,24.959C1240.38,25.045 1240.16,25.213 1240.05,25.3C1240.55,25.405 1241.04,25.503 1241.54,25.593C1240.26,25.764 1238.99,26.121 1237.86,26.755C1237.24,27.009 1236.84,27.565 1236.41,28.039C1236.08,28.347 1235.73,28.645 1235.35,28.892L1234.87,28.865C1234.6,29.186 1234.26,29.416 1233.89,29.609C1233.88,29.276 1233.86,28.615 1233.84,28.286C1232.78,29.295 1231.6,30.176 1230.38,30.978C1230.3,30.223 1230.36,29.468 1230.49,28.728C1232.4,27.981 1232.05,25.566 1233.48,24.376C1233.89,24.807 1234.28,25.265 1234.66,25.723C1235.04,25.085 1235.32,24.389 1235.47,23.66C1235.2,24.001 1234.95,24.346 1234.7,24.702C1234.48,24.569 1234.02,24.299 1233.79,24.166C1234.73,23.305 1235.09,21.443 1236.56,21.447C1236.94,20.555 1237.47,19.686 1238.39,19.267C1238.02,20.625 1236.57,21.447 1236.54,22.911C1239.66,20.422 1242.68,17.78 1246.06,15.64C1246.23,15.253 1246.39,14.862 1246.56,14.474C1245.44,13.421 1244.45,12.192 1243.1,11.425C1241.3,10.408 1240.02,8.538 1237.93,8.064C1233.08,6.769 1228.17,8.421 1223.41,9.321C1222.31,9.497 1221.52,10.282 1220.7,10.964C1219.09,11.758 1217.11,11.145 1215.54,12.106C1213.96,12.96 1213.08,14.586 1211.78,15.765C1210.94,16.532 1210.09,17.314 1209.53,18.321C1209.34,18.406 1208.97,18.583 1208.78,18.669C1208.61,19.087 1208.44,19.506 1208.27,19.929C1208.86,20.093 1209.43,20.265 1210.01,20.446C1209.15,20.825 1208.2,20.641 1207.3,20.591C1207.42,20.771 1207.66,21.138 1207.78,21.318C1206.85,21.526 1206,21.991 1205.65,22.93C1205.1,24.386 1203.34,24.851 1202.96,26.413C1202.41,26.769 1201.86,27.133 1201.34,27.532C1200.88,27.842 1200.49,28.397 1200.62,28.976C1200.78,28.949 1201.09,28.887 1201.25,28.855L1201.83,28.522C1201.84,28.276 1201.84,27.783 1201.85,27.536C1207.39,27.919 1213.13,27.038 1218.5,28.831C1219.32,29.039 1220.17,28.858 1220.94,28.588C1216.94,28.071 1213.13,26.271 1209.02,26.588C1208.41,26.737 1207.88,26.28 1208.17,25.67C1208.72,25.779 1209.26,25.928 1209.79,26.108C1211.18,26.12 1212.57,26.135 1213.96,26.148L1213.91,26.586C1215.93,26.464 1217.93,26.935 1219.93,27.095C1221.28,27.514 1222.96,27.447 1223.95,28.577C1224.75,28.484 1225.54,28.339 1226.32,28.174C1227.03,29.14 1228.01,30.029 1228.03,31.32C1227.05,31.34 1225.98,31.367 1225.39,30.44C1224.59,30.252 1223.77,30.104 1222.94,30.233L1222.42,30.557C1220.87,30.999 1219.29,31.324 1217.82,31.99C1215.51,32.967 1213.4,34.349 1211.25,35.605C1209.16,36.477 1207.26,37.671 1205.37,38.912C1205.38,39.142 1205.38,39.608 1205.38,39.843C1204.65,40.281 1203.85,40.602 1203,40.696C1202.77,39.174 1204.22,38.336 1205.43,37.906C1207.02,36.599 1208.7,35.316 1210.66,34.606C1212.45,33.589 1214.17,32.431 1216.13,31.77C1213.68,31.633 1211.7,33.324 1209.46,34.012C1208.22,34.337 1207.18,35.143 1205.93,35.432C1206.19,34.923 1206.28,34.211 1206.9,33.988C1208.27,33.338 1209.78,33.007 1211.13,32.262C1210.44,32.321 1209.77,32.411 1209.09,32.497C1208.99,31.558 1209.89,31.194 1210.64,30.979C1212.26,30.677 1213.92,30.724 1215.57,30.717C1215.53,30.58 1215.46,30.31 1215.43,30.176C1213.71,29.758 1211.95,29.738 1210.2,29.558C1207.9,29.335 1205.55,29.284 1203.24,29.515C1201.99,29.84 1200.76,29.539 1199.63,28.998C1199.69,27.601 1199.63,26.196 1199.88,24.815C1200.56,25.437 1200.37,26.412 1200.59,27.214C1201,27.182 1201.27,26.967 1201.4,26.568C1202.34,24.701 1203.93,23.293 1205.07,21.551C1207.53,18.808 1210.07,16.143 1212.66,13.526C1213.76,12.409 1214.86,11.147 1216.42,10.696C1217.48,10.316 1218.64,10.352 1219.72,10.062C1221.08,9.776 1221.99,8.587 1223.28,8.141C1224.82,7.703 1226.45,7.762 1227.98,7.329Z" style="fill:rgb(4,4,5);fill-rule:nonzero;"/>
                <path d="M1249.98,15.043C1250.53,14.759 1251.09,14.488 1251.65,14.23C1251.47,14.966 1251.2,15.674 1250.85,16.343C1250.56,15.91 1250.27,15.479 1249.98,15.043Z" style="fill:rgb(86,179,205);fill-rule:nonzero;"/>
                <path d="M1248.23,15.76C1248.82,15.537 1249.41,15.322 1249.98,15.044C1250.27,15.48 1250.56,15.91 1250.85,16.344C1250.59,16.853 1250.39,17.389 1250.24,17.937C1250.12,17.925 1249.87,17.898 1249.74,17.886C1249.67,18.019 1249.54,18.285 1249.46,18.419C1248.98,18.423 1248.49,18.426 1248,18.43C1247.99,17.918 1247.97,17.405 1247.95,16.896C1248.08,16.868 1248.32,16.81 1248.44,16.782C1248.38,16.438 1248.32,16.097 1248.23,15.76Z" style="fill:rgb(54,182,239);fill-rule:nonzero;"/>
                <path d="M1249.46,18.418C1249.54,18.285 1249.67,18.018 1249.74,17.885C1249.87,17.897 1250.12,17.925 1250.24,17.936C1251.3,18.785 1251.83,20.076 1252.58,21.175C1253.87,23.077 1253.69,25.535 1254.79,27.526C1256.59,30.853 1258.51,34.12 1260.09,37.559C1260.7,38.823 1260.59,40.255 1260.58,41.617C1260.54,43.187 1260.64,44.752 1260.67,46.321C1260.71,48.125 1261.16,49.932 1260.79,51.732C1260.72,54.03 1260.79,56.357 1261.24,58.619C1261.52,60.043 1261.67,61.53 1261.28,62.951C1260.97,64.293 1260.02,65.346 1259.55,66.618C1258.93,68.285 1257.76,69.724 1257.42,71.493C1257.18,72.749 1256.95,74.009 1256.68,75.261L1254.99,75.261C1255.25,73.817 1256.08,72.581 1256.39,71.156C1256.6,70.275 1256.87,69.404 1257.22,68.57C1257.91,67.142 1258.84,65.776 1258.99,64.152C1259.4,63.773 1259.8,63.375 1260.21,62.982C1260.19,61.503 1260.42,59.993 1260.1,58.538C1259.95,58.409 1259.65,58.146 1259.5,58.014C1259.24,53.772 1260.21,49.421 1258.88,45.282C1258.54,42.284 1258.03,39.154 1256.3,36.598C1256.17,35.135 1255.89,33.663 1255.09,32.407C1254.16,30.979 1254.35,29.159 1253.45,27.723L1253.38,27.606C1252.99,27.036 1252.61,26.463 1252.19,25.916C1251,25.466 1249.71,25.493 1248.48,25.321C1248.91,25.059 1249.34,24.82 1249.79,24.597C1250.03,24.562 1250.5,24.488 1250.73,24.449C1250.71,24.148 1250.7,23.847 1250.68,23.541C1250.5,23.495 1250.13,23.405 1249.95,23.358C1249.99,22.79 1250.02,22.223 1250.06,21.659C1249.92,21.378 1249.63,20.815 1249.49,20.533C1249.64,20.752 1249.93,21.194 1250.08,21.417C1250.34,21.241 1250.61,21.065 1250.87,20.892C1250.65,20.634 1250.22,20.114 1250,19.855C1249.83,19.372 1249.65,18.895 1249.46,18.418M1250.57,22.025C1251.02,22.875 1251.25,24.299 1252.43,24.334C1252.31,23.293 1251.78,22.389 1251.33,21.469C1251.08,21.657 1250.82,21.842 1250.57,22.025M1255.96,31.785C1256.39,33.518 1256.54,35.428 1257.55,36.95C1258.94,38.484 1258.43,40.776 1259.43,42.502C1259.61,40.882 1259.41,39.258 1259.23,37.646C1258.73,36.906 1258.65,35.952 1258.03,35.29C1256.98,34.304 1257.35,32.575 1255.96,31.785Z" style="fill:rgb(1,3,1);fill-rule:nonzero;"/>
                <path d="M1255.45,19.896C1256.07,18.663 1257.62,19.238 1258.71,19.137C1258.94,20.785 1257.06,21.122 1255.83,21.012C1255.7,20.644 1255.46,20.296 1255.45,19.896Z" style="fill:rgb(50,173,219);fill-rule:nonzero;"/>
                <path d="M1247.59,21.152C1248.2,20.894 1248.85,20.706 1249.49,20.531C1249.63,20.812 1249.91,21.376 1250.06,21.657C1250.02,22.221 1249.99,22.788 1249.95,23.355C1249.73,23.477 1249.3,23.727 1249.09,23.848C1248.8,23.743 1248.23,23.523 1247.93,23.418C1247.82,22.663 1247.7,21.908 1247.59,21.152Z" style="fill:rgb(49,179,255);fill-rule:nonzero;"/>
                <path d="M1247.59,21.152C1247.7,21.908 1247.82,22.663 1247.93,23.418C1248.23,23.524 1248.8,23.742 1249.09,23.848C1248.65,24.013 1248.19,24.111 1247.73,24.138C1246.88,23.746 1246.87,22.71 1246.74,21.919C1246.95,21.727 1247.38,21.344 1247.59,21.152Z" style="fill:rgb(55,168,205);fill-rule:nonzero;"/>
                <path d="M1243.98,24.885C1245.9,24.561 1247.87,24.826 1249.79,24.596C1249.35,24.819 1248.9,25.059 1248.48,25.321C1249.72,25.493 1251,25.466 1252.19,25.916C1251.67,25.794 1251.14,25.798 1250.61,25.923C1247.6,25.579 1244.56,25.27 1241.54,25.595C1241.04,25.505 1240.54,25.407 1240.05,25.302C1240.16,25.216 1240.38,25.047 1240.49,24.961C1241.65,25.015 1242.83,25.089 1243.98,24.885Z" style="fill:rgb(19,27,32);fill-rule:nonzero;"/>
                <path d="M1241.54,25.594C1244.56,25.269 1247.6,25.578 1250.61,25.922C1251,26.372 1251.97,26.713 1252.19,25.915C1252.61,26.462 1252.99,27.034 1253.38,27.605C1252.55,27.523 1251.55,27.809 1250.91,27.116C1249.58,25.75 1247.52,26.271 1245.82,26.185C1243.15,26.107 1240.48,26.197 1237.86,26.756C1238.99,26.122 1240.25,25.766 1241.54,25.594Z" style="fill:rgb(59,171,211);fill-rule:nonzero;"/>
                <path d="M1250.6,25.922C1251.13,25.797 1251.66,25.793 1252.19,25.915C1251.97,26.713 1251,26.373 1250.6,25.922Z" style="fill:rgb(144,229,253);fill-rule:nonzero;"/>
                <path d="M1237.86,26.756C1240.48,26.196 1243.15,26.107 1245.82,26.185C1247.52,26.271 1249.58,25.75 1250.91,27.116C1251.55,27.809 1252.55,27.524 1253.37,27.605L1253.45,27.723C1252.33,27.789 1251.21,27.93 1250.1,28.145C1251.12,29.535 1252.46,30.634 1253.49,32.008C1254.37,33.181 1254.65,34.684 1254.58,36.128C1254.11,41.493 1258.35,45.785 1258.62,51.033C1258.89,55.399 1257.86,59.848 1258.98,64.153C1258.84,65.777 1257.91,67.143 1257.22,68.571C1255.74,67.824 1256.32,66.044 1256.37,64.725C1256.56,61.934 1256.94,58.988 1255.95,56.3C1255.65,55.356 1255.44,54.386 1255.38,53.397C1255.38,51.256 1255.57,48.995 1254.59,47.015C1254.75,46.385 1255.2,45.735 1254.92,45.077C1254.53,44.897 1254.12,45.093 1253.73,45.147L1253.35,45.257C1253.15,44.146 1252.31,43.374 1251.56,42.612C1251.56,41.918 1251.56,41.226 1251.56,40.533C1251.54,38.761 1251.73,36.905 1250.99,35.239C1250.2,33.338 1248.99,31.479 1247.2,30.383C1246.17,29.573 1245.24,28.501 1243.91,28.199C1242.48,27.949 1241.04,28.25 1239.64,28.509C1238.98,28.466 1238.33,28.399 1237.67,28.332C1237.63,28.078 1237.54,27.569 1237.49,27.314C1237.13,27.553 1236.76,27.793 1236.4,28.039C1236.84,27.565 1237.24,27.01 1237.86,26.756Z" style="fill:rgb(50,181,250);fill-rule:nonzero;"/>
                <path d="M1236.41,28.04C1236.76,27.793 1237.13,27.555 1237.49,27.315C1237.54,27.57 1237.63,28.079 1237.68,28.334C1238.33,28.4 1238.99,28.467 1239.64,28.51C1238.24,28.873 1236.79,29.053 1235.35,28.893C1235.73,28.646 1236.08,28.348 1236.41,28.04Z" style="fill:rgb(100,190,214);fill-rule:nonzero;"/>
                <path d="M1197.32,29.507C1197.82,28.744 1198.85,28.893 1199.63,28.998C1200.76,29.539 1201.99,29.839 1203.24,29.515C1203.03,29.578 1202.62,29.71 1202.42,29.774C1202.53,29.919 1202.73,30.208 1202.84,30.357C1202.67,31.828 1201.14,31.961 1199.96,32.102C1199.79,31.977 1199.45,31.727 1199.28,31.602C1200.26,31.586 1201.22,31.383 1202.12,31.011C1201.26,29.75 1199.61,29.508 1198.19,29.591C1197.93,29.978 1197.68,30.368 1197.45,30.772L1196.91,30.764C1197.01,30.446 1197.21,29.82 1197.32,29.507Z" style="fill:rgb(79,168,204);fill-rule:nonzero;"/>
                <path d="M1198.19,29.59C1199.61,29.507 1201.26,29.749 1202.12,31.01C1201.22,31.382 1200.26,31.585 1199.28,31.601C1199.05,31.433 1198.6,31.1 1198.37,30.935C1198.14,30.893 1197.68,30.81 1197.45,30.771C1197.68,30.367 1197.93,29.977 1198.19,29.59Z" style="fill:rgb(48,185,255);fill-rule:nonzero;"/>
                <path d="M1202.84,30.356C1202.92,30.47 1203.08,30.705 1203.17,30.822C1202.85,32.188 1201.34,32.497 1200.14,32.352L1199.96,32.102C1201.14,31.96 1202.67,31.827 1202.84,30.356Z" style="fill:rgb(160,236,243);fill-rule:nonzero;"/>
                <path d="M1235.79,32.806C1236.11,31.401 1237.4,30.595 1238.76,30.477C1241.57,30.242 1244.39,30.587 1247.2,30.384C1247.09,30.563 1246.89,30.915 1246.79,31.092C1243.77,31.976 1240.45,31.147 1237.55,32.551C1237.02,32.919 1236.4,32.954 1235.79,32.806Z" style="fill:rgb(0,0,6);fill-rule:nonzero;"/>
                <path d="M1196.65,30.689C1196.79,30.767 1197.07,30.919 1197.21,30.998C1196.76,32.43 1196.67,33.933 1196.76,35.42C1196.45,35.745 1196.16,36.089 1195.86,36.422C1195.88,36.265 1195.9,35.955 1195.92,35.799C1195.68,34.066 1195.85,32.266 1196.65,30.689Z" style="fill-rule:nonzero;"/>
                <path d="M1217.82,31.988C1219.29,31.322 1220.87,30.997 1222.42,30.555C1223.18,30.489 1223.96,30.462 1224.73,30.473C1224.16,31.154 1223.65,31.988 1222.79,32.348C1222,32.527 1221.19,32.567 1220.38,32.59C1220.34,32.445 1220.26,32.159 1220.22,32.014C1219.42,32.145 1218.61,32.242 1217.82,31.988Z" style="fill:rgb(56,184,228);fill-rule:nonzero;"/>
                <path d="M1198.42,34.641C1197.57,33.616 1197.57,31.989 1198.37,30.935C1198.6,31.1 1199.05,31.433 1199.28,31.601C1199.45,31.726 1199.79,31.976 1199.96,32.101L1200.14,32.351C1200.21,33.395 1200.12,34.476 1199.58,35.399C1199.35,35.434 1198.88,35.501 1198.64,35.536C1198.7,35.305 1198.83,34.847 1198.88,34.616C1199.08,33.939 1199.18,33.243 1199.22,32.542C1198.66,33.106 1198.61,33.917 1198.42,34.641Z" style="fill:rgb(8,3,11);fill-rule:nonzero;"/>
                <path d="M1211.25,35.604C1213.41,34.348 1215.51,32.966 1217.82,31.989C1218.61,32.243 1219.42,32.145 1220.22,32.015C1220.26,32.16 1220.34,32.446 1220.38,32.591C1220.24,34.082 1218.56,33.879 1217.63,34.649C1217.52,34.72 1217.3,34.86 1217.19,34.934C1216.8,35.192 1216.39,35.428 1215.98,35.643C1215.18,36.935 1213.91,37.94 1213.45,39.431L1213.45,39.439C1213.83,39.616 1214.21,39.787 1214.59,39.964C1213.67,41.768 1212.99,43.673 1212.12,45.5C1211.79,46.083 1211.94,46.764 1211.95,47.397C1210.98,49.46 1209.61,51.334 1207.9,52.845C1206.43,53.85 1204.95,54.93 1203.88,56.371C1202.89,58.248 1203.78,60.37 1204.13,62.303C1204.66,64.373 1204.39,66.51 1204.21,68.603C1204.01,68.56 1203.61,68.47 1203.41,68.423L1203.41,68.419C1202.89,66.122 1201.31,64.153 1201.36,61.712C1200.65,62.013 1200.15,61.7 1200.26,60.925C1200.33,59.486 1199.78,58.12 1199.75,56.688C1201.67,54.203 1201.08,50.979 1201.02,48.079C1203.49,47.335 1206.15,47.397 1208.57,46.436C1210.23,45.774 1211.25,44.081 1211.44,42.354C1211.66,40.538 1212.26,38.742 1212.03,36.899C1211.78,36.46 1211.51,36.033 1211.25,35.604Z" style="fill:rgb(50,182,248);fill-rule:nonzero;"/>
                <path d="M1203.8,32.884C1204.7,32.684 1205.61,32.508 1206.52,32.384C1207.15,34.051 1204.99,34.536 1203.77,34.395C1203.78,33.894 1203.79,33.389 1203.8,32.884Z" style="fill:rgb(55,168,205);fill-rule:nonzero;"/>
                <path d="M1196.76,35.419C1197.43,35.059 1198.15,34.816 1198.88,34.617C1198.83,34.848 1198.7,35.306 1198.64,35.537C1198.88,35.501 1199.35,35.435 1199.58,35.4C1199.47,35.604 1199.26,36.015 1199.14,36.222C1198.79,36.64 1198.44,37.051 1198.09,37.465C1197.69,37.673 1197.28,37.865 1196.87,38.037C1196.54,38.013 1195.87,37.971 1195.54,37.95C1195.62,37.567 1195.78,36.8 1195.86,36.421C1196.16,36.089 1196.45,35.745 1196.76,35.419Z" style="fill:rgb(52,183,246);fill-rule:nonzero;"/>
                <path d="M1217.19,34.934C1217.3,34.86 1217.52,34.72 1217.63,34.649C1219.67,34.387 1221.76,34.364 1223.78,34.739C1223.65,34.966 1223.52,35.193 1223.4,35.424C1221.35,35.365 1219.33,35.772 1217.45,36.578L1216.95,36.762C1217.03,36.151 1217.11,35.541 1217.19,34.934Z" style="fill:rgb(5,5,4);fill-rule:nonzero;"/>
                <path d="M1192.45,35.166C1193.04,34.7 1193.86,34.899 1194.56,34.911C1194.78,36.528 1193.28,37.846 1191.77,37.932C1191.81,36.98 1191.92,35.991 1192.45,35.166Z" style="fill:rgb(51,185,244);fill-rule:nonzero;"/>
                <path d="M1215.98,35.643C1216.39,35.428 1216.8,35.192 1217.19,34.934C1217.11,35.541 1217.03,36.152 1216.95,36.762L1217.45,36.578C1214.84,39.724 1213.85,43.836 1211.95,47.397C1211.94,46.764 1211.79,46.083 1212.12,45.5C1212.99,43.673 1213.67,41.768 1214.59,39.964C1214.21,39.787 1213.83,39.616 1213.45,39.439L1213.45,39.431C1214.49,38.343 1216.17,37.364 1215.98,35.643Z" style="fill:rgb(52,163,219);fill-rule:nonzero;"/>
                <path d="M1250.99,35.239C1251.73,36.906 1251.54,38.761 1251.56,40.534C1251.37,41.054 1251.17,41.571 1250.96,42.079C1250.84,41.91 1250.59,41.57 1250.46,41.398L1250.53,41.026C1251.1,39.148 1251.26,37.184 1250.99,35.239Z" style="fill:rgb(159,229,244);fill-rule:nonzero;"/>
                <path d="M1205.37,38.91C1207.26,37.669 1209.16,36.475 1211.25,35.603C1211.51,36.033 1211.78,36.46 1212.03,36.898C1209.91,37.396 1208.37,39.09 1206.33,39.77C1205.62,39.971 1205.3,39.685 1205.37,38.91Z" style="fill:rgb(54,179,225);fill-rule:nonzero;"/>
                <path d="M1215.98,35.643C1216.16,37.365 1214.49,38.343 1213.45,39.431C1213.91,37.939 1215.18,36.934 1215.98,35.643Z" style="fill:rgb(7,7,11);fill-rule:nonzero;"/>
                <path d="M1198.09,37.465C1198.44,37.05 1198.79,36.64 1199.14,36.222C1197.91,40.764 1197.87,45.535 1198.05,50.211C1198.14,50.899 1197.97,51.819 1198.71,52.207C1198.72,52.477 1198.73,53.016 1198.74,53.29C1199.03,54.504 1199.2,55.748 1199.46,56.969L1199.75,56.688C1199.78,58.12 1200.33,59.485 1200.26,60.925C1200.15,61.7 1200.66,62.013 1201.36,61.712C1201.32,64.153 1202.89,66.122 1203.41,68.419C1203.11,68.192 1202.51,67.743 1202.22,67.515C1202.29,70.192 1202.7,73.052 1204.34,75.263L1203.38,75.263C1201.49,73.416 1201.23,70.712 1201.24,68.207C1201.5,66.373 1199.76,65.272 1198.9,63.876C1197.16,61.833 1197.01,59.059 1196.46,56.551C1195.44,51.761 1195.9,46.847 1195.66,41.995C1195.72,40.821 1195.25,39.193 1196.75,38.748C1196.89,45.326 1196.03,52.121 1198.07,58.5C1198.23,59.216 1198.16,59.955 1198.18,60.684C1199.33,62.233 1200.49,63.806 1201.13,65.645C1201.25,63.321 1199.77,61.345 1199.71,59.067C1199.55,58.962 1199.22,58.75 1199.06,58.645C1198.62,57.1 1198.44,55.499 1197.99,53.957C1196.9,48.87 1197.35,43.634 1197.24,38.477C1197.52,38.139 1197.81,37.806 1198.09,37.465Z" style="fill:rgb(7,7,11);fill-rule:nonzero;"/>
                <path d="M1195.54,37.951C1195.87,37.972 1196.54,38.014 1196.87,38.038C1196.87,38.183 1196.87,38.476 1196.87,38.625C1196.34,38.825 1195.87,38.683 1195.49,38.202L1195.54,37.951Z" style="fill:rgb(58,120,157);fill-rule:nonzero;"/>
                <path d="M1225.57,40.139C1227.09,38.871 1229.11,38.614 1231,38.375C1235.08,38.01 1239.24,38.338 1243.17,39.513C1246.03,40.819 1248.59,42.702 1250.85,44.873C1252.32,45.879 1253.42,47.276 1254.44,48.72C1254.94,50.36 1255.22,52.074 1255.11,53.791L1254.99,54.014C1254.01,56.232 1252.52,58.185 1250.76,59.84C1249.33,61.151 1247.25,61.088 1245.44,61.279C1242.76,61.367 1241.06,59.038 1239.21,57.472C1238.97,57.452 1238.49,57.423 1238.25,57.406C1238.2,57.007 1238.14,56.608 1238.09,56.213C1236.88,55.372 1236.12,54.092 1235.23,52.957C1234.79,52.367 1233.93,52.672 1233.31,52.613C1232.05,52.531 1231.28,53.666 1230.6,54.542C1229.25,56.343 1229.65,58.702 1229.66,60.798C1229.85,60.986 1230.22,61.358 1230.41,61.546C1229.35,63.491 1228.53,65.557 1227.47,67.505C1223.97,68.949 1220.03,68.315 1216.66,66.848C1215.51,66.347 1214.68,65.369 1213.61,64.738C1213.35,64.852 1212.83,65.079 1212.58,65.196C1210.35,63.329 1208.85,60.536 1208.83,57.609C1210.64,59.374 1210.45,62.39 1212.59,63.9C1211.34,61.197 1210.04,58.364 1210.3,55.296C1210.18,53.023 1211.27,50.847 1213.11,49.525C1216.71,45.706 1221.43,43.284 1225.57,40.139M1230.89,39.188C1230.82,39.737 1230.75,40.284 1230.67,40.832C1231.49,40.965 1232.33,41.591 1233.15,41.134C1234.55,40.751 1236.88,41.142 1237.17,39.2C1235.08,39.168 1232.98,39.188 1230.89,39.188M1222.65,43.473C1222.65,43.817 1222.65,44.506 1222.65,44.85C1223.08,45.038 1223.5,45.257 1223.94,45.414C1225.07,44.314 1226.62,43.989 1227.99,43.296C1229.09,42.322 1229.58,40.846 1230,39.478C1227.04,39.606 1225.06,42.083 1222.65,43.473M1237.96,39.395C1237.9,39.83 1237.84,40.268 1237.77,40.702C1239.14,41.336 1240.26,42.745 1241.9,42.568C1242.96,42.486 1244.13,42.408 1244.97,41.684C1243,40.096 1240.42,39.603 1237.96,39.395M1214.8,49.33C1214.41,49.666 1214.25,50.152 1214.09,50.621C1215.86,50.767 1217.86,51.287 1219.52,50.536C1220.48,48.817 1220.43,46.736 1221.37,44.995L1220.79,44.862C1218.63,46.109 1216.51,47.495 1214.8,49.33M1237.98,54.777C1238.47,55.474 1239.25,55.861 1239.98,56.26C1240.22,56.135 1240.71,55.889 1240.96,55.767C1240.92,55.642 1240.85,55.395 1240.81,55.273C1239.95,54.742 1238.97,54.582 1237.98,54.777M1241.87,56.553C1241.43,56.854 1240.43,56.518 1240.43,57.285C1241.56,58.236 1242.55,59.453 1243.97,59.969C1243.98,59.187 1243.98,58.404 1243.96,57.618C1243.83,57.144 1243.7,56.671 1243.6,56.19C1242.99,56.127 1242.38,56.198 1241.87,56.553M1226.46,61.879C1227.26,61.696 1228.05,61.477 1228.83,61.238C1228.75,60.361 1228.7,59.476 1228.67,58.596C1227.61,59.438 1226.19,60.287 1226.46,61.879M1225.22,62.85C1224.2,63.058 1223.52,63.914 1222.83,64.63C1223.27,65.714 1224.06,66.763 1225.35,66.779C1226.89,67.108 1228.46,65.104 1227.16,63.879C1227.64,63.413 1228.08,62.908 1228.5,62.397C1227.41,62.6 1226.3,62.607 1225.22,62.85Z" style="fill-rule:nonzero;"/>
                <path d="M1250.96,42.08C1251.17,41.571 1251.37,41.055 1251.56,40.535C1251.56,41.227 1251.56,41.92 1251.56,42.613C1252.32,43.375 1253.15,44.147 1253.35,45.258C1253.14,45.321 1252.73,45.446 1252.52,45.508C1251.63,43.716 1249.72,42.683 1248.93,40.863C1249.46,40.91 1250,40.965 1250.53,41.027L1250.46,41.399C1250.59,41.571 1250.84,41.911 1250.96,42.08Z" style="fill:rgb(1,5,17);fill-rule:nonzero;"/>
                <path d="M1253.73,45.146C1254.12,45.092 1254.53,44.896 1254.92,45.076C1255.2,45.734 1254.75,46.383 1254.59,47.014C1255.57,48.993 1255.38,51.255 1255.39,53.396L1255.11,53.791C1255.22,52.073 1254.94,50.359 1254.44,48.72C1254.19,47.53 1253.97,46.337 1253.73,45.146Z" style="fill:rgb(51,152,184);fill-rule:nonzero;"/>
                <path d="M1203.88,56.37C1204.95,54.93 1206.43,53.85 1207.9,52.844C1207.05,54.233 1205.66,55.125 1204.63,56.346C1203.79,57.316 1203.77,58.682 1204.17,59.844C1205.04,62.724 1204.49,65.757 1204.69,68.707L1204.21,68.601C1204.39,66.507 1204.66,64.371 1204.13,62.3C1203.78,60.369 1202.89,58.248 1203.88,56.37Z" style="fill:rgb(173,240,250);fill-rule:nonzero;"/>
                <path d="M1255.1,53.791L1255.38,53.396C1255.44,54.386 1255.65,55.355 1255.95,56.299C1256.41,61.052 1255.74,65.816 1255.92,70.573C1255.6,70.115 1255.42,69.587 1255.46,69.024C1255.44,66.794 1255.53,64.563 1255.73,62.344C1255.96,59.546 1255.58,56.744 1254.99,54.013L1255.1,53.791Z" style="fill:rgb(155,231,249);fill-rule:nonzero;"/>
                <path d="M1255.96,56.299C1256.95,58.987 1256.57,61.934 1256.37,64.724C1256.32,66.042 1255.74,67.823 1257.22,68.57C1256.86,69.404 1256.6,70.276 1256.39,71.156C1256.27,71.008 1256.04,70.718 1255.92,70.573C1255.75,65.816 1256.41,61.053 1255.96,56.299Z" style="fill:rgb(67,168,207);fill-rule:nonzero;"/>
                <path d="M1233.87,59.778C1236.33,59.007 1239.73,59.954 1240.6,62.572C1240.35,62.596 1239.86,62.635 1239.61,62.655C1238.86,61.931 1238.11,61.179 1237.23,60.609C1236.12,60.503 1234.88,60.347 1233.95,61.103C1233.76,62.026 1234.21,63.047 1233.75,63.904C1232.72,63.158 1233.12,61.811 1233.06,60.735C1233.33,60.416 1233.6,60.095 1233.87,59.778Z" style="fill-rule:nonzero;"/>
                <path d="M1203.42,68.422C1203.62,68.469 1204.02,68.559 1204.21,68.602L1204.69,68.708C1204.93,69.373 1205.21,70.021 1205.46,70.684C1206.56,71.279 1207.45,72.264 1208.69,72.558C1210.16,72.876 1211.07,74.31 1212.67,74.295C1212.87,74.619 1213.08,74.941 1213.3,75.261L1211.49,75.261L1212.16,75.25C1211.23,74.807 1210.31,74.339 1209.51,73.697C1206.99,73.063 1204.42,71.47 1203.59,68.883C1203.55,68.77 1203.46,68.539 1203.42,68.422Z" style="fill:rgb(6,19,11);fill-rule:nonzero;"/>
                <path d="M1242.33,69.854C1243.15,69.909 1243.77,69.264 1244.55,69.131C1244.44,69.417 1244.3,69.69 1244.14,69.957C1242.65,70.872 1240.79,70.575 1239.15,70.301C1236.41,69.909 1233.44,69.729 1230.91,71.087C1230.78,70.982 1230.53,70.778 1230.4,70.672C1230.4,70.547 1230.39,70.297 1230.39,70.171C1232.76,69.02 1235.43,69.225 1237.99,69.341C1239.44,69.498 1240.86,69.937 1242.33,69.854Z" style="fill:rgb(10,10,10);fill-rule:nonzero;"/>
            </g>
        </g>
    </g>
</svg>
