<?xml version="1.0" encoding="UTF-8" standalone="no"?>
<!DOCTYPE svg PUBLIC "-//W3C//DTD SVG 1.1//EN" "http://www.w3.org/Graphics/SVG/1.1/DTD/svg11.dtd">
<svg width="100%" height="100%" viewBox="0 0 65 73" version="1.1" xmlns="http://www.w3.org/2000/svg" xmlns:xlink="http://www.w3.org/1999/xlink" xml:space="preserve" style="fill-rule:evenodd;clip-rule:evenodd;stroke-linejoin:round;stroke-miterlimit:1.41421;">
    <g transform="matrix(1,0,0,1,-709.56,-109.694)">
        <g>
            <path d="M741.904,181.772C721.746,181.772 718.299,177.814 718.299,177.814C718.299,177.814 714.275,172.356 714.232,166.522C714.232,166.522 709.811,162.147 709.678,151.772C709.631,148.102 709.448,144.935 709.988,142.689C710.975,138.586 712.995,136.752 712.89,134.847C712.83,133.776 712.246,132.351 713.169,130.856C714.894,128.064 717.883,124.833 720.83,122.086C725.459,117.772 726.975,113.599 737.66,111.522C747.909,109.53 754.106,110.522 759.411,116.772C762.27,120.141 764.492,122.828 765.556,125.647C766.466,128.057 766.256,130.617 767.904,133.19C771.479,138.772 773.07,136.022 773.203,145.272C773.336,154.522 772.698,156.571 774.353,160.731C775.149,162.731 767.28,177.813 767.28,177.813C767.28,177.813 762.062,181.772 741.904,181.772Z" style="fill:white;fill-rule:nonzero;"/>
            <g>
                <path d="M774.387,160.375C773.866,160.02 773.415,159.544 773.181,158.951C772.76,157.922 772.836,156.779 772.962,155.701C773.101,154.495 773.38,153.302 773.349,152.083C773.355,151.229 773.337,150.375 773.368,149.522C773.351,146.945 773.363,144.359 773.012,141.801C772.817,140.336 772.274,138.942 771.589,137.639C770.56,135.68 769.217,133.912 768.053,132.037C767.414,130.998 766.842,129.906 766.511,128.726C766.095,127.339 765.985,125.879 765.538,124.5C765.31,123.767 764.918,123.096 764.435,122.503C763.522,121.37 762.392,120.434 761.468,119.311C760.654,118.306 759.843,117.296 758.991,116.319C757.389,114.486 755.659,112.715 753.571,111.431C752.311,110.659 750.886,110.1 749.397,110.041C749.39,109.926 749.385,109.81 749.379,109.694C748.252,109.699 747.123,109.696 745.996,109.696C745.752,109.69 745.524,109.794 745.289,109.847C742.877,110.468 740.385,110.65 737.949,111.154C737.234,111.31 736.508,111.451 735.84,111.76C735.004,112.143 734.226,112.663 733.334,112.917C732.195,113.25 730.986,113.188 729.842,113.499C728.406,113.964 727.121,114.82 726.029,115.852C724.965,116.851 724.056,117.994 723.148,119.131C720.187,122.789 717.14,126.387 713.818,129.723C713.9,129.244 714.025,128.763 714.006,128.272C713.985,127.781 713.752,127.323 713.443,126.948C713.542,128.412 713.247,129.866 712.777,131.246C712.365,132.534 711.811,133.793 711.649,135.148C711.611,135.589 711.587,136.042 711.685,136.477C711.918,136.541 712.246,136.574 712.365,136.308C712.529,135.791 712.307,135.249 712.378,134.722C712.649,134.965 712.801,135.32 712.842,135.679C712.889,136.194 712.731,136.702 712.551,137.179C712.091,138.324 711.461,139.402 711.131,140.596C710.688,142.176 711.005,143.827 710.963,145.439C710.928,146.34 711.223,147.24 711.049,148.138C710.971,148.56 710.69,148.929 710.297,149.106C710.304,147.715 710.468,146.329 710.563,144.942C710.715,142.946 710.874,140.951 710.883,138.949C710.883,137.786 710.871,136.606 710.57,135.474C710.507,135.244 710.464,134.966 710.253,134.82C710.001,134.741 709.771,134.898 709.566,135.027C709.559,141.312 709.566,147.598 709.561,153.883C709.555,154.082 709.6,154.278 709.644,154.47C710.2,157.07 710.696,159.687 710.95,162.337C710.978,162.638 711.285,162.804 711.44,163.045C712.42,164.255 713.111,165.669 713.663,167.118C714.739,169.973 715.339,172.977 716.251,175.885C716.612,175.887 716.975,175.887 717.335,175.886C716.519,173.974 715.97,171.956 715.576,169.918C717.341,170.98 718.157,172.998 719.686,174.314C720.487,175.023 721.521,175.443 722.585,175.533C722.587,175.65 722.591,175.767 722.594,175.886C723.424,175.886 724.254,175.894 725.084,175.882C723.761,175.317 722.482,174.634 721.322,173.781C719.195,172.24 717.415,170.26 715.922,168.111C715.9,167.408 715.811,166.707 715.649,166.023C715.063,163.492 713.764,161.196 713.115,158.685C712.821,157.58 713.048,156.417 712.798,155.307C712.593,154.302 711.782,153.522 711.667,152.489C711.501,151.115 711.491,149.727 711.519,148.346C711.556,146.52 711.669,144.697 711.859,142.881C711.945,142.147 712.009,141.408 712.175,140.688C712.518,139.257 713.154,137.922 713.64,136.54C714.214,134.95 714.574,133.207 714.16,131.534C714.827,130.883 715.459,130.197 716.098,129.519C718.955,126.392 721.643,123.117 724.442,119.938C724.803,119.516 725.19,119.114 725.529,118.673C726.212,117.812 726.8,116.868 727.591,116.096C727.973,115.725 728.409,115.39 728.917,115.212C729.467,115.036 730.048,115.019 730.619,114.953C731.358,114.877 732.108,114.722 732.763,114.352C733.596,113.894 734.294,113.231 735.12,112.765C735.694,112.435 736.36,112.341 737.007,112.262C738.288,112.118 739.581,112.079 740.85,111.839C741.973,111.624 743.068,111.289 744.183,111.036C745.773,110.665 747.419,110.424 749.051,110.602C749.581,110.666 750.12,110.73 750.616,110.934C751.285,111.204 751.917,111.553 752.542,111.911C753.705,112.593 754.829,113.341 755.919,114.136C756.812,114.802 757.702,115.48 758.483,116.278C758.715,116.531 759.002,116.789 759.038,117.153C759.132,117.775 758.964,118.469 759.336,119.024C759.759,119.652 760.317,120.18 760.724,120.82C761.171,121.477 761.466,122.277 761.361,123.08C761.615,122.976 761.896,122.918 762.167,122.993C762.725,123.133 763.18,123.524 763.561,123.938C764.385,124.887 764.98,126.051 765.223,127.285C764.905,127.155 764.653,126.916 764.444,126.651C763.915,125.939 763.742,125.02 763.151,124.35C762.87,124.03 762.473,123.838 762.059,123.765C762.061,124.681 762.411,125.561 762.914,126.314C763.716,127.522 764.773,128.529 765.603,129.715C766.265,130.624 766.722,131.662 767.091,132.719C767.966,135.249 768.483,137.887 769.364,140.415C770.159,142.636 770.948,144.864 771.55,147.145C772.011,148.918 772.37,150.733 772.376,152.572C772.399,154.903 772.171,157.231 772.274,159.562C772.305,160.417 772.462,161.258 772.581,162.103C772.683,162.852 772.762,163.619 772.614,164.366C772.497,164.888 772.257,165.372 771.997,165.835C771.554,166.611 771.059,167.356 770.647,168.148C769.359,170.578 769.193,173.405 768.049,175.89C768.528,175.89 769.006,175.901 769.485,175.884C769.844,174.501 770.389,173.175 770.981,171.878C772.13,169.404 773.442,166.97 774.055,164.291C774.17,164.28 774.289,164.269 774.409,164.258C774.39,162.961 774.433,161.664 774.387,160.375ZM711.959,157.267C712.794,160.164 713.284,163.168 714.453,165.962C713.705,165.421 713.241,164.584 712.865,163.76C712.218,162.288 711.841,160.718 711.514,159.149C711.163,157.373 710.889,155.583 710.653,153.79C711.219,154.895 711.611,156.08 711.959,157.267ZM771.926,143.736C771.271,141.593 770.274,139.574 769.642,137.423C769.421,136.676 769.258,135.912 769.138,135.143C769.898,136.822 770.949,138.374 771.492,140.15C771.849,141.306 772.001,142.528 771.926,143.736Z" style="fill-rule:nonzero;"/>
                <path d="M761.308,126.46C760.122,125.003 758.911,123.555 757.499,122.311C756.763,121.682 755.952,121.07 754.983,120.871C753.62,120.555 752.128,120.438 750.804,120.973C750.614,121.839 750.257,122.664 749.777,123.407C749.219,124.26 748.52,125.007 747.795,125.717C746.817,126.704 745.762,127.659 745.089,128.894C744.503,129.942 744.3,131.176 744.435,132.364C744.466,132.857 744.689,133.304 744.894,133.745C745.283,134.51 745.73,135.246 746.211,135.958C746.82,136.854 747.47,137.728 748.235,138.5C749.262,139.515 750.614,140.13 751.977,140.551C754.88,141.412 757.944,141.466 760.948,141.379C761.694,141.093 762.388,140.667 763.026,140.187C764.079,139.377 764.917,138.247 765.235,136.944C765.606,135.52 765.397,134.014 764.953,132.633C764.195,130.34 762.832,128.309 761.308,126.46ZM752.931,121.674C752.679,122.053 752.079,122.247 751.726,121.898C751.72,121.85 751.709,121.751 751.705,121.701C752.085,121.512 752.533,121.594 752.931,121.674ZM763.49,138.504C762.916,139.362 761.994,139.93 761.02,140.232C759.77,140.64 758.437,140.594 757.141,140.558C755.608,140.446 754.085,140.166 752.621,139.691C751.447,139.303 750.3,138.792 749.302,138.051C748.339,137.351 747.65,136.356 746.996,135.376C746.421,134.458 745.845,133.513 745.54,132.464C745.363,131.46 745.548,130.412 745.96,129.485C746.462,128.36 747.258,127.394 748.13,126.534C749.928,124.737 752.109,123.386 753.969,121.658C754.95,121.817 755.978,122.11 756.691,122.844C757.129,123.29 757.404,123.884 757.496,124.499C756.898,124.417 756.253,124.467 755.731,124.791C755.273,125.07 754.998,125.568 754.858,126.074C754.632,126.881 754.644,127.729 754.668,128.559C754.66,128.772 754.844,128.916 754.975,129.06C755.613,129.704 756.543,129.904 757.411,130.018C758.286,130.11 759.169,130.132 760.05,130.104C760.344,130.068 760.552,129.812 760.609,129.534C760.744,128.913 760.611,128.276 760.66,127.648C761.502,128.45 762.167,129.421 762.738,130.43C763.511,131.838 764.086,133.38 764.24,134.986C764.351,136.193 764.187,137.482 763.49,138.504Z" style="fill-rule:nonzero;"/>
                <path d="M735.3,133.996C735.397,134.523 735.558,135.036 735.65,135.563C735.814,136.48 735.82,137.452 735.513,138.341C735.083,139.425 734.398,140.383 733.707,141.316C732.712,142.615 731.626,143.842 730.458,144.986C729.636,145.765 728.798,146.549 727.812,147.12C727.308,147.425 726.706,147.452 726.136,147.525C724.965,147.618 723.74,147.454 722.707,146.867C721.851,146.385 721.172,145.615 720.762,144.723C720.119,143.362 720.02,141.813 720.123,140.331C720.583,140.352 721.047,140.389 721.502,140.304C722.172,140.2 722.832,139.918 723.305,139.423C723.88,138.85 724.164,138.003 724.057,137.199C723.961,136.411 723.5,135.672 722.827,135.249C722.138,134.792 721.29,134.667 720.477,134.683C721.756,133.186 723.243,131.742 725.143,131.088C726.444,130.647 727.914,130.625 729.192,131.163C730.333,131.647 731.198,132.58 731.963,133.525C732.782,134.515 733.54,135.611 734.659,136.291C734.785,136.362 734.972,136.512 735.091,136.349C735.217,136.257 735.208,136.08 735.136,135.959C734.872,135.498 734.409,135.201 734.103,134.775C734.025,134.683 734.026,134.559 734.019,134.446C734.339,134.226 734.701,134.091 735.058,133.947C735.328,133.83 735.626,133.597 735.616,133.278C733.864,131.24 731.224,130.077 728.561,129.936C725.485,129.777 722.267,130.864 720.148,133.15C718.953,134.421 718.201,136.099 718.058,137.838C718.007,138.463 717.988,139.106 718.163,139.713C718.386,140.492 718.817,141.187 719.129,141.93C719.603,142.958 719.733,144.14 719.447,145.241C720.196,146.126 721.077,146.903 722.069,147.505C723.227,148.201 724.569,148.63 725.928,148.593C726.772,148.596 727.608,148.408 728.401,148.126C728.997,147.925 729.486,147.514 729.965,147.122C731.35,145.923 732.563,144.54 733.71,143.116C734.654,141.912 735.563,140.666 736.259,139.299C736.69,138.468 736.877,137.536 736.987,136.614C737.048,135.957 737.053,135.242 736.714,134.654C736.433,134.169 735.839,133.958 735.3,133.996Z" style="fill-rule:nonzero;"/>
                <path d="M755.042,156.369C755.006,155.666 754.92,154.952 754.65,154.297C754.52,154.011 754.374,153.701 754.082,153.55C753.832,153.384 753.488,153.358 753.223,153.506C753.083,153.58 752.907,153.662 752.883,153.84C752.709,154.673 752.764,155.532 752.809,156.376C752.901,158.004 753.08,159.637 752.938,161.268C752.93,161.548 752.733,161.768 752.567,161.974C751.914,162.716 750.968,163.122 750.032,163.379C748.477,163.792 746.837,163.831 745.249,163.605C744.078,163.422 742.893,163.091 741.917,162.392C741.378,162.017 740.991,161.457 740.763,160.846C740.482,160.152 740.366,159.388 739.954,158.751C739.702,158.337 739.272,158.073 738.821,157.927C738.425,158.627 738.247,159.455 738.38,160.252C738.564,161.458 739.263,162.519 740.096,163.382C740.89,164.169 741.829,164.822 742.87,165.236C743.659,165.539 744.505,165.642 745.339,165.734C746.822,165.863 748.323,165.903 749.8,165.704C751.117,165.523 752.32,164.831 753.253,163.901C753.906,163.253 754.489,162.527 755.007,161.768C754.89,159.97 755.125,158.168 755.042,156.369Z" style="fill-rule:nonzero;"/>
            </g>
        </g>
    </g>
</svg>
