<?xml version="1.0" encoding="UTF-8" standalone="no"?>
<!DOCTYPE svg PUBLIC "-//W3C//DTD SVG 1.1//EN" "http://www.w3.org/Graphics/SVG/1.1/DTD/svg11.dtd">
<svg width="100%" height="100%" viewBox="0 0 733 146" version="1.1" xmlns="http://www.w3.org/2000/svg" xmlns:xlink="http://www.w3.org/1999/xlink" xml:space="preserve" style="fill-rule:evenodd;clip-rule:evenodd;stroke-linecap:round;stroke-linejoin:round;stroke-miterlimit:1.5;">
    <g transform="matrix(1,0,0,1,-38.1779,-228.944)">
        <g id="Business-Data-State" transform="matrix(1,0,0,1,-24.0687,0)">
            <path d="M269.847,231.194C264.483,232.837 260.776,235.993 258.622,240.693C258.252,241.5 257.686,242.225 257.253,243.047C252.467,252.134 250.548,265.845 251.747,284.587C254.966,314.428 262.85,331.082 276.234,332.191C289.208,332.968 296.44,316.662 298.536,285.073C298.568,247.84 288.278,231.786 269.847,231.194C332.273,231.298 258.945,230.896 323.092,232.007C336.036,239.129 341.009,252.062 343.138,281.782C342.283,314.844 336.104,324.782 333.066,327.599C327.151,333.082 331.158,331.9 311.493,332.386C295.068,332.793 305.918,332.9 276.234,332.191L278.069,332.184C290.143,331.434 296.686,314.934 298.536,285.073C298.653,248.825 288.214,232.52 269.847,231.194" style="fill:rgb(242,242,242);"/>
            <clipPath id="_clip1">
                <path d="M269.847,231.194C264.483,232.837 260.776,235.993 258.622,240.693C258.252,241.5 257.686,242.225 257.253,243.047C252.467,252.134 250.548,265.845 251.747,284.587C254.966,314.428 262.85,331.082 276.234,332.191C289.208,332.968 296.44,316.662 298.536,285.073C298.568,247.84 288.278,231.786 269.847,231.194C332.273,231.298 258.945,230.896 323.092,232.007C336.036,239.129 341.009,252.062 343.138,281.782C342.283,314.844 336.104,324.782 333.066,327.599C327.151,333.082 331.158,331.9 311.493,332.386C295.068,332.793 305.918,332.9 276.234,332.191L278.069,332.184C290.143,331.434 296.686,314.934 298.536,285.073C298.653,248.825 288.214,232.52 269.847,231.194"/>
            </clipPath>
            <g clip-path="url(#_clip1)">
                <path d="M271.137,228.514L271.32,228.526L271.525,228.547L271.752,228.58L271.999,228.628L272.264,228.695L272.541,228.783L272.772,228.873L273.073,229.004L273.321,229.116L273.569,229.231L273.816,229.349L274.062,229.469L274.307,229.593L274.551,229.719L274.794,229.847L275.036,229.979L275.276,230.112L275.516,230.249L275.755,230.388L275.993,230.529L276.23,230.673L276.466,230.819L276.701,230.968L276.936,231.119L277.169,231.272L277.401,231.427L277.633,231.585L277.863,231.745L278.092,231.907L278.321,232.07L278.549,232.237L278.776,232.405L279.001,232.575L279.226,232.747L279.451,232.921L279.674,233.097L279.896,233.275L280.117,233.455L280.338,233.636L280.557,233.82L280.776,234.005L280.993,234.191L281.21,234.38L281.426,234.57L281.641,234.762L281.855,234.956L282.068,235.151L282.28,235.347L282.491,235.545L282.701,235.745L282.911,235.946L283.119,236.149L283.233,236.261L283.288,236.289L283.526,236.415L283.764,236.543L284.002,236.675L284.24,236.809L284.478,236.947L284.716,237.089L284.954,237.233L285.192,237.381L285.43,237.532L285.669,237.686L285.917,237.849L286.04,237.933L286.17,238.025L286.297,238.119L286.421,238.214L286.542,238.311L286.661,238.409L286.778,238.508L286.891,238.609L287.002,238.71L287.11,238.812L287.217,238.916L287.321,239.02L287.422,239.125L287.522,239.231L287.619,239.337L287.715,239.444L287.809,239.552L287.9,239.66L287.99,239.769L288.078,239.879L288.165,239.989L288.25,240.099L288.333,240.21L288.415,240.322L288.495,240.434L288.574,240.546L288.652,240.658L288.728,240.771L288.803,240.885L288.877,240.999L288.949,241.113L289.02,241.227L289.09,241.342L289.159,241.457L289.227,241.572L289.294,241.688L289.36,241.804L289.429,241.926L289.552,242.153L289.675,242.387L289.795,242.621L289.911,242.857L290.025,243.093L290.135,243.33L290.242,243.567L290.347,243.804L290.449,244.041L290.548,244.279L290.645,244.516L290.739,244.753L290.831,244.99L290.92,245.227L291.008,245.463L291.093,245.699L291.176,245.933L291.213,246.039L291.251,246.096L291.409,246.336L291.566,246.577L291.722,246.818L291.877,247.059L292.03,247.3L292.182,247.542L292.332,247.783L292.481,248.025L292.629,248.267L292.775,248.509L292.92,248.75L293.063,248.992L293.205,249.234L293.345,249.476L293.485,249.717L293.622,249.959L293.758,250.201L293.893,250.442L294.026,250.683L294.157,250.924L294.288,251.165L294.416,251.405L294.543,251.645L294.669,251.885L294.792,252.125L294.915,252.365L295.036,252.604L295.155,252.842L295.272,253.081L295.388,253.319L295.502,253.556L295.615,253.793L295.726,254.03L295.835,254.266L295.943,254.501L296.049,254.737L296.153,254.971L296.255,255.205L296.356,255.439L296.489,255.751L296.619,256.063L296.748,256.376L296.876,256.69L297.001,257.004L297.125,257.319L297.247,257.634L297.368,257.949L297.487,258.265L297.604,258.582L297.72,258.899L297.834,259.216L297.947,259.533L298.058,259.851L298.168,260.169L298.276,260.488L298.383,260.807L298.488,261.126L298.592,261.445L298.695,261.765L298.796,262.084L298.896,262.405L298.995,262.725L299.092,263.045L299.188,263.366L299.283,263.686L299.377,264.007L299.469,264.328L299.56,264.649L299.65,264.97L299.739,265.292L299.827,265.613L299.914,265.934L300,266.256L300.084,266.577L300.168,266.898L300.25,267.219L300.332,267.541L300.413,267.862L300.492,268.183L300.571,268.504L300.649,268.825L300.726,269.146L300.802,269.469L300.952,270.107L301.098,270.747L301.242,271.386L301.382,272.024L301.52,272.661L301.655,273.297L301.788,273.931L301.919,274.564L302.048,275.195L302.176,275.833L302.208,275.999L302.24,276.173L302.27,276.347L302.299,276.522L302.325,276.696L302.35,276.87L302.373,277.043L302.395,277.217L302.415,277.391L302.433,277.564L302.45,277.737L302.465,277.91L302.478,278.083L302.491,278.256L302.502,278.429L302.511,278.601L302.519,278.773L302.526,278.945L302.532,279.117L302.536,279.289L302.54,279.46L302.542,279.631L302.543,279.803L302.543,279.973L302.541,280.144L302.539,280.314L302.536,280.485L302.531,280.654L302.526,280.824L302.52,280.994L302.513,281.163L302.505,281.337L302.487,281.669L302.465,282.006L302.441,282.341L302.413,282.676L302.383,283.01L302.351,283.343L302.316,283.674L302.279,284.005L302.241,284.334L302.2,284.662L302.158,284.989L302.115,285.315L302.071,285.639L302.025,285.962L301.978,286.284L301.931,286.606L301.835,287.238L301.737,287.867L301.543,289.1L301.449,289.704L301.358,290.302L301.314,290.593L301.272,290.884L301.23,291.171L301.191,291.456L301.152,291.738L301.147,291.777L301.142,291.879L301.124,292.183L301.105,292.487L301.085,292.791L301.064,293.094L301.042,293.398L301.02,293.702L300.996,294.006L300.972,294.309L300.946,294.612L300.92,294.916L300.893,295.219L300.865,295.522L300.846,295.721L300.844,295.794L300.838,295.941L300.829,296.086L300.817,296.23L300.804,296.373L300.788,296.513L300.771,296.652L300.752,296.79L300.731,296.926L300.712,297.035L300.712,297.036L300.679,297.339L300.645,297.641L300.61,297.944L300.574,298.246L300.538,298.548L300.5,298.85L300.462,299.152L300.423,299.453L300.382,299.755L300.341,300.056L300.3,300.357L300.258,300.654L300.147,301.436L300.034,302.226L299.975,302.63L299.915,303.038L299.851,303.449L299.785,303.864L299.717,304.28L299.68,304.494L299.643,304.705L299.605,304.918L299.565,305.131L299.525,305.345L299.483,305.56L299.44,305.776L299.395,305.992L299.349,306.209L299.302,306.427L299.253,306.645L299.202,306.864L299.149,307.084L299.095,307.304L299.039,307.525L298.981,307.746L298.921,307.968L298.859,308.19L298.794,308.413L298.728,308.636L298.659,308.86L298.588,309.083L298.514,309.308L298.438,309.532L298.359,309.757L298.278,309.982L298.193,310.207L298.106,310.432L298.016,310.657L297.923,310.882L297.827,311.107L297.728,311.332L297.626,311.557L297.521,311.781L297.412,312.005L297.299,312.229L297.184,312.453L297.064,312.676L296.941,312.898L296.815,313.12L296.685,313.341L296.551,313.562L296.413,313.781L296.272,314L296.13,314.211L296.052,314.326L295.986,314.421L295.831,314.644L295.688,314.853L295.547,315.064L295.408,315.274L295.27,315.485L295.135,315.696L295.001,315.908L294.869,316.12L294.738,316.333L294.608,316.546L294.479,316.76L294.352,316.974L294.225,317.189L294.099,317.404L293.973,317.62L293.85,317.835L293.599,318.274L293.351,318.712L292.851,319.596L292.597,320.043L292.341,320.488L292.209,320.716L292.077,320.942L291.943,321.168L291.808,321.396L291.67,321.623L291.531,321.851L291.389,322.08L291.246,322.309L291.099,322.538L290.95,322.767L290.798,322.997L290.643,323.227L290.485,323.457L290.324,323.687L290.159,323.916L289.99,324.146L289.818,324.375L289.642,324.604L289.466,324.828L289.371,324.946L289.278,325.06L289.185,325.174L289.09,325.287L288.994,325.4L288.897,325.513L288.799,325.626L288.7,325.739L288.6,325.851L288.498,325.963L288.395,326.074L288.292,326.186L288.187,326.296L288.08,326.407L287.973,326.517L287.864,326.627L287.754,326.737L287.643,326.845L287.53,326.954L287.416,327.062L287.301,327.17L287.185,327.277L287.067,327.383L286.949,327.489L286.828,327.595L286.706,327.7L286.583,327.805L286.459,327.908L286.334,328.012L286.207,328.114L286.078,328.216L285.949,328.318L285.818,328.418L285.683,328.52L285.546,328.622L285.406,328.723L285.266,328.823L285.124,328.921L284.983,329.016L284.841,329.11L284.698,329.202L284.555,329.292L284.412,329.381L284.268,329.467L284.123,329.551L283.979,329.634L283.833,329.715L283.688,329.793L283.542,329.87L283.396,329.946L283.249,330.019L283.103,330.09L282.956,330.16L282.809,330.228L282.662,330.294L282.515,330.358L282.367,330.42L282.219,330.481L282.072,330.54L281.924,330.597L281.776,330.652L281.628,330.706L281.48,330.758L281.332,330.809L281.185,330.857L281.037,330.905L280.889,330.95L280.742,330.994L280.594,331.037L280.447,331.078L280.3,331.117L280.153,331.155L280.006,331.191L279.86,331.226L279.714,331.26L279.568,331.292L279.422,331.323L279.276,331.353L279.131,331.381L278.986,331.408L278.842,331.434L278.697,331.458L278.553,331.482L278.41,331.504L278.266,331.525L278.123,331.545L277.981,331.564L277.839,331.581L277.697,331.598L277.549,331.615L277.273,331.643L276.993,331.668L276.714,331.689L276.436,331.708L276.161,331.723L275.886,331.735L275.613,331.745L275.342,331.752L275.305,331.753L275.068,331.905L274.982,331.961L274.881,332.027L274.599,332.214L274.247,332.448L273.836,332.72L273.384,333.018L273.14,333.177L272.892,333.337L272.637,333.5L272.377,333.665L272.114,333.83L271.847,333.994L271.578,334.157L271.308,334.318L271.041,334.473L270.901,334.553L270.764,334.63L270.627,334.706L270.49,334.78L270.353,334.854L270.214,334.926L270.075,334.998L269.933,335.068L269.791,335.137L269.645,335.205L269.496,335.272L269.343,335.338L269.183,335.403L269.016,335.467L268.839,335.531L268.647,335.593L268.438,335.653L268.229,335.705L268.08,335.737L267.943,335.762L267.794,335.785L267.635,335.805L267.459,335.82L267.267,335.829L267.058,335.83L266.826,335.82L266.569,335.795L266.289,335.749L265.981,335.676L265.648,335.57L265.47,335.495L265.125,335.331L265.11,335.323L264.929,335.22L264.755,335.108L264.74,335.099L264.56,334.968L264.386,334.828L264.373,334.817L264.104,334.564L263.858,334.287L263.64,333.989L263.449,333.671L263.289,333.338L263.161,332.991L263.065,332.634L263.065,332.631L263.004,332.279L262.974,331.923L262.977,331.566L263.012,331.211L263.078,330.86L263.175,330.516L263.302,330.182L263.304,330.179L263.459,329.861L263.641,329.558L263.849,329.273L263.859,329.261L264.004,329.09L264.158,328.927L264.244,328.841L264.379,328.718L264.426,328.679L264.349,328.367L264.292,327.979L264.274,327.587L264.294,327.195L264.351,326.822L264.328,326.741L264.261,326.354L264.233,325.963L264.242,325.57L264.291,325.181L264.377,324.798L264.5,324.425L264.659,324.066L264.853,323.725L265.079,323.404L265.335,323.107L265.62,322.836L265.929,322.595L266.261,322.385L266.612,322.209L266.978,322.067L267.273,321.97L267.579,321.871L267.884,321.775L268.188,321.681L268.489,321.59L268.79,321.501L269.088,321.415L269.385,321.331L269.681,321.248L269.974,321.168L270.266,321.09L270.556,321.014L270.844,320.939L271.13,320.866L271.415,320.795L271.697,320.726L271.978,320.657L272.259,320.59L272.807,320.461L273.349,320.335L273.883,320.214L274.408,320.096L274.815,320.005L274.954,319.843L275.183,319.574L275.41,319.302L275.638,319.028L275.864,318.75L276.09,318.47L276.316,318.188L276.541,317.903L276.766,317.616L276.99,317.327L277.214,317.036L277.438,316.743L277.662,316.449L277.885,316.155L278.333,315.558L278.529,315.296L278.723,315.033L278.917,314.77L279.109,314.505L279.301,314.239L279.492,313.972L279.682,313.704L279.871,313.436L280.059,313.166L280.245,312.895L280.431,312.624L280.616,312.351L280.8,312.078L280.983,311.804L281.165,311.529L281.345,311.252L281.525,310.975L281.703,310.698L281.88,310.419L282.056,310.139L282.231,309.859L282.405,309.578L282.577,309.296L282.749,309.013L282.919,308.729L283.087,308.445L283.255,308.16L283.421,307.874L283.586,307.587L283.749,307.299L283.911,307.011L284.072,306.722L284.232,306.433L284.39,306.142L284.546,305.851L284.701,305.559L284.855,305.267L285.007,304.974L285.158,304.68L285.308,304.385L285.455,304.09L285.602,303.794L285.746,303.498L285.889,303.201L286.031,302.903L286.171,302.605L286.31,302.306L286.446,302.007L286.582,301.707L286.715,301.406L286.847,301.105L286.977,300.803L287.106,300.501L287.232,300.198L287.357,299.895L287.481,299.591L287.602,299.287L287.722,298.983L287.791,298.803L287.795,298.741L287.816,298.399L287.835,298.055L287.852,297.71L287.867,297.363L287.881,297.014L287.894,296.664L287.905,296.312L287.915,295.958L287.924,295.603L287.931,295.246L287.938,294.887L287.943,294.527L287.948,294.165L287.951,293.803L287.957,293.068L287.96,292.328L287.961,291.583L287.961,290.07L287.961,287.666L287.959,286.471L287.956,285.28L287.951,284.092L287.948,283.502L287.943,282.911L287.938,282.322L287.932,281.733L287.925,281.146L287.917,280.56L287.908,279.975L287.898,279.391L287.887,278.808L287.874,278.226L287.86,277.645L287.845,277.065L287.828,276.486L287.809,275.908L287.789,275.331L287.767,274.755L287.743,274.179L287.718,273.605L287.69,273.032L287.661,272.46L287.629,271.888L287.596,271.318L287.56,270.748L287.522,270.18L287.482,269.612L287.456,269.258L287.429,269.197L287.262,268.813L287.096,268.427L286.93,268.041L286.764,267.652L286.436,266.877L286.108,266.098L285.781,265.317L285.453,264.536L285.124,263.756L284.793,262.975L284.628,262.588L284.461,262.2L284.294,261.813L284.126,261.426L283.958,261.041L283.788,260.657L283.618,260.275L283.446,259.893L283.274,259.514L283.1,259.136L282.925,258.76L282.749,258.385L282.572,258.013L282.393,257.643L282.213,257.275L282.031,256.91L281.848,256.547L281.663,256.187L281.475,255.827L281.383,255.652L281.289,255.476L281.194,255.3L281.099,255.125L281.003,254.95L280.907,254.776L280.811,254.603L280.714,254.432L280.617,254.26L280.519,254.09L280.421,253.921L280.322,253.752L280.223,253.585L280.123,253.418L280.023,253.252L279.923,253.088L279.821,252.924L279.72,252.761L279.617,252.599L279.515,252.438L279.412,252.279L279.308,252.12L279.204,251.962L279.099,251.806L278.994,251.65L278.888,251.496L278.782,251.342L278.675,251.19L278.567,251.039L278.459,250.889L278.351,250.741L278.242,250.593L278.132,250.446L278.022,250.301L277.911,250.157L277.8,250.014L277.688,249.873L277.576,249.733L277.462,249.594L277.349,249.456L277.235,249.319L277.12,249.184L277.068,249.123L276.925,249.057L276.762,248.984L276.599,248.912L276.436,248.842L276.274,248.773L276.111,248.706L275.948,248.641L275.785,248.577L275.622,248.515L275.46,248.454L275.297,248.395L275.135,248.338L274.972,248.283L274.811,248.229L274.649,248.177L274.487,248.127L274.325,248.078L274.152,248.028L273.797,247.925L273.431,247.819L273.066,247.711L272.701,247.602L272.337,247.492L271.974,247.381L271.612,247.27L271.251,247.157L270.891,247.044L270.531,246.931L270.172,246.816L269.813,246.701L269.102,246.471L268.392,246.238L267.686,246.005L266.984,245.771L266.286,245.537L265.591,245.304L264.213,244.84L263.531,244.611L262.821,244.373L262.706,244.333L262.575,244.284L262.447,244.234L262.316,244.18L262.178,244.121L262.034,244.058L261.881,243.988L261.721,243.913L261.554,243.831L261.38,243.743L261.199,243.647L261.021,243.548L260.916,243.488L260.818,243.429L260.717,243.368L260.615,243.304L260.511,243.237L260.404,243.165L260.294,243.089L260.182,243.008L260.067,242.922L259.949,242.829L259.826,242.729L259.699,242.618L259.569,242.498L259.433,242.365L259.292,242.216L259.147,242.05L258.997,241.862L258.843,241.648L258.706,241.431L258.613,241.269L258.538,241.125L258.463,240.967L258.391,240.801L258.323,240.625L258.26,240.434L258.203,240.231L258.153,240.017L258.114,239.793L258.085,239.556L258.069,239.312L258.067,239.058L258.08,238.799L258.11,238.539L258.156,238.276L258.218,238.018L258.296,237.763L258.389,237.516L258.494,237.281L258.61,237.058L258.736,236.846L258.869,236.648L258.928,236.57L258.861,236.536L258.43,236.315L258.004,236.095L257.585,235.877L257.173,235.662L256.77,235.449L256.376,235.239L255.993,235.033L255.621,234.831L255.262,234.633L254.915,234.44L254.582,234.251L254.267,234.069L254.109,233.976L253.958,233.886L253.81,233.797L253.666,233.709L253.524,233.621L253.386,233.533L253.249,233.445L253.115,233.357L252.981,233.267L252.849,233.174L252.715,233.078L252.578,232.976L252.437,232.866L252.288,232.743L252.127,232.602L251.968,232.451L251.853,232.332L251.747,232.217L251.633,232.083L251.508,231.924L251.373,231.732L251.228,231.501L251.073,231.211L250.999,231.036L250.923,230.844L250.857,230.649L250.853,230.635L250.785,230.389L250.733,230.138L250.731,230.125L250.69,229.824L250.672,229.519L250.672,229.507L250.681,229.149L250.722,228.792L250.724,228.781L250.807,228.393L250.927,228.015L250.931,228.004L251.092,227.633L251.289,227.28L251.295,227.271L251.514,226.956L251.762,226.664L251.77,226.656L252.01,226.42L252.268,226.205L252.279,226.198L252.515,226.031L252.763,225.882L252.775,225.875L252.984,225.767L253.199,225.672L253.213,225.666L253.575,225.537L253.742,225.487L254.041,225.422L254.297,225.384L254.519,225.362L254.711,225.353L254.882,225.351L255.036,225.354L255.173,225.361L255.302,225.371L255.439,225.384L255.637,225.409L255.84,225.44L256.031,225.475L256.217,225.513L256.402,225.554L256.588,225.599L256.777,225.646L256.971,225.697L257.17,225.752L257.377,225.81L257.59,225.873L257.813,225.939L258.044,226.01L258.275,226.083L258.808,226.25L259.317,226.406L259.811,226.556L260.29,226.698L260.755,226.834L261.205,226.962L261.642,227.085L262.064,227.201L262.473,227.311L262.869,227.414L263.251,227.512L263.62,227.604L263.977,227.691L264.321,227.772L264.652,227.848L264.971,227.919L265.278,227.985L265.573,228.046L265.856,228.103L266.128,228.155L266.388,228.203L266.638,228.247L266.877,228.287L267.105,228.323L267.322,228.356L267.53,228.386L267.727,228.412L267.914,228.436L268.093,228.456L268.261,228.474L268.421,228.489L268.572,228.503L268.715,228.514L268.85,228.523L268.977,228.53L269.096,228.536L269.209,228.54L269.314,228.543L269.414,228.545L269.508,228.546L269.597,228.546L269.682,228.545L269.763,228.544L269.835,228.542L269.994,228.536L270.145,228.529L270.306,228.522L270.478,228.514L270.586,228.51L270.701,228.507L270.83,228.506L270.974,228.508L271.137,228.514Z" style="fill:rgb(217,217,217);"/>
                <g transform="matrix(0.9,9.75782e-20,-3.25261e-19,1,-407.591,-92.1434)">
                    <text x="792.792px" y="382.034px" style="font-family:'ChalkboardSE-Bold', 'Chalkboard SE', cursive;font-weight:700;font-size:24px;">B<tspan x="805.807px 811.13px " y="382.034px 382.034px ">iz</tspan></text>
                </g>
            </g>
            <path d="M269.847,231.194C264.483,232.837 260.776,235.993 258.622,240.693C258.252,241.5 257.686,242.225 257.253,243.047C252.467,252.134 250.548,265.845 251.747,284.587C254.966,314.428 262.85,331.082 276.234,332.191C289.208,332.968 296.44,316.662 298.536,285.073C298.568,247.84 288.278,231.786 269.847,231.194C332.273,231.298 258.945,230.896 323.092,232.007C336.036,239.129 341.009,252.062 343.138,281.782C342.283,314.844 336.104,324.782 333.066,327.599C327.151,333.082 331.158,331.9 311.493,332.386C295.068,332.793 305.918,332.9 276.234,332.191L278.069,332.184C290.143,331.434 296.686,314.934 298.536,285.073C298.653,248.825 288.214,232.52 269.847,231.194" style="fill:none;stroke:black;stroke-width:4.5px;"/>
        </g>
        <g id="Communication-State" transform="matrix(1,0,0,1,80.4503,0)">
            <path d="M269.847,231.194C264.483,232.837 260.685,235.952 258.622,240.693C250.028,260.436 251.916,275.765 253.115,294.507C256.334,324.348 262.85,331.082 276.234,332.191C289.208,332.968 292.614,316.662 294.709,285.073C294.742,247.84 288.278,231.786 269.847,231.194C332.273,231.298 258.945,230.896 323.092,232.007C336.036,239.129 341.009,252.062 343.138,281.782C342.283,314.844 336.104,324.782 333.066,327.599C327.151,333.082 331.158,331.9 311.493,332.386C295.068,332.793 305.918,332.9 276.234,332.191L278.069,332.184C290.143,331.434 292.86,314.934 294.709,285.073C294.826,248.825 288.214,232.52 269.847,231.194" style="fill:rgb(242,242,242);"/>
            <clipPath id="_clip2">
                <path d="M269.847,231.194C264.483,232.837 260.685,235.952 258.622,240.693C250.028,260.436 251.916,275.765 253.115,294.507C256.334,324.348 262.85,331.082 276.234,332.191C289.208,332.968 292.614,316.662 294.709,285.073C294.742,247.84 288.278,231.786 269.847,231.194C332.273,231.298 258.945,230.896 323.092,232.007C336.036,239.129 341.009,252.062 343.138,281.782C342.283,314.844 336.104,324.782 333.066,327.599C327.151,333.082 331.158,331.9 311.493,332.386C295.068,332.793 305.918,332.9 276.234,332.191L278.069,332.184C290.143,331.434 292.86,314.934 294.709,285.073C294.826,248.825 288.214,232.52 269.847,231.194"/>
            </clipPath>
            <g clip-path="url(#_clip2)">
                <path d="M271.137,228.514L271.32,228.526L271.525,228.547L271.752,228.58L271.999,228.628L272.263,228.695L272.541,228.783L272.77,228.873L273.065,229.001L273.306,229.108L273.548,229.219L273.789,229.331L274.031,229.447L274.272,229.564L274.513,229.685L274.754,229.807L274.995,229.932L275.235,230.06L275.476,230.19L275.716,230.322L275.956,230.456L276.196,230.593L276.436,230.732L276.675,230.874L276.914,231.017L277.153,231.163L277.391,231.31L277.629,231.461L277.867,231.613L278.105,231.767L278.342,231.923L278.578,232.082L278.815,232.242L279.05,232.405L279.286,232.569L279.521,232.736L279.755,232.904L279.989,233.075L280.222,233.247L280.454,233.422L280.686,233.598L280.918,233.776L281.148,233.956L281.379,234.138L281.608,234.322L281.836,234.507L282.064,234.694L282.291,234.883L282.518,235.074L282.743,235.266L282.967,235.461L283.191,235.657L283.414,235.854L283.636,236.054L283.857,236.254L284.076,236.457L284.295,236.661L284.513,236.867L284.729,237.074L284.793,237.136L284.954,237.233L285.192,237.381L285.43,237.532L285.669,237.686L285.917,237.85L286.04,237.933L286.17,238.025L286.297,238.119L286.421,238.214L286.542,238.311L286.661,238.409L286.778,238.509L286.89,238.608L287.002,238.71L287.111,238.813L287.216,238.915L287.32,239.019L287.422,239.125L287.522,239.231L287.62,239.337L287.715,239.444L287.809,239.552L287.9,239.66L287.99,239.769L288.079,239.879L288.165,239.989L288.25,240.099L288.333,240.21L288.415,240.321L288.495,240.434L288.574,240.546L288.652,240.658L288.728,240.771L288.803,240.885L288.877,240.999L288.949,241.113L289.02,241.227L289.09,241.342L289.16,241.457L289.227,241.572L289.294,241.688L289.36,241.804L289.428,241.926L289.552,242.153L289.675,242.387L289.795,242.621L289.911,242.857L290.025,243.093L290.113,243.283L290.236,243.456L290.408,243.702L290.578,243.95L290.746,244.199L290.912,244.448L291.076,244.7L291.238,244.952L291.398,245.205L291.555,245.46L291.71,245.715L291.863,245.971L292.013,246.229L292.161,246.488L292.307,246.748L292.45,247.008L292.591,247.27L292.729,247.533L292.865,247.797L292.998,248.061L293.128,248.327L293.256,248.594L293.381,248.862L293.503,249.131L293.622,249.401L293.739,249.672L293.852,249.944L293.963,250.216L294.07,250.49L294.174,250.765L294.276,251.04L294.374,251.317L294.469,251.595L294.56,251.873L294.648,252.153L294.731,252.427L294.774,252.573L294.814,252.714L294.854,252.855L294.892,252.996L294.93,253.138L294.966,253.279L295.002,253.421L295.037,253.563L295.071,253.705L295.104,253.847L295.136,253.991L295.167,254.133L295.197,254.277L295.226,254.42L295.254,254.563L295.282,254.707L295.308,254.851L295.333,254.994L295.357,255.139L295.38,255.284L295.402,255.429L295.424,255.573L295.444,255.718L295.463,255.864L295.48,256.009L295.497,256.154L295.513,256.301L295.528,256.446L295.541,256.592L295.554,256.736L295.571,256.962L295.588,257.184L295.603,257.405L295.616,257.624L295.629,257.841L295.64,258.057L295.65,258.27L295.659,258.482L295.667,258.693L295.673,258.902L295.679,259.109L295.683,259.315L295.686,259.52L295.688,259.722L295.689,259.923L295.69,260.122L295.689,260.321L295.687,260.517L295.684,260.712L295.68,260.905L295.676,261.097L295.67,261.288L295.664,261.476L295.657,261.664L295.649,261.85L295.64,262.038L295.62,262.399L295.598,262.758L295.573,263.111L295.546,263.458L295.516,263.799L295.485,264.136L295.457,264.411L295.496,265.289L295.551,266.459L295.606,267.626L295.663,268.79L295.778,271.111L295.834,272.27L295.889,273.427L295.942,274.582L295.993,275.736L296.017,276.315L296.04,276.893L296.062,277.47L296.083,278.047L296.103,278.625L296.122,279.203L296.14,279.78L296.156,280.358L296.171,280.936L296.185,281.515L296.196,282.093L296.207,282.672L296.215,283.252L296.222,283.831L296.227,284.411L296.229,284.992L296.23,285.573L296.229,286.154L296.225,286.736L296.22,287.319L296.212,287.902L296.201,288.486L296.188,289.071L296.172,289.656L296.154,290.242L296.133,290.829L296.109,291.417L296.082,292.005L296.052,292.595L296.019,293.182L296.001,293.48L295.983,293.776L295.963,294.072L295.943,294.368L295.922,294.665L295.901,294.961L295.878,295.258L295.855,295.555L295.83,295.852L295.805,296.15L295.779,296.448L295.752,296.746L295.724,297.045L295.695,297.344L295.665,297.643L295.634,297.942L295.603,298.241L295.57,298.541L295.537,298.842L295.502,299.142L295.466,299.443L295.43,299.744L295.392,300.045L295.354,300.347L295.314,300.649L295.273,300.951L295.236,301.224L295.26,301.289L295.32,301.462L295.377,301.636L295.43,301.81L295.479,301.985L295.526,302.16L295.57,302.337L295.611,302.517L295.65,302.696L295.686,302.878L295.721,303.061L295.753,303.247L295.783,303.436L295.811,303.626L295.837,303.818L295.861,304.014L295.884,304.213L295.905,304.414L295.924,304.618L295.941,304.827L295.957,305.038L295.972,305.252L295.984,305.471L295.995,305.692L296.005,305.918L296.013,306.148L296.02,306.381L296.025,306.619L296.029,306.861L296.031,307.108L296.031,307.359L296.03,307.614L296.028,307.874L296.024,308.14L296.019,308.409L296.012,308.683L296.003,308.963L295.993,309.248L295.982,309.537L295.969,309.832L295.954,310.132L295.938,310.438L295.92,310.749L295.901,311.066L295.879,311.388L295.857,311.715L295.833,312.049L295.807,312.388L295.779,312.734L295.75,313.085L295.719,313.442L295.686,313.805L295.652,314.175L295.616,314.55L295.578,314.932L295.538,315.32L295.497,315.715L295.454,316.116L295.409,316.524L295.362,316.938L295.313,317.359L295.263,317.787L295.211,318.221L295.156,318.662L295.1,319.11L295.041,319.577L295.024,319.698L295.005,319.829L294.983,319.96L294.96,320.091L294.935,320.222L294.909,320.351L294.881,320.481L294.851,320.609L294.819,320.738L294.785,320.865L294.75,320.991L294.713,321.118L294.674,321.243L294.634,321.368L294.591,321.493L294.547,321.616L294.502,321.738L294.455,321.859L294.406,321.979L294.355,322.1L294.303,322.218L294.25,322.335L294.194,322.453L294.137,322.569L294.079,322.683L294.02,322.795L293.958,322.908L293.896,323.019L293.832,323.128L293.766,323.237L293.7,323.345L293.632,323.451L293.563,323.555L293.492,323.659L293.421,323.762L293.348,323.862L293.274,323.963L293.199,324.061L293.124,324.157L293.048,324.253L292.969,324.348L292.89,324.441L292.811,324.532L292.731,324.623L292.65,324.711L292.568,324.798L292.485,324.885L292.401,324.97L292.318,325.054L292.232,325.137L292.147,325.217L292.061,325.297L291.974,325.376L291.888,325.453L291.8,325.529L291.712,325.604L291.624,325.677L291.527,325.756L291.356,325.891L291.175,326.028L290.993,326.16L290.81,326.288L290.626,326.412L290.441,326.531L290.255,326.647L290.068,326.76L289.881,326.868L289.692,326.974L289.504,327.075L289.315,327.174L289.125,327.27L288.935,327.363L288.745,327.453L288.554,327.541L288.363,327.626L288.172,327.708L287.981,327.788L287.789,327.866L287.597,327.943L287.405,328.016L287.214,328.088L287.022,328.159L286.829,328.227L286.637,328.294L286.445,328.359L286.253,328.423L286.061,328.485L285.869,328.546L285.677,328.606L285.49,328.663L285.406,328.723L285.266,328.823L285.124,328.921L284.983,329.016L284.841,329.11L284.698,329.202L284.555,329.293L284.412,329.38L284.268,329.467L284.123,329.551L283.979,329.634L283.833,329.715L283.688,329.793L283.542,329.87L283.396,329.946L283.249,330.019L283.103,330.09L282.956,330.16L282.809,330.228L282.662,330.294L282.515,330.358L282.367,330.42L282.219,330.481L282.071,330.54L281.924,330.597L281.776,330.652L281.628,330.706L281.48,330.758L281.332,330.809L281.185,330.857L281.037,330.905L280.889,330.95L280.742,330.994L280.594,331.037L280.447,331.078L280.3,331.117L280.153,331.155L280.006,331.191L279.86,331.226L279.714,331.26L279.568,331.292L279.422,331.323L279.276,331.353L279.131,331.381L278.986,331.408L278.842,331.434L278.697,331.458L278.553,331.482L278.41,331.504L278.266,331.525L278.123,331.545L277.981,331.564L277.838,331.582L277.697,331.598L277.549,331.615L277.273,331.643L276.993,331.668L276.714,331.689L276.436,331.708L276.161,331.723L275.886,331.735L275.613,331.745L275.342,331.752L275.322,331.753L275.309,331.76L275.221,331.812L275.136,331.863L275.05,331.917L274.982,331.961L274.881,332.027L274.599,332.214L274.247,332.448L273.836,332.72L273.384,333.018L273.14,333.176L272.892,333.337L272.637,333.5L272.377,333.665L272.114,333.829L271.847,333.994L271.578,334.157L271.308,334.318L271.041,334.473L270.9,334.553L270.764,334.63L270.627,334.706L270.49,334.78L270.353,334.854L270.214,334.926L270.075,334.997L269.933,335.068L269.791,335.137L269.645,335.205L269.496,335.272L269.343,335.338L269.184,335.403L269.016,335.467L268.839,335.531L268.647,335.593L268.438,335.653L268.229,335.705L268.08,335.737L267.943,335.762L267.794,335.785L267.635,335.805L267.459,335.82L267.266,335.829L267.058,335.83L266.826,335.82L266.57,335.795L266.289,335.749L265.98,335.676L265.648,335.57L265.473,335.497L265.125,335.331L265.11,335.323L264.928,335.22L264.753,335.107L264.738,335.097L264.559,334.968L264.386,334.828L264.373,334.817L264.107,334.568L263.864,334.295L263.648,334.001L263.459,333.688L263.299,333.36L263.17,333.018L263.072,332.666L263.072,332.664L263.007,332.308L262.975,331.947L262.976,331.585L263.01,331.225L263.075,330.869L263.173,330.521L263.302,330.182L263.304,330.179L263.459,329.86L263.643,329.556L263.852,329.269L263.861,329.257L264.005,329.088L264.158,328.927L264.243,328.842L264.38,328.718L264.426,328.679L264.349,328.367L264.292,327.979L264.274,327.587L264.294,327.195L264.351,326.822L264.328,326.741L264.261,326.354L264.233,325.963L264.243,325.57L264.291,325.181L264.377,324.798L264.5,324.425L264.659,324.066L264.853,323.725L265.079,323.404L265.336,323.107L265.62,322.836L265.93,322.595L266.261,322.385L266.612,322.209L266.978,322.067L267.272,321.97L267.576,321.873L267.876,321.778L268.172,321.687L268.465,321.599L268.755,321.514L269.041,321.432L269.323,321.353L269.602,321.277L269.877,321.204L270.148,321.133L270.416,321.065L270.68,320.999L270.941,320.936L271.198,320.875L271.451,320.816L271.7,320.759L271.946,320.705L272.188,320.652L272.426,320.601L272.66,320.552L272.893,320.504L273.338,320.415L273.771,320.33L274.189,320.25L274.683,320.157L274.723,320.111L274.954,319.843L275.183,319.574L275.41,319.302L275.638,319.028L275.864,318.75L276.09,318.47L276.316,318.188L276.541,317.903L276.766,317.616L276.99,317.327L277.214,317.036L277.438,316.743L277.662,316.449L277.885,316.155L278.331,315.561L278.52,315.307L278.704,315.055L278.887,314.802L279.067,314.548L279.245,314.293L279.422,314.036L279.596,313.779L279.768,313.521L279.938,313.262L280.107,313.002L280.273,312.74L280.437,312.478L280.599,312.215L280.759,311.951L280.917,311.686L281.073,311.42L281.211,311.182L281.238,311.003L281.289,310.653L281.339,310.296L281.389,309.929L281.439,309.554L281.489,309.17L281.541,308.759L281.557,308.64L281.577,308.503L281.599,308.368L281.623,308.235L281.648,308.104L281.674,307.973L281.702,307.846L281.731,307.718L281.761,307.592L281.793,307.467L281.825,307.342L281.858,307.219L281.893,307.097L281.931,306.967L282.001,306.733L282.078,306.493L282.158,306.255L282.24,306.019L282.325,305.783L282.413,305.548L282.503,305.314L282.542,305.215L282.54,305.212L282.394,304.953L282.273,304.703L282.174,304.463L282.094,304.237L282.029,304.023L281.976,303.818L281.934,303.623L281.901,303.438L281.876,303.261L281.856,303.091L281.842,302.929L281.832,302.77L281.826,302.615L281.823,302.465L281.823,302.317L281.825,302.172L281.83,302.027L281.837,301.883L281.846,301.742L281.856,301.6L281.869,301.456L281.883,301.313L281.898,301.169L281.916,301.023L281.935,300.875L281.955,300.726L281.977,300.575L282.001,300.421L282.025,300.265L282.052,300.107L282.08,299.944L282.11,299.78L282.141,299.612L282.173,299.441L282.208,299.267L282.244,299.084L282.32,298.721L282.403,298.338L282.493,297.939L282.589,297.522L282.693,297.087L282.804,296.633L282.922,296.16L283.047,295.667L283.181,295.154L283.322,294.619L283.471,294.063L283.628,293.484L283.679,293.298L283.59,293.083L283.519,292.889L283.462,292.712L283.415,292.548L283.375,292.393L283.341,292.246L283.311,292.106L283.284,291.968L283.261,291.833L283.239,291.7L283.22,291.567L283.202,291.434L283.185,291.299L283.17,291.164L283.156,291.028L283.142,290.887L283.13,290.745L283.118,290.6L283.106,290.446L283.087,290.144L283.069,289.821L283.053,289.48L283.04,289.122L283.029,288.744L283.019,288.346L283.012,287.928L283.006,287.487L283.003,287.024L283.002,286.539L283.002,286.03L283.005,285.497L283.009,284.939L283.016,284.356L283.025,283.748L283.036,283.113L283.049,282.452L283.064,281.764L283.082,281.049L283.101,280.305L283.123,279.533L283.148,278.733L283.175,277.903L283.204,277.043L283.235,276.153L283.269,275.233L283.306,274.282L283.345,273.299L283.386,272.285L283.43,271.239L283.477,270.159L283.526,269.055L283.534,268.872L283.54,268.696L283.545,268.52L283.549,268.343L283.552,268.166L283.553,267.988L283.554,267.809L283.553,267.631L283.552,267.451L283.549,267.271L283.545,267.091L283.54,266.911L283.533,266.73L283.526,266.549L283.517,266.368L283.508,266.186L283.497,266.003L283.485,265.821L283.472,265.639L283.458,265.455L283.442,265.272L283.426,265.089L283.408,264.905L283.389,264.722L283.369,264.538L283.348,264.353L283.326,264.169L283.303,263.985L283.279,263.8L283.253,263.616L283.226,263.431L283.199,263.247L283.17,263.062L283.14,262.878L283.108,262.693L283.076,262.508L283.043,262.323L283.008,262.138L282.973,261.954L282.936,261.77L282.898,261.585L282.859,261.401L282.819,261.217L282.778,261.033L282.735,260.849L282.692,260.665L282.647,260.482L282.602,260.299L282.555,260.116L282.507,259.933L282.458,259.75L282.408,259.568L282.357,259.386L282.305,259.204L282.252,259.023L282.198,258.842L282.142,258.661L282.086,258.481L282.028,258.301L281.97,258.122L281.91,257.942L281.849,257.763L281.788,257.585L281.725,257.408L281.661,257.23L281.596,257.053L281.53,256.877L281.463,256.702L281.395,256.527L281.326,256.352L281.256,256.178L281.184,256.004L281.112,255.831L281.039,255.659L280.965,255.487L280.889,255.316L280.813,255.146L280.736,254.976L280.658,254.807L280.579,254.639L280.498,254.471L280.417,254.305L280.335,254.139L280.252,253.973L280.167,253.808L280.082,253.645L279.996,253.482L279.909,253.32L279.821,253.159L279.732,252.998L279.642,252.839L279.552,252.68L279.46,252.523L279.367,252.365L279.273,252.21L279.179,252.055L279.083,251.9L278.987,251.748L278.89,251.596L278.791,251.444L278.692,251.294L278.592,251.145L278.491,250.997L278.389,250.85L278.287,250.704L278.183,250.559L278.079,250.415L277.973,250.272L277.867,250.131L277.76,249.99L277.653,249.851L277.544,249.712L277.434,249.575L277.324,249.439L277.213,249.304L277.18,249.266L277.068,249.206L276.917,249.128L276.765,249.051L276.612,248.976L276.46,248.903L276.307,248.831L276.155,248.762L276.002,248.694L275.849,248.629L275.695,248.565L275.542,248.503L275.389,248.443L275.236,248.385L275.083,248.328L274.929,248.274L274.776,248.222L274.623,248.171L274.47,248.123L274.317,248.076L274.15,248.027L273.797,247.925L273.431,247.819L273.066,247.711L272.701,247.602L272.337,247.492L271.974,247.381L271.612,247.27L271.251,247.157L270.891,247.044L270.531,246.931L270.172,246.816L269.813,246.701L269.102,246.471L268.392,246.238L267.686,246.005L266.984,245.771L266.286,245.537L265.591,245.304L264.213,244.84L263.531,244.611L262.821,244.373L262.706,244.333L262.575,244.284L262.448,244.234L262.316,244.18L262.178,244.121L262.033,244.058L261.881,243.988L261.721,243.913L261.554,243.831L261.38,243.743L261.199,243.647L261.021,243.548L260.916,243.487L260.818,243.429L260.718,243.368L260.615,243.304L260.511,243.237L260.404,243.166L260.295,243.089L260.182,243.008L260.067,242.922L259.949,242.829L259.827,242.729L259.7,242.619L259.568,242.498L259.433,242.365L259.292,242.216L259.146,242.049L258.997,241.862L258.843,241.648L258.707,241.433L258.613,241.269L258.537,241.123L258.464,240.97L258.392,240.803L258.323,240.625L258.259,240.43L258.203,240.231L258.154,240.021L258.113,239.791L258.085,239.554L258.069,239.312L258.067,239.058L258.08,238.799L258.109,238.541L258.155,238.278L258.218,238.018L258.296,237.763L258.389,237.516L258.495,237.28L258.61,237.058L258.736,236.846L258.869,236.648L258.928,236.57L258.861,236.536L258.43,236.315L258.005,236.095L257.585,235.877L257.173,235.662L256.77,235.449L256.376,235.239L255.993,235.033L255.621,234.831L255.262,234.633L254.915,234.44L254.582,234.251L254.267,234.069L254.109,233.976L253.958,233.886L253.81,233.797L253.666,233.709L253.524,233.621L253.386,233.533L253.249,233.445L253.115,233.357L252.982,233.267L252.848,233.174L252.715,233.078L252.578,232.976L252.437,232.866L252.288,232.743L252.126,232.601L251.968,232.45L251.853,232.332L251.747,232.217L251.633,232.083L251.508,231.924L251.373,231.732L251.228,231.501L251.075,231.213L251.001,231.04L250.923,230.844L250.855,230.644L250.851,230.63L250.785,230.389L250.734,230.144L250.732,230.131L250.69,229.823L250.672,229.513L250.672,229.501L250.681,229.145L250.722,228.792L250.724,228.781L250.807,228.393L250.927,228.015L250.931,228.004L251.09,227.636L251.286,227.285L251.292,227.276L251.512,226.959L251.762,226.664L251.77,226.656L252.011,226.419L252.271,226.203L252.282,226.195L252.517,226.03L252.763,225.882L252.775,225.875L252.983,225.767L253.197,225.672L253.211,225.666L253.575,225.537L253.742,225.487L254.042,225.422L254.297,225.384L254.519,225.362L254.711,225.353L254.882,225.351L255.036,225.354L255.173,225.361L255.302,225.371L255.439,225.384L255.637,225.409L255.84,225.44L256.031,225.475L256.217,225.513L256.402,225.554L256.588,225.599L256.777,225.646L256.971,225.697L257.17,225.752L257.377,225.81L257.59,225.873L257.813,225.939L258.044,226.01L258.275,226.083L258.808,226.25L259.317,226.406L259.811,226.556L260.29,226.698L260.755,226.834L261.205,226.962L261.642,227.085L262.064,227.201L262.473,227.311L262.869,227.414L263.251,227.512L263.62,227.604L263.977,227.691L264.321,227.772L264.652,227.848L264.971,227.919L265.278,227.985L265.573,228.046L265.856,228.103L266.128,228.155L266.388,228.203L266.638,228.247L266.877,228.287L267.105,228.323L267.322,228.356L267.53,228.386L267.727,228.412L267.914,228.436L268.093,228.456L268.261,228.474L268.421,228.489L268.572,228.503L268.715,228.514L268.85,228.523L268.977,228.53L269.096,228.536L269.209,228.54L269.314,228.543L269.414,228.545L269.508,228.546L269.597,228.546L269.682,228.545L269.763,228.544L269.835,228.542L269.994,228.536L270.145,228.529L270.306,228.522L270.478,228.514L270.586,228.51L270.701,228.507L270.83,228.506L270.974,228.508L271.137,228.514Z" style="fill:rgb(217,217,217);"/>
                <g transform="matrix(0.9,9.75782e-20,-3.25261e-19,1,-413.504,-92.1434)">
                    <text x="792.792px" y="382.034px" style="font-family:'ChalkboardSE-Bold', 'Chalkboard SE', cursive;font-weight:700;font-size:24px;">C<tspan x="806.204px 817.23px " y="382.034px 382.034px ">om</tspan></text>
                </g>
            </g>
            <path d="M269.847,231.194C264.483,232.837 260.685,235.952 258.622,240.693C250.028,260.436 251.916,275.765 253.115,294.507C256.334,324.348 262.85,331.082 276.234,332.191C289.208,332.968 292.614,316.662 294.709,285.073C294.742,247.84 288.278,231.786 269.847,231.194C332.273,231.298 258.945,230.896 323.092,232.007C336.036,239.129 341.009,252.062 343.138,281.782C342.283,314.844 336.104,324.782 333.066,327.599C327.151,333.082 331.158,331.9 311.493,332.386C295.068,332.793 305.918,332.9 276.234,332.191L278.069,332.184C290.143,331.434 292.86,314.934 294.709,285.073C294.826,248.825 288.214,232.52 269.847,231.194" style="fill:none;stroke:black;stroke-width:4.5px;"/>
        </g>
        <g id="Control-State" transform="matrix(1.01175,0,0,1,181.89,0)">
            <path d="M269.847,231.194C264.483,232.837 257.686,242.225 257.253,243.047C252.467,252.134 250.548,265.845 251.747,284.587C254.966,314.428 262.85,331.082 276.234,332.191C289.208,332.968 296.44,316.662 298.536,285.073C298.568,247.84 288.278,231.786 269.847,231.194C332.273,231.298 258.945,230.896 323.092,232.007C336.036,239.129 343.124,257.125 345.253,286.845C344.398,319.907 336.104,324.782 333.066,327.599C327.151,333.082 331.158,331.9 311.493,332.386C295.068,332.793 305.918,332.9 276.234,332.191L278.069,332.184C290.143,331.434 296.686,314.934 298.536,285.073C298.653,248.825 288.214,232.52 269.847,231.194" style="fill:rgb(242,242,242);"/>
            <clipPath id="_clip3">
                <path d="M269.847,231.194C264.483,232.837 257.686,242.225 257.253,243.047C252.467,252.134 250.548,265.845 251.747,284.587C254.966,314.428 262.85,331.082 276.234,332.191C289.208,332.968 296.44,316.662 298.536,285.073C298.568,247.84 288.278,231.786 269.847,231.194C332.273,231.298 258.945,230.896 323.092,232.007C336.036,239.129 343.124,257.125 345.253,286.845C344.398,319.907 336.104,324.782 333.066,327.599C327.151,333.082 331.158,331.9 311.493,332.386C295.068,332.793 305.918,332.9 276.234,332.191L278.069,332.184C290.143,331.434 296.686,314.934 298.536,285.073C298.653,248.825 288.214,232.52 269.847,231.194"/>
            </clipPath>
            <g clip-path="url(#_clip3)">
                <path d="M271.132,228.513L271.312,228.525L271.514,228.546L271.737,228.578L271.979,228.626L272.239,228.692L272.512,228.778L272.74,228.867L273.038,228.997L273.286,229.109L273.534,229.224L273.78,229.341L274.025,229.461L274.269,229.584L274.513,229.71L274.755,229.838L274.996,229.969L275.236,230.103L275.476,230.239L275.714,230.378L275.952,230.519L276.188,230.662L276.424,230.808L276.659,230.957L276.893,231.107L277.125,231.26L277.357,231.415L277.589,231.573L277.819,231.732L278.048,231.894L278.276,232.058L278.504,232.224L278.73,232.391L278.956,232.561L279.18,232.733L279.404,232.907L279.627,233.083L279.849,233.261L280.07,233.44L280.29,233.622L280.51,233.805L280.728,233.99L280.946,234.177L281.162,234.365L281.378,234.555L281.593,234.747L281.806,234.94L282.019,235.135L282.231,235.331L282.442,235.53L282.652,235.729L282.862,235.93L283.07,236.133L283.188,236.249L283.25,236.281L283.487,236.406L283.725,236.534L283.962,236.665L284.199,236.8L284.437,236.937L284.674,237.078L284.912,237.222L285.15,237.37L285.388,237.52L285.625,237.674L285.873,237.837L285.996,237.921L286.125,238.012L286.251,238.106L286.375,238.2L286.496,238.297L286.614,238.394L286.73,238.493L286.843,238.593L286.953,238.694L287.061,238.796L287.167,238.899L287.271,239.003L287.373,239.108L287.472,239.214L287.569,239.32L287.665,239.427L287.758,239.534L287.85,239.643L287.94,239.751L288.028,239.861L288.115,239.971L288.199,240.081L288.283,240.192L288.364,240.303L288.445,240.416L288.524,240.528L288.601,240.641L288.677,240.754L288.752,240.867L288.826,240.981L288.899,241.095L288.97,241.209L289.04,241.324L289.109,241.439L289.177,241.555L289.244,241.671L289.31,241.786L289.378,241.908L289.502,242.136L289.625,242.37L289.745,242.605L289.862,242.84L289.975,243.077L290.085,243.313L290.193,243.551L290.297,243.788L290.399,244.026L290.499,244.263L290.595,244.501L290.69,244.739L290.782,244.976L290.872,245.213L290.959,245.449L291.044,245.685L291.128,245.919L291.163,246.023L291.2,246.078L291.359,246.318L291.516,246.559L291.672,246.8L291.826,247.041L291.979,247.283L292.131,247.524L292.282,247.766L292.43,248.007L292.578,248.249L292.724,248.491L292.869,248.733L293.013,248.975L293.155,249.216L293.295,249.458L293.434,249.7L293.572,249.942L293.708,250.183L293.843,250.424L293.976,250.666L294.107,250.907L294.237,251.147L294.366,251.388L294.493,251.629L294.619,251.869L294.742,252.108L294.865,252.348L294.986,252.587L295.105,252.826L295.222,253.064L295.338,253.302L295.452,253.539L295.565,253.777L295.676,254.014L295.785,254.25L295.893,254.485L295.999,254.721L296.103,254.956L296.206,255.19L296.307,255.423L296.439,255.735L296.57,256.048L296.699,256.361L296.827,256.675L296.952,256.989L297.076,257.304L297.198,257.619L297.319,257.935L297.438,258.251L297.556,258.568L297.671,258.884L297.786,259.202L297.898,259.519L298.01,259.837L298.119,260.156L298.228,260.474L298.335,260.793L298.44,261.112L298.544,261.432L298.647,261.752L298.748,262.072L298.848,262.392L298.947,262.712L299.044,263.033L299.14,263.353L299.235,263.674L299.329,263.995L299.421,264.316L299.512,264.638L299.602,264.959L299.691,265.28L299.779,265.601L299.866,265.923L299.952,266.244L300.036,266.566L300.12,266.887L300.203,267.208L300.284,267.53L300.365,267.851L300.445,268.172L300.523,268.494L300.601,268.815L300.678,269.135L300.754,269.456L300.83,269.777L300.905,270.099L301.051,270.737L301.194,271.376L301.335,272.015L301.473,272.652L301.608,273.287L301.741,273.922L301.872,274.555L302,275.186L302.129,275.824L302.161,275.99L302.193,276.165L302.223,276.339L302.252,276.515L302.278,276.689L302.303,276.863L302.327,277.038L302.348,277.212L302.368,277.385L302.386,277.56L302.403,277.733L302.418,277.906L302.432,278.08L302.444,278.253L302.455,278.426L302.465,278.599L302.473,278.771L302.48,278.944L302.485,279.116L302.49,279.287L302.493,279.46L302.495,279.631L302.496,279.802L302.496,279.974L302.495,280.144L302.493,280.315L302.489,280.486L302.485,280.656L302.48,280.826L302.474,280.995L302.467,281.165L302.459,281.335L302.45,281.504L302.44,281.677L302.419,282.009L302.394,282.345L302.367,282.68L302.337,283.014L302.304,283.347L302.269,283.679L302.233,284.01L302.194,284.339L302.154,284.668L302.112,284.995L302.068,285.321L302.024,285.645L301.978,285.969L301.931,286.29L301.884,286.613L301.788,287.245L301.69,287.874L301.496,289.107L301.402,289.711L301.311,290.308L301.267,290.6L301.225,290.89L301.183,291.178L301.144,291.462L301.106,291.744L301.101,291.781L301.095,291.881L301.077,292.185L301.058,292.49L301.038,292.794L301.017,293.098L300.996,293.401L300.973,293.705L300.949,294.009L300.925,294.313L300.9,294.616L300.874,294.92L300.847,295.223L300.819,295.527L300.8,295.724L300.798,295.796L300.791,295.943L300.782,296.09L300.771,296.235L300.757,296.378L300.742,296.519L300.724,296.658L300.705,296.797L300.684,296.933L300.666,297.042L300.632,297.344L300.598,297.647L300.563,297.949L300.527,298.251L300.491,298.553L300.453,298.855L300.415,299.157L300.376,299.459L300.336,299.761L300.295,300.062L300.253,300.364L300.211,300.66L300.1,301.442L299.987,302.232L299.928,302.637L299.868,303.045L299.804,303.456L299.738,303.872L299.669,304.287L299.633,304.502L299.596,304.713L299.557,304.926L299.518,305.139L299.477,305.354L299.436,305.569L299.392,305.785L299.348,306.002L299.302,306.219L299.254,306.436L299.205,306.655L299.154,306.874L299.102,307.095L299.047,307.315L298.991,307.536L298.933,307.758L298.873,307.98L298.811,308.202L298.746,308.425L298.68,308.649L298.611,308.873L298.539,309.097L298.466,309.321L298.389,309.546L298.31,309.771L298.229,309.996L298.144,310.221L298.057,310.446L297.967,310.672L297.874,310.897L297.778,311.122L297.679,311.348L297.576,311.573L297.471,311.797L297.362,312.022L297.249,312.246L297.134,312.47L297.014,312.693L296.891,312.916L296.765,313.138L296.635,313.359L296.501,313.579L296.363,313.799L296.225,314.011L296.149,314.126L296.076,314.236L296.001,314.344L295.935,314.439L295.781,314.662L295.637,314.871L295.496,315.081L295.357,315.292L295.22,315.503L295.084,315.714L294.951,315.926L294.818,316.138L294.687,316.35L294.558,316.564L294.429,316.777L294.301,316.992L294.175,317.206L294.049,317.422L293.923,317.638L293.799,317.853L293.549,318.291L293.3,318.73L292.801,319.613L292.547,320.06L292.291,320.506L292.159,320.734L292.027,320.96L291.893,321.186L291.758,321.413L291.62,321.641L291.481,321.869L291.339,322.098L291.195,322.327L291.048,322.556L290.899,322.785L290.747,323.015L290.592,323.245L290.434,323.475L290.273,323.705L290.108,323.934L289.94,324.164L289.768,324.393L289.592,324.622L289.416,324.845L289.321,324.964L289.228,325.078L289.134,325.192L289.04,325.305L288.944,325.418L288.847,325.531L288.749,325.644L288.65,325.756L288.55,325.868L288.448,325.98L288.346,326.091L288.242,326.202L288.137,326.313L288.031,326.424L287.923,326.534L287.814,326.644L287.705,326.753L287.594,326.861L287.481,326.97L287.368,327.078L287.253,327.186L287.137,327.292L287.019,327.399L286.9,327.505L286.78,327.61L286.659,327.715L286.536,327.819L286.412,327.923L286.287,328.026L286.16,328.129L286.032,328.23L285.902,328.332L285.772,328.432L285.638,328.533L285.501,328.635L285.361,328.736L285.221,328.836L285.08,328.933L284.94,329.028L284.798,329.122L284.655,329.214L284.513,329.303L284.37,329.391L284.227,329.477L284.083,329.561L283.939,329.644L283.794,329.724L283.649,329.803L283.504,329.879L283.358,329.954L283.213,330.027L283.067,330.098L282.921,330.167L282.774,330.235L282.627,330.301L282.481,330.364L282.334,330.427L282.187,330.487L282.04,330.546L281.893,330.602L281.746,330.658L281.598,330.711L281.451,330.763L281.304,330.813L281.157,330.862L281.01,330.909L280.863,330.954L280.717,330.998L280.57,331.04L280.423,331.081L280.277,331.12L280.131,331.157L279.985,331.194L279.84,331.229L279.694,331.262L279.548,331.294L279.403,331.325L279.259,331.354L279.114,331.383L278.97,331.409L278.826,331.435L278.682,331.46L278.539,331.483L278.396,331.505L278.253,331.526L278.111,331.546L277.969,331.564L277.827,331.582L277.686,331.599L277.539,331.615L277.264,331.643L276.985,331.668L276.707,331.69L276.431,331.708L276.156,331.723L275.882,331.735L275.61,331.745L275.34,331.752L275.28,331.753L275.025,331.917L274.939,331.972L274.838,332.039L274.556,332.225L274.203,332.46L273.793,332.732L273.34,333.03L273.097,333.188L272.849,333.349L272.594,333.511L272.335,333.676L272.072,333.84L271.805,334.005L271.536,334.168L271.267,334.328L271.001,334.483L270.86,334.563L270.724,334.639L270.588,334.715L270.451,334.789L270.314,334.863L270.176,334.935L270.037,335.006L269.896,335.076L269.755,335.144L269.61,335.212L269.462,335.279L269.31,335.344L269.152,335.409L268.986,335.472L268.811,335.535L268.621,335.597L268.415,335.656L268.208,335.707L268.062,335.738L267.928,335.763L267.781,335.786L267.625,335.805L267.453,335.82L267.264,335.829L267.06,335.83L266.832,335.82L266.581,335.795L266.306,335.75L266.005,335.679L265.679,335.575L265.506,335.503L265.162,335.339L265.147,335.331L264.971,335.231L264.8,335.121L264.786,335.112L264.607,334.983L264.435,334.844L264.422,334.833L264.155,334.583L263.911,334.308L263.694,334.012L263.504,333.698L263.344,333.366L263.215,333.022L263.118,332.666L263.117,332.664L263.053,332.303L263.021,331.937L263.023,331.57L263.058,331.205L263.126,330.844L263.227,330.492L263.359,330.15L263.361,330.146L263.514,329.834L263.694,329.537L263.898,329.257L263.908,329.245L264.054,329.072L264.209,328.908L264.294,328.824L264.428,328.703L264.468,328.668L264.394,328.367L264.338,327.979L264.32,327.587L264.341,327.195L264.396,326.822L264.371,326.728L264.306,326.341L264.279,325.949L264.29,325.557L264.339,325.167L264.425,324.785L264.548,324.412L264.707,324.054L264.899,323.713L265.124,323.393L265.379,323.097L265.661,322.827L265.967,322.587L266.296,322.378L266.643,322.203L267.006,322.063L267.3,321.966L267.606,321.867L267.91,321.771L268.213,321.678L268.515,321.587L268.815,321.498L269.113,321.412L269.409,321.327L269.704,321.245L269.997,321.165L270.289,321.087L270.578,321.011L270.866,320.937L271.152,320.864L271.436,320.793L271.719,320.723L271.999,320.655L272.28,320.588L272.827,320.458L273.37,320.333L273.903,320.212L274.428,320.094L274.856,319.998L275.004,319.825L275.233,319.556L275.461,319.285L275.688,319.01L275.915,318.733L276.141,318.453L276.366,318.17L276.591,317.885L276.816,317.598L277.041,317.309L277.265,317.018L277.489,316.725L277.713,316.431L277.935,316.137L278.383,315.541L278.579,315.278L278.773,315.016L278.967,314.752L279.16,314.487L279.352,314.221L279.542,313.954L279.732,313.686L279.921,313.418L280.109,313.148L280.296,312.877L280.482,312.606L280.667,312.333L280.851,312.06L281.034,311.786L281.215,311.511L281.396,311.234L281.575,310.958L281.754,310.68L281.931,310.401L282.107,310.122L282.282,309.841L282.455,309.56L282.628,309.278L282.799,308.995L282.969,308.712L283.138,308.427L283.305,308.142L283.471,307.856L283.636,307.569L283.8,307.282L283.962,306.994L284.122,306.705L284.282,306.415L284.44,306.125L284.596,305.834L284.751,305.542L284.905,305.25L285.057,304.957L285.208,304.663L285.357,304.368L285.505,304.073L285.651,303.778L285.796,303.481L285.939,303.184L286.081,302.887L286.221,302.589L286.359,302.29L286.496,301.99L286.631,301.691L286.764,301.39L286.896,301.089L287.026,300.788L287.155,300.486L287.282,300.183L287.407,299.88L287.53,299.576L287.651,299.272L287.771,298.968L287.838,298.794L287.842,298.738L287.862,298.396L287.881,298.053L287.898,297.708L287.914,297.361L287.928,297.012L287.94,296.662L287.952,296.311L287.961,295.957L287.97,295.602L287.978,295.245L287.984,294.886L287.99,294.526L287.994,294.164L287.998,293.802L288.003,293.068L288.006,292.328L288.008,291.583L288.008,290.07L288.007,287.666L288.006,286.471L288.003,285.28L287.998,284.092L287.994,283.502L287.99,282.912L287.985,282.322L287.979,281.734L287.972,281.147L287.964,280.561L287.955,279.976L287.945,279.392L287.933,278.809L287.921,278.227L287.907,277.646L287.891,277.066L287.874,276.487L287.855,275.909L287.835,275.332L287.813,274.756L287.79,274.182L287.764,273.607L287.737,273.034L287.707,272.462L287.676,271.891L287.642,271.321L287.607,270.751L287.569,270.183L287.529,269.615L287.503,269.268L287.478,269.213L287.311,268.828L287.145,268.443L286.98,268.056L286.814,267.668L286.486,266.892L286.158,266.113L285.83,265.333L285.502,264.552L285.173,263.771L284.842,262.991L284.677,262.603L284.511,262.215L284.344,261.828L284.176,261.442L284.007,261.057L283.838,260.673L283.667,260.291L283.496,259.909L283.323,259.53L283.149,259.152L282.975,258.776L282.799,258.402L282.621,258.03L282.443,257.66L282.262,257.292L282.081,256.927L281.898,256.564L281.712,256.201L281.62,256.025L281.527,255.847L281.433,255.67L281.339,255.493L281.244,255.317L281.149,255.142L281.054,254.967L280.958,254.794L280.861,254.621L280.764,254.449L280.667,254.278L280.569,254.108L280.471,253.938L280.373,253.77L280.273,253.602L280.174,253.436L280.074,253.27L279.973,253.105L279.872,252.942L279.77,252.779L279.668,252.617L279.565,252.456L279.462,252.296L279.358,252.138L279.254,251.98L279.149,251.824L279.044,251.668L278.939,251.514L278.832,251.36L278.725,251.208L278.618,251.057L278.51,250.907L278.401,250.758L278.292,250.611L278.183,250.464L278.072,250.319L277.962,250.175L277.85,250.032L277.738,249.89L277.626,249.75L277.513,249.611L277.399,249.473L277.285,249.337L277.17,249.201L277.113,249.135L276.96,249.064L276.796,248.991L276.633,248.919L276.47,248.848L276.307,248.779L276.143,248.712L275.98,248.646L275.816,248.582L275.653,248.52L275.49,248.459L275.327,248.4L275.164,248.343L275,248.287L274.838,248.233L274.675,248.181L274.513,248.131L274.351,248.082L274.176,248.031L273.822,247.929L273.456,247.822L273.091,247.714L272.727,247.606L272.363,247.496L272,247.385L271.638,247.274L271.277,247.161L270.917,247.048L270.558,246.935L270.199,246.82L269.84,246.705L269.129,246.475L268.42,246.243L267.714,246.009L267.012,245.775L266.314,245.542L265.619,245.308L264.241,244.844L263.559,244.615L262.85,244.378L262.736,244.338L262.606,244.289L262.48,244.24L262.349,244.186L262.212,244.128L262.068,244.065L261.917,243.996L261.757,243.921L261.591,243.84L261.418,243.752L261.238,243.656L261.061,243.558L260.956,243.497L260.859,243.44L260.76,243.379L260.658,243.316L260.554,243.248L260.448,243.177L260.339,243.102L260.228,243.022L260.113,242.936L259.995,242.843L259.873,242.743L259.747,242.633L259.618,242.514L259.483,242.382L259.343,242.234L259.197,242.068L259.047,241.879L258.894,241.666L258.756,241.449L258.663,241.286L258.588,241.141L258.512,240.983L258.44,240.817L258.372,240.639L258.308,240.445L258.251,240.243L258.201,240.029L258.161,239.799L258.131,239.558L258.115,239.312L258.113,239.058L258.127,238.795L258.157,238.533L258.203,238.27L258.266,238.006L258.345,237.748L258.438,237.502L258.543,237.266L258.661,237.039L258.788,236.827L258.92,236.63L258.96,236.576L258.899,236.545L258.468,236.323L258.043,236.104L257.623,235.886L257.212,235.671L256.809,235.458L256.415,235.248L256.032,235.043L255.66,234.841L255.301,234.643L254.955,234.45L254.622,234.261L254.308,234.079L254.15,233.986L253.999,233.896L253.852,233.808L253.708,233.72L253.566,233.632L253.428,233.545L253.292,233.457L253.158,233.368L253.026,233.279L252.893,233.187L252.76,233.091L252.625,232.99L252.484,232.88L252.335,232.758L252.175,232.617L252.018,232.468L251.903,232.349L251.798,232.234L251.683,232.1L251.558,231.94L251.425,231.753L251.278,231.519L251.123,231.227L251.051,231.057L250.972,230.86L250.904,230.659L250.9,230.645L250.832,230.397L250.78,230.144L250.778,230.131L250.737,229.826L250.719,229.519L250.719,229.507L250.728,229.145L250.769,228.785L250.771,228.774L250.855,228.38L250.978,227.996L250.982,227.985L251.14,227.619L251.335,227.27L251.341,227.26L251.562,226.942L251.812,226.647L251.821,226.638L252.06,226.403L252.317,226.19L252.327,226.182L252.559,226.019L252.802,225.872L252.814,225.866L253.019,225.76L253.23,225.666L253.245,225.66L253.6,225.534L253.764,225.485L254.058,225.421L254.309,225.383L254.525,225.362L254.714,225.353L254.881,225.351L255.032,225.354L255.167,225.361L255.294,225.37L255.429,225.383L255.624,225.408L255.824,225.439L256.014,225.474L256.198,225.511L256.382,225.552L256.567,225.596L256.755,225.643L256.948,225.694L257.146,225.749L257.352,225.807L257.565,225.869L257.787,225.936L258.018,226.006L258.249,226.079L258.782,226.246L259.291,226.402L259.785,226.552L260.265,226.694L260.73,226.83L261.181,226.959L261.618,227.082L262.041,227.198L262.45,227.308L262.846,227.411L263.229,227.509L263.599,227.602L263.956,227.688L264.3,227.77L264.632,227.846L264.952,227.917L265.259,227.983L265.555,228.044L265.839,228.101L266.111,228.153L266.372,228.201L266.623,228.246L266.862,228.286L267.091,228.322L267.309,228.355L267.517,228.385L267.715,228.411L267.904,228.435L268.083,228.456L268.252,228.474L268.413,228.489L268.565,228.502L268.708,228.513L268.844,228.522L268.972,228.53L269.092,228.536L269.205,228.54L269.312,228.543L269.413,228.545L269.508,228.546L269.598,228.546L269.684,228.545L269.765,228.543L269.838,228.542L269.998,228.536L270.149,228.529L270.31,228.521L270.481,228.514L270.588,228.51L270.703,228.507L270.83,228.506L270.972,228.508L271.132,228.513Z" style="fill:rgb(217,217,217);"/>
                <g transform="matrix(0.889548,9.75782e-20,-3.21483e-19,1,-399.792,-92.1434)">
                    <text x="792.792px" y="382.034px" style="font-family:'ChalkboardSE-Bold', 'Chalkboard SE', cursive;font-weight:700;font-size:24px;">C<tspan x="806.204px 816.514px " y="382.034px 382.034px ">tl</tspan></text>
                </g>
            </g>
            <path d="M269.847,231.194C264.483,232.837 257.686,242.225 257.253,243.047C252.467,252.134 250.548,265.845 251.747,284.587C254.966,314.428 262.85,331.082 276.234,332.191C289.208,332.968 296.44,316.662 298.536,285.073C298.568,247.84 288.278,231.786 269.847,231.194C332.273,231.298 258.945,230.896 323.092,232.007C336.036,239.129 343.124,257.125 345.253,286.845C344.398,319.907 336.104,324.782 333.066,327.599C327.151,333.082 331.158,331.9 311.493,332.386C295.068,332.793 305.918,332.9 276.234,332.191L278.069,332.184C290.143,331.434 296.686,314.934 298.536,285.073C298.653,248.825 288.214,232.52 269.847,231.194" style="fill:none;stroke:black;stroke-width:4.47px;"/>
        </g>
        <g id="Store" transform="matrix(1.13434,-0.00073321,0.00073321,1.13434,452.855,127.934)">
            <g transform="matrix(0.722564,-0.0116247,0.0136636,0.849298,-252.931,0.538228)">
                <path d="M611.327,115.299C668.018,115.299 717.867,129.601 730.16,156.012C744.531,186.889 681.966,213.472 607.526,211.317C550.858,209.677 508.61,197.214 508.61,168.082C508.61,149.16 514.278,135.771 543.424,126.453C559.15,121.425 591.459,115.299 611.327,115.299Z" style="fill:rgb(177,235,235);stroke:black;stroke-width:5.03px;stroke-dasharray:10.06,10.06,0,0;"/>
            </g>
            <g transform="matrix(0.9,0,-1.0842e-19,1,41.6474,8.36633)">
                <text x="117.297px" y="132.587px" style="font-family:'ChalkboardSE-Bold', 'Chalkboard SE', cursive;font-weight:700;font-size:21.158px;">N<tspan x="130.593px 141.575px 161.886px 169.595px 181.442px 192.424px 204.318px " y="132.587px 132.587px 132.587px 132.587px 132.587px 132.587px 132.587px ">EW STAT</tspan>E</text>
            </g>
        </g>
        <g transform="matrix(0.9,9.75782e-20,-3.25261e-19,1,-74.1272,-9.1661)">
            <text x="792.792px" y="382.034px" style="font-family:'ChalkboardSE-Bold', 'Chalkboard SE', cursive;font-weight:700;font-size:24px;">S<tspan x="806.231px 819.219px 835.972px 850.286px " y="382.034px 382.034px 382.034px 382.034px ">TORE</tspan></text>
        </g>
        <g transform="matrix(1,1.0842e-19,-3.25261e-19,1,-766.436,-103.216)">
            <g transform="matrix(0.9,0,0,1,81.4547,0)">
                <text x="814.547px" y="382.034px" style="font-family:'ChalkboardSE-Bold', 'Chalkboard SE', cursive;font-weight:700;font-size:24px;">D<tspan x="829.153px 839.118px 852.556px 865.783px " y="382.034px 382.034px 382.034px 382.034px ">ISPA</tspan>TC<tspan x="907.001px " y="382.034px ">H</tspan></text>
            </g>
            <g transform="matrix(0.9,0,0,1,80.4062,0)">
                <text x="804.062px" y="406.334px" style="font-family:'ChalkboardSE-Bold', 'Chalkboard SE', cursive;font-weight:700;font-size:20px;">{<tspan x="810.819px 820.117px 830.123px 838.316px 846.509px 856.471px 866.123px 874.714px 882.001px 890.062px 898.653px 908.813px 917.404px " y="406.334px 406.334px 406.334px 406.334px 406.334px 406.334px 406.334px 406.334px 406.334px 406.334px 406.334px 406.334px 406.334px ">current state</tspan>}</text>
            </g>
            <g transform="matrix(0.9,0,0,1,83.3411,0)">
                <text x="833.411px" y="430.634px" style="font-family:'ChalkboardSE-Bold', 'Chalkboard SE', cursive;font-weight:700;font-size:20px;">{<tspan x="840.168px 850.328px 859.627px 868.218px 872.654px 881.842px 891.494px " y="430.634px 430.634px 430.634px 430.634px 430.634px 430.634px 430.634px ">action}</tspan></text>
            </g>
        </g>
        <g transform="matrix(1,0,0,1,-26.4672,-3.42466)">
            <g transform="matrix(1,0,0,1,-1.14415,3.89516)">
                <path d="M282.087,277.07L289.153,277.221L297.799,277.455L300.649,278.588L301.855,281.151L301.855,281.171L300.689,283.752L297.857,284.929L297.847,284.929L289.215,285.296L282.153,285.556L276.571,285.693L260.552,285.751L239.704,285.753L200.481,285.687L200.002,285.686L199.992,285.686L197.354,284.593L196.236,281.987L196.236,281.967L197.313,279.344L199.934,278.211L199.944,278.21L200.424,278.202L239.641,277.529L260.486,277.209L276.504,277.02L282.087,277.07Z"/>
            </g>
            <g transform="matrix(1,0,0,1,118.856,3.89516)">
                <path d="M272.187,277.326L275.981,277.525L280.627,277.817L283.47,279.017L284.661,281.537L284.661,281.557L283.479,284.081L280.64,285.291L280.63,285.292L275.995,285.6L272.202,285.813L269.205,285.912L260.605,285.862L249.411,285.722L228.353,285.39L228.095,285.386L228.085,285.386L225.454,284.264L224.351,281.665L224.351,281.645L225.444,279.042L228.072,277.911L228.082,277.911L228.339,277.906L249.397,277.498L260.589,277.319L269.19,277.238L272.187,277.326Z"/>
            </g>
            <g transform="matrix(1,0,0,1,118.856,3.89516)">
                <path d="M272.187,277.326L275.981,277.525L280.627,277.817L283.47,279.017L284.661,281.537L284.661,281.557L283.479,284.081L280.64,285.291L280.63,285.292L275.995,285.6L272.202,285.813L269.205,285.912L260.605,285.862L249.411,285.722L228.353,285.39L228.095,285.386L228.085,285.386L225.454,284.264L224.351,281.665L224.351,281.645L225.444,279.042L228.072,277.911L228.082,277.911L228.339,277.906L249.397,277.498L260.589,277.319L269.19,277.238L272.187,277.326Z"/>
            </g>
            <g transform="matrix(1,0,0,1,224.27,3.89516)">
                <path d="M274.821,277.326L278.84,277.525L283.763,277.817L286.606,279.011L287.797,281.538L287.797,281.558L286.615,284.088L283.776,285.291L283.766,285.292L278.854,285.6L274.835,285.813L271.659,285.912L262.545,285.862L250.683,285.722L228.368,285.39L228.095,285.386L228.085,285.386L225.453,284.266L224.351,281.665L224.351,281.645L225.445,279.04L228.072,277.911L228.082,277.911L228.355,277.906L250.669,277.498L262.53,277.319L271.644,277.238L274.821,277.326Z"/>
            </g>
            <g transform="matrix(1,0,0,1,47,2.59097)">
                <path d="M547.242,264.706L553.352,272.973L558.737,280.191L558.781,280.248L559.107,280.765L559.341,281.329L559.476,281.925L559.507,282.535L559.435,283.141L559.261,283.725L558.99,284.271L558.63,284.763L558.193,285.187L557.81,285.448L557.692,285.533L557.142,285.798L556.553,285.966L555.943,286.033L549.753,286.153L539.957,286.415L530.579,286.671L523.233,286.817L520.762,286.774L517.275,286.657L512.28,286.455L512.002,286.443L511.992,286.443L509.294,285.256L508.159,282.643L508.158,282.623L509.271,280.001L511.958,278.79L511.968,278.79L512.246,278.775L517.239,278.53L520.725,278.381L523.195,278.317L530.543,278.398L539.922,278.571L548.507,278.725L547.5,277.43L541.159,269.351L541.153,269.344L540.462,266.617L541.967,264.113L541.983,264.101L544.797,263.315L547.242,264.706Z"/>
                <g transform="matrix(1,0,0,1,-0.84479,0.146966)">
                    <path d="M546.085,298.182C552.329,292.331 555.31,287.322 556.057,282.889" style="fill:none;stroke:black;stroke-width:8.5px;"/>
                </g>
            </g>
        </g>
    </g>
</svg>
