<?xml version="1.0" encoding="UTF-8" standalone="no"?>
<!DOCTYPE svg PUBLIC "-//W3C//DTD SVG 1.1//EN" "http://www.w3.org/Graphics/SVG/1.1/DTD/svg11.dtd">
<svg width="100%" height="100%" viewBox="0 0 716 146" version="1.1" xmlns="http://www.w3.org/2000/svg" xmlns:xlink="http://www.w3.org/1999/xlink" xml:space="preserve" style="fill-rule:evenodd;clip-rule:evenodd;stroke-linecap:round;stroke-linejoin:round;stroke-miterlimit:1.5;">
    <g transform="matrix(1,0,0,1,-46.1379,-228.944)">
        <path d="M269.847,231.194C264.483,232.837 260.776,235.993 258.622,240.693C258.252,241.5 257.686,242.225 257.253,243.047C252.467,252.134 250.548,265.845 251.747,284.587C254.966,314.428 262.85,331.082 276.234,332.191C289.208,332.968 296.44,316.662 298.536,285.073C298.568,247.84 288.278,231.786 269.847,231.194C332.273,231.298 394.966,231.559 459.113,232.67C472.057,239.791 477.715,258.758 479.073,284.713C477.385,304.463 473.933,319.31 467.338,325.423C459.26,330.136 439.846,331.607 416.733,331.832C374.585,333.148 326.745,332.926 276.234,332.191L278.069,332.184C290.143,331.434 296.686,314.934 298.536,285.073C298.653,248.825 288.214,232.52 269.847,231.194" style="fill:rgb(242,242,242);"/>
        <clipPath id="_clip1">
            <path d="M269.847,231.194C264.483,232.837 260.776,235.993 258.622,240.693C258.252,241.5 257.686,242.225 257.253,243.047C252.467,252.134 250.548,265.845 251.747,284.587C254.966,314.428 262.85,331.082 276.234,332.191C289.208,332.968 296.44,316.662 298.536,285.073C298.568,247.84 288.278,231.786 269.847,231.194C332.273,231.298 394.966,231.559 459.113,232.67C472.057,239.791 477.715,258.758 479.073,284.713C477.385,304.463 473.933,319.31 467.338,325.423C459.26,330.136 439.846,331.607 416.733,331.832C374.585,333.148 326.745,332.926 276.234,332.191L278.069,332.184C290.143,331.434 296.686,314.934 298.536,285.073C298.653,248.825 288.214,232.52 269.847,231.194"/>
        </clipPath>
        <g clip-path="url(#_clip1)">
            <path d="M271.137,228.514L271.32,228.526L271.525,228.547L271.752,228.58L271.999,228.628L272.264,228.695L272.541,228.783L272.772,228.873L273.073,229.004L273.321,229.116L273.569,229.231L273.816,229.349L274.062,229.469L274.307,229.593L274.551,229.719L274.794,229.847L275.036,229.979L275.276,230.113L275.516,230.249L275.755,230.388L275.993,230.529L276.23,230.673L276.466,230.819L276.701,230.968L276.936,231.119L277.169,231.272L277.401,231.427L277.633,231.585L277.863,231.745L278.093,231.907L278.321,232.071L278.549,232.237L278.776,232.405L279.001,232.575L279.227,232.747L279.451,232.921L279.674,233.097L279.896,233.275L280.117,233.455L280.338,233.636L280.557,233.82L280.775,234.005L280.993,234.191L281.21,234.38L281.426,234.57L281.641,234.762L281.855,234.956L282.068,235.151L282.28,235.347L282.491,235.545L282.701,235.745L282.911,235.946L283.119,236.149L283.233,236.261L283.288,236.289L283.526,236.415L283.764,236.543L284.002,236.675L284.24,236.809L284.478,236.948L284.716,237.089L284.954,237.233L285.192,237.381L285.43,237.532L285.669,237.686L285.917,237.849L286.04,237.933L286.17,238.025L286.297,238.119L286.421,238.214L286.543,238.311L286.661,238.409L286.778,238.508L286.891,238.608L287.002,238.71L287.111,238.812L287.217,238.916L287.32,239.02L287.422,239.125L287.522,239.231L287.619,239.337L287.715,239.444L287.809,239.552L287.9,239.66L287.99,239.769L288.079,239.879L288.165,239.989L288.25,240.099L288.333,240.21L288.415,240.322L288.495,240.434L288.574,240.546L288.652,240.658L288.728,240.771L288.803,240.885L288.877,240.999L288.949,241.113L289.02,241.227L289.09,241.342L289.16,241.457L289.227,241.572L289.294,241.688L289.36,241.804L289.428,241.926L289.552,242.153L289.675,242.387L289.795,242.621L289.911,242.857L290.025,243.093L290.135,243.329L290.242,243.566L290.347,243.804L290.449,244.041L290.548,244.279L290.645,244.516L290.739,244.754L290.831,244.991L290.92,245.227L291.008,245.463L291.093,245.699L291.176,245.933L291.213,246.039L291.251,246.096L291.409,246.336L291.566,246.577L291.722,246.818L291.877,247.059L292.03,247.3L292.182,247.542L292.332,247.783L292.481,248.025L292.629,248.267L292.775,248.509L292.92,248.75L293.063,248.992L293.205,249.234L293.345,249.476L293.485,249.717L293.622,249.959L293.758,250.2L293.893,250.442L294.026,250.683L294.157,250.924L294.288,251.165L294.416,251.405L294.543,251.645L294.669,251.886L294.792,252.125L294.915,252.365L295.036,252.604L295.155,252.842L295.272,253.081L295.388,253.319L295.502,253.556L295.615,253.793L295.726,254.03L295.835,254.266L295.943,254.501L296.049,254.737L296.153,254.971L296.255,255.205L296.356,255.439L296.489,255.751L296.619,256.063L296.748,256.376L296.876,256.69L297.001,257.004L297.125,257.319L297.247,257.634L297.368,257.949L297.487,258.265L297.604,258.582L297.72,258.899L297.834,259.216L297.947,259.533L298.058,259.851L298.168,260.169L298.276,260.488L298.383,260.807L298.488,261.126L298.592,261.445L298.695,261.765L298.796,262.084L298.896,262.405L298.995,262.725L299.092,263.045L299.188,263.366L299.283,263.686L299.377,264.007L299.469,264.328L299.56,264.649L299.65,264.971L299.739,265.292L299.827,265.613L299.914,265.934L300,266.256L300.084,266.577L300.168,266.898L300.25,267.219L300.332,267.541L300.413,267.862L300.492,268.183L300.571,268.504L300.649,268.825L300.726,269.146L300.802,269.469L300.952,270.107L301.098,270.747L301.242,271.386L301.382,272.024L301.52,272.661L301.655,273.297L301.788,273.931L301.919,274.564L302.048,275.195L302.176,275.833L302.208,275.998L302.24,276.173L302.27,276.347L302.299,276.522L302.325,276.696L302.35,276.869L302.373,277.043L302.395,277.217L302.415,277.391L302.433,277.564L302.45,277.737L302.465,277.91L302.478,278.083L302.491,278.256L302.502,278.429L302.511,278.601L302.519,278.773L302.526,278.945L302.532,279.117L302.536,279.289L302.54,279.46L302.542,279.632L302.543,279.803L302.543,279.973L302.541,280.144L302.539,280.314L302.536,280.485L302.531,280.654L302.526,280.824L302.52,280.994L302.513,281.163L302.505,281.337L302.487,281.669L302.465,282.006L302.441,282.342L302.413,282.676L302.383,283.01L302.351,283.343L302.316,283.674L302.279,284.005L302.241,284.334L302.2,284.662L302.158,284.989L302.115,285.315L302.071,285.639L302.025,285.962L301.978,286.283L301.931,286.606L301.835,287.238L301.737,287.867L301.543,289.1L301.449,289.704L301.358,290.302L301.314,290.593L301.271,290.884L301.23,291.171L301.191,291.456L301.152,291.738L301.147,291.777L301.142,291.879L301.124,292.183L301.105,292.487L301.085,292.791L301.064,293.095L301.042,293.398L301.02,293.702L300.996,294.005L300.972,294.309L300.946,294.613L300.92,294.916L300.893,295.219L300.865,295.522L300.846,295.721L300.844,295.794L300.838,295.942L300.829,296.087L300.817,296.23L300.804,296.372L300.789,296.513L300.771,296.653L300.752,296.79L300.731,296.926L300.712,297.035L300.712,297.036L300.679,297.339L300.645,297.641L300.61,297.943L300.574,298.246L300.538,298.548L300.5,298.85L300.462,299.152L300.422,299.453L300.382,299.755L300.341,300.056L300.3,300.357L300.258,300.654L300.147,301.436L300.034,302.226L299.975,302.63L299.915,303.038L299.851,303.449L299.785,303.864L299.717,304.279L299.68,304.494L299.643,304.705L299.605,304.918L299.565,305.131L299.525,305.345L299.483,305.56L299.44,305.776L299.395,305.992L299.349,306.209L299.302,306.427L299.253,306.645L299.202,306.864L299.149,307.084L299.095,307.304L299.039,307.525L298.981,307.746L298.921,307.968L298.859,308.19L298.794,308.413L298.728,308.636L298.659,308.86L298.588,309.084L298.514,309.308L298.438,309.532L298.359,309.757L298.278,309.982L298.193,310.207L298.106,310.432L298.016,310.657L297.923,310.882L297.827,311.107L297.728,311.332L297.626,311.557L297.52,311.781L297.412,312.005L297.299,312.229L297.184,312.453L297.064,312.676L296.942,312.898L296.815,313.12L296.685,313.341L296.551,313.562L296.413,313.781L296.272,314L296.131,314.211L296.052,314.326L295.986,314.421L295.831,314.644L295.688,314.854L295.547,315.064L295.408,315.274L295.27,315.485L295.135,315.696L295.001,315.908L294.869,316.12L294.738,316.333L294.608,316.546L294.479,316.76L294.352,316.974L294.225,317.189L294.099,317.404L293.973,317.621L293.85,317.835L293.599,318.274L293.351,318.712L292.851,319.596L292.597,320.043L292.341,320.488L292.209,320.716L292.077,320.942L291.943,321.168L291.808,321.396L291.671,321.623L291.531,321.851L291.389,322.08L291.245,322.309L291.099,322.538L290.95,322.767L290.798,322.997L290.643,323.227L290.485,323.457L290.324,323.687L290.159,323.916L289.99,324.146L289.818,324.375L289.642,324.604L289.466,324.827L289.371,324.946L289.278,325.06L289.185,325.174L289.09,325.287L288.994,325.4L288.897,325.513L288.799,325.626L288.7,325.738L288.6,325.851L288.498,325.963L288.395,326.074L288.291,326.186L288.187,326.296L288.08,326.407L287.973,326.517L287.864,326.627L287.754,326.737L287.643,326.845L287.53,326.954L287.416,327.062L287.301,327.17L287.185,327.277L287.067,327.383L286.948,327.489L286.828,327.595L286.706,327.7L286.583,327.805L286.459,327.908L286.334,328.012L286.207,328.114L286.078,328.216L285.949,328.318L285.818,328.418L285.684,328.52L285.546,328.622L285.406,328.723L285.266,328.823L285.124,328.921L284.983,329.016L284.841,329.11L284.698,329.202L284.555,329.292L284.412,329.381L284.268,329.467L284.123,329.551L283.979,329.634L283.833,329.715L283.688,329.793L283.542,329.87L283.396,329.946L283.249,330.019L283.103,330.09L282.956,330.16L282.809,330.228L282.662,330.294L282.515,330.358L282.367,330.42L282.219,330.481L282.072,330.54L281.924,330.597L281.776,330.652L281.628,330.706L281.48,330.758L281.332,330.809L281.185,330.857L281.037,330.905L280.889,330.95L280.742,330.994L280.594,331.037L280.447,331.078L280.3,331.117L280.153,331.155L280.006,331.191L279.86,331.226L279.714,331.26L279.568,331.292L279.422,331.323L279.276,331.353L279.131,331.381L278.986,331.408L278.842,331.434L278.697,331.458L278.553,331.482L278.41,331.504L278.266,331.525L278.123,331.545L277.981,331.564L277.839,331.581L277.697,331.598L277.549,331.615L277.273,331.643L276.993,331.668L276.714,331.689L276.436,331.708L276.161,331.723L275.886,331.735L275.613,331.745L275.342,331.752L275.305,331.753L275.068,331.905L274.982,331.961L274.881,332.027L274.599,332.214L274.247,332.448L273.836,332.72L273.384,333.018L273.14,333.177L272.891,333.337L272.637,333.5L272.377,333.665L272.114,333.83L271.847,333.994L271.578,334.157L271.308,334.318L271.041,334.473L270.9,334.553L270.764,334.63L270.627,334.706L270.49,334.78L270.353,334.854L270.214,334.926L270.075,334.998L269.933,335.068L269.791,335.137L269.645,335.205L269.496,335.272L269.343,335.338L269.183,335.403L269.016,335.467L268.839,335.531L268.647,335.593L268.438,335.653L268.229,335.705L268.08,335.737L267.943,335.762L267.794,335.785L267.635,335.805L267.459,335.82L267.266,335.829L267.058,335.83L266.826,335.82L266.569,335.795L266.289,335.749L265.981,335.676L265.648,335.57L265.472,335.496L265.125,335.331L265.11,335.323L264.929,335.22L264.755,335.108L264.74,335.099L264.56,334.968L264.386,334.828L264.373,334.817L264.103,334.564L263.858,334.287L263.64,333.989L263.449,333.671L263.289,333.338L263.161,332.991L263.065,332.634L263.065,332.631L263.004,332.279L262.974,331.923L262.977,331.566L263.012,331.211L263.078,330.86L263.175,330.516L263.302,330.182L263.304,330.179L263.459,329.861L263.641,329.558L263.849,329.273L263.859,329.261L264.004,329.09L264.158,328.927L264.244,328.841L264.38,328.718L264.426,328.679L264.349,328.367L264.292,327.979L264.274,327.587L264.294,327.195L264.351,326.822L264.328,326.741L264.261,326.354L264.233,325.963L264.242,325.57L264.291,325.181L264.377,324.798L264.5,324.425L264.659,324.066L264.853,323.725L265.079,323.404L265.335,323.107L265.62,322.836L265.929,322.595L266.261,322.385L266.612,322.209L266.978,322.068L267.273,321.97L267.579,321.871L267.884,321.775L268.188,321.681L268.489,321.59L268.79,321.501L269.088,321.415L269.385,321.331L269.681,321.248L269.974,321.168L270.266,321.09L270.556,321.014L270.844,320.939L271.13,320.866L271.415,320.795L271.697,320.726L271.978,320.657L272.259,320.59L272.807,320.461L273.349,320.335L273.883,320.214L274.408,320.096L274.815,320.005L274.954,319.843L275.183,319.574L275.41,319.302L275.638,319.028L275.864,318.75L276.09,318.47L276.316,318.188L276.541,317.903L276.766,317.616L276.99,317.327L277.214,317.036L277.438,316.743L277.662,316.449L277.885,316.155L278.333,315.558L278.529,315.296L278.723,315.033L278.917,314.77L279.109,314.505L279.301,314.239L279.492,313.972L279.682,313.705L279.871,313.436L280.059,313.166L280.245,312.895L280.431,312.624L280.616,312.351L280.8,312.078L280.983,311.804L281.165,311.529L281.345,311.252L281.525,310.975L281.703,310.698L281.88,310.419L282.056,310.139L282.231,309.859L282.405,309.578L282.577,309.296L282.749,309.013L282.919,308.729L283.087,308.445L283.255,308.16L283.421,307.874L283.586,307.587L283.749,307.299L283.911,307.011L284.072,306.722L284.232,306.433L284.39,306.142L284.546,305.851L284.701,305.559L284.855,305.267L285.007,304.974L285.158,304.68L285.308,304.385L285.455,304.09L285.602,303.794L285.746,303.498L285.889,303.201L286.031,302.903L286.171,302.605L286.31,302.306L286.446,302.007L286.581,301.707L286.715,301.406L286.847,301.105L286.977,300.803L287.106,300.501L287.232,300.198L287.357,299.895L287.481,299.591L287.602,299.287L287.722,298.982L287.791,298.804L287.795,298.741L287.816,298.399L287.835,298.055L287.852,297.71L287.867,297.363L287.881,297.014L287.894,296.664L287.905,296.312L287.915,295.958L287.924,295.603L287.931,295.246L287.938,294.887L287.943,294.527L287.948,294.165L287.951,293.803L287.957,293.068L287.96,292.328L287.961,291.583L287.961,290.07L287.961,287.666L287.959,286.471L287.956,285.28L287.951,284.092L287.948,283.502L287.943,282.911L287.938,282.322L287.932,281.733L287.925,281.146L287.917,280.56L287.908,279.975L287.898,279.391L287.887,278.808L287.874,278.226L287.86,277.645L287.845,277.065L287.828,276.486L287.809,275.908L287.789,275.331L287.767,274.755L287.743,274.179L287.718,273.605L287.69,273.032L287.661,272.46L287.629,271.888L287.596,271.318L287.56,270.748L287.522,270.18L287.482,269.612L287.456,269.258L287.429,269.197L287.262,268.813L287.096,268.427L286.93,268.041L286.765,267.652L286.436,266.877L286.108,266.098L285.781,265.317L285.453,264.536L285.124,263.756L284.793,262.975L284.628,262.588L284.461,262.2L284.294,261.813L284.126,261.426L283.958,261.041L283.788,260.657L283.618,260.275L283.446,259.893L283.274,259.514L283.1,259.136L282.925,258.76L282.749,258.385L282.572,258.013L282.393,257.643L282.213,257.275L282.031,256.91L281.848,256.547L281.663,256.187L281.475,255.827L281.383,255.652L281.289,255.476L281.194,255.3L281.099,255.124L281.003,254.95L280.908,254.776L280.811,254.603L280.714,254.431L280.617,254.26L280.519,254.09L280.421,253.921L280.322,253.752L280.223,253.585L280.123,253.418L280.023,253.252L279.922,253.087L279.821,252.924L279.72,252.761L279.618,252.599L279.515,252.438L279.412,252.279L279.308,252.12L279.204,251.962L279.099,251.806L278.994,251.65L278.888,251.496L278.782,251.342L278.675,251.19L278.567,251.039L278.459,250.889L278.351,250.741L278.242,250.593L278.132,250.446L278.022,250.301L277.911,250.157L277.8,250.015L277.688,249.873L277.575,249.733L277.462,249.593L277.349,249.456L277.235,249.319L277.12,249.184L277.068,249.123L276.925,249.057L276.762,248.984L276.599,248.912L276.436,248.842L276.274,248.773L276.111,248.706L275.948,248.641L275.785,248.577L275.622,248.515L275.46,248.454L275.297,248.395L275.135,248.338L274.972,248.283L274.811,248.229L274.649,248.177L274.487,248.127L274.325,248.078L274.152,248.028L273.797,247.925L273.431,247.819L273.066,247.711L272.701,247.602L272.337,247.492L271.974,247.381L271.612,247.27L271.251,247.157L270.891,247.044L270.531,246.931L270.172,246.816L269.813,246.701L269.102,246.471L268.392,246.238L267.686,246.005L266.984,245.771L266.286,245.537L265.591,245.304L264.213,244.84L263.531,244.611L262.821,244.373L262.706,244.333L262.575,244.284L262.448,244.234L262.316,244.18L262.178,244.121L262.033,244.058L261.881,243.988L261.721,243.913L261.554,243.831L261.38,243.743L261.199,243.647L261.021,243.548L260.916,243.487L260.818,243.429L260.717,243.368L260.615,243.304L260.511,243.237L260.404,243.165L260.294,243.089L260.182,243.008L260.067,242.922L259.949,242.829L259.826,242.729L259.7,242.619L259.568,242.498L259.433,242.365L259.293,242.217L259.147,242.05L258.997,241.862L258.843,241.648L258.706,241.432L258.613,241.269L258.537,241.123L258.463,240.969L258.392,240.803L258.323,240.625L258.259,240.432L258.203,240.231L258.154,240.019L258.114,239.793L258.085,239.556L258.069,239.31L258.067,239.058L258.08,238.801L258.11,238.539L258.156,238.276L258.218,238.018L258.296,237.763L258.389,237.516L258.494,237.281L258.611,237.056L258.736,236.846L258.868,236.649L258.928,236.57L258.861,236.536L258.43,236.315L258.004,236.095L257.585,235.877L257.173,235.662L256.77,235.449L256.376,235.239L255.993,235.033L255.621,234.831L255.262,234.633L254.915,234.44L254.582,234.251L254.267,234.069L254.109,233.976L253.958,233.886L253.81,233.797L253.666,233.709L253.524,233.621L253.385,233.533L253.249,233.445L253.115,233.357L252.981,233.267L252.849,233.174L252.715,233.078L252.578,232.976L252.437,232.866L252.288,232.743L252.126,232.601L251.968,232.45L251.853,232.332L251.747,232.217L251.633,232.083L251.509,231.925L251.374,231.734L251.227,231.5L251.074,231.211L251.001,231.04L250.924,230.847L250.857,230.649L250.853,230.635L250.785,230.389L250.733,230.138L250.731,230.125L250.69,229.82L250.672,229.513L250.672,229.501L250.682,229.145L250.722,228.792L250.724,228.781L250.807,228.393L250.927,228.015L250.931,228.004L251.09,227.636L251.286,227.285L251.292,227.276L251.512,226.959L251.762,226.664L251.77,226.656L252.011,226.419L252.271,226.203L252.282,226.195L252.517,226.03L252.763,225.882L252.775,225.875L252.983,225.767L253.197,225.672L253.211,225.666L253.575,225.537L253.742,225.487L254.041,225.422L254.298,225.384L254.519,225.362L254.711,225.353L254.882,225.351L255.036,225.354L255.173,225.361L255.302,225.371L255.439,225.384L255.637,225.409L255.84,225.44L256.031,225.475L256.217,225.513L256.402,225.554L256.588,225.599L256.777,225.646L256.971,225.697L257.17,225.752L257.377,225.81L257.59,225.873L257.813,225.939L258.044,226.01L258.275,226.083L258.808,226.25L259.317,226.406L259.811,226.556L260.29,226.698L260.755,226.834L261.205,226.962L261.642,227.085L262.064,227.201L262.473,227.311L262.869,227.414L263.251,227.512L263.62,227.604L263.977,227.691L264.321,227.772L264.652,227.848L264.971,227.919L265.278,227.985L265.573,228.046L265.856,228.103L266.128,228.155L266.388,228.203L266.638,228.247L266.877,228.287L267.105,228.323L267.322,228.356L267.53,228.386L267.727,228.412L267.914,228.436L268.093,228.456L268.261,228.474L268.421,228.489L268.572,228.503L268.715,228.514L268.85,228.523L268.977,228.53L269.096,228.536L269.209,228.54L269.314,228.543L269.414,228.545L269.508,228.546L269.597,228.546L269.682,228.545L269.763,228.544L269.835,228.542L269.994,228.536L270.145,228.529L270.306,228.522L270.478,228.514L270.586,228.51L270.701,228.507L270.83,228.506L270.974,228.508L271.137,228.514Z" style="fill:rgb(217,217,217);"/>
        </g>
        <path d="M269.847,231.194C264.483,232.837 260.776,235.993 258.622,240.693C258.252,241.5 257.686,242.225 257.253,243.047C252.467,252.134 250.548,265.845 251.747,284.587C254.966,314.428 262.85,331.082 276.234,332.191C289.208,332.968 296.44,316.662 298.536,285.073C298.568,247.84 288.278,231.786 269.847,231.194C332.273,231.298 394.966,231.559 459.113,232.67C472.057,239.791 477.715,258.758 479.073,284.713C477.385,304.463 473.933,319.31 467.338,325.423C459.26,330.136 439.846,331.607 416.733,331.832C374.585,333.148 326.745,332.926 276.234,332.191L278.069,332.184C290.143,331.434 296.686,314.934 298.536,285.073C298.653,248.825 288.214,232.52 269.847,231.194" style="fill:none;stroke:black;stroke-width:4.5px;"/>
        <g id="Store" transform="matrix(1.13434,-0.00073321,0.00073321,1.13434,443.855,127.934)">
            <g transform="matrix(0.722564,-0.0116247,0.0136636,0.849298,-252.931,0.538228)">
                <path d="M611.327,115.299C668.018,115.299 717.867,129.601 730.16,156.012C744.531,186.889 681.966,213.472 607.526,211.317C550.858,209.677 508.61,197.214 508.61,168.082C508.61,149.16 514.278,135.771 543.424,126.453C559.15,121.425 591.459,115.299 611.327,115.299Z" style="fill:rgb(177,235,235);stroke:black;stroke-width:5.03px;stroke-dasharray:10.06,10.06,0,0;"/>
            </g>
            <g transform="matrix(0.9,0,-1.0842e-19,1,41.6474,8.36633)">
                <text x="117.297px" y="132.587px" style="font-family:'ChalkboardSE-Bold', 'Chalkboard SE', cursive;font-weight:700;font-size:21.158px;">N<tspan x="131.44px 143.268px 164.425px 172.98px 185.673px 197.502px 210.242px 222.538px " y="132.587px 132.587px 132.587px 132.587px 132.587px 132.587px 132.587px 132.587px ">EW STATE</tspan></text>
            </g>
        </g>
        <g transform="matrix(0.9,9.75782e-20,-3.25261e-19,1,-83.1272,-9.1661)">
            <text x="792.792px" y="382.034px" style="font-family:'ChalkboardSE-Bold', 'Chalkboard SE', cursive;font-weight:700;font-size:24px;">S<tspan x="807.191px 821.139px 838.852px 854.126px " y="382.034px 382.034px 382.034px 382.034px ">TORE</tspan></text>
        </g>
        <g transform="matrix(0.9,9.75782e-20,-3.25261e-19,1,-374.054,-95.3646)">
            <text x="792.792px" y="382.034px" style="font-family:'ChalkboardSE-Bold', 'Chalkboard SE', cursive;font-weight:700;font-size:24px;">R<tspan x="808.066px 821.484px 837.049px 853.119px 867.491px 880.908px " y="382.034px 382.034px 382.034px 382.034px 382.034px 382.034px ">EDUCER</tspan></text>
        </g>
        <g transform="matrix(1,1.0842e-19,-3.25261e-19,1,-753.436,-103.216)">
            <g transform="matrix(0.9,0,0,1,81.1523,0)">
                <text x="811.523px" y="382.034px" style="font-family:'ChalkboardSE-Bold', 'Chalkboard SE', cursive;font-weight:700;font-size:24px;">D<tspan x="827.089px 838.014px 852.412px 866.599px 882.377px 896.324px 910.697px " y="382.034px 382.034px 382.034px 382.034px 382.034px 382.034px 382.034px ">ISPATCH</tspan></text>
            </g>
            <g transform="matrix(0.9,0,0,1,79.9022,0)">
                <text x="799.022px" y="406.334px" style="font-family:'ChalkboardSE-Bold', 'Chalkboard SE', cursive;font-weight:700;font-size:20px;">{<tspan x="806.579px 816.677px 827.483px 836.476px 845.469px 856.231px 866.683px 876.074px 884.161px 893.022px 902.413px 913.373px 922.764px 933.526px " y="406.334px 406.334px 406.334px 406.334px 406.334px 406.334px 406.334px 406.334px 406.334px 406.334px 406.334px 406.334px 406.334px 406.334px ">current state}</tspan></text>
            </g>
            <g transform="matrix(0.9,0,0,1,83.0891,0)">
                <text x="830.891px" y="430.634px" style="font-family:'ChalkboardSE-Bold', 'Chalkboard SE', cursive;font-weight:700;font-size:20px;">{<tspan x="838.448px 849.408px 859.507px 868.898px 874.134px 884.122px 894.574px " y="430.634px 430.634px 430.634px 430.634px 430.634px 430.634px 430.634px ">action}</tspan></text>
            </g>
        </g>
        <g>
            <g transform="matrix(1,0,0,1,-1.14415,3.89516)">
                <path d="M282.087,277.07L289.153,277.221L297.799,277.455L300.649,278.588L301.855,281.151L301.855,281.171L300.689,283.752L297.857,284.929L297.847,284.929L289.215,285.296L282.153,285.556L276.571,285.693L260.552,285.751L239.704,285.753L200.481,285.687L200.002,285.686L199.992,285.686L197.354,284.593L196.236,281.987L196.236,281.967L197.313,279.344L199.934,278.211L199.944,278.21L200.424,278.202L239.641,277.529L260.486,277.209L276.504,277.02L282.087,277.07Z"/>
            </g>
            <g transform="matrix(1,0,0,1,0,2.59097)">
                <path d="M547.242,264.706L556.505,277.112L558.832,280.209L559.162,280.74L559.396,281.318L559.528,281.927L559.554,282.549L559.474,283.165L559.29,283.757L559.009,284.308L558.638,284.802L558.188,285.226L557.674,285.565L557.111,285.812L556.91,285.861L556.515,285.962L555.902,286.009L546.564,285.933L534.189,285.979L520.097,286.102L506.608,286.225L496.041,286.267L492.487,286.189L487.474,286.023L480.294,285.75L479.894,285.734L479.884,285.734L477.2,284.54L476.094,281.892L476.094,281.872L477.236,279.239L479.936,278.081L479.946,278.081L480.346,278.071L487.53,277.896L492.544,277.797L496.098,277.767L506.664,277.952L520.151,278.258L534.239,278.572L546.613,278.786L548.498,278.796L541.159,269.351L541.153,269.344L540.468,266.613L541.967,264.113L541.983,264.101L544.791,263.32L547.242,264.706Z"/>
                <g transform="matrix(1,0,0,1,-0.84479,0.146966)">
                    <path d="M546.085,298.182C552.329,292.331 555.31,287.322 556.057,282.889" style="fill:none;stroke:black;stroke-width:8.5px;"/>
                </g>
            </g>
        </g>
    </g>
</svg>
