<?xml version="1.0" encoding="UTF-8" standalone="no"?>
<!DOCTYPE svg PUBLIC "-//W3C//DTD SVG 1.1//EN" "http://www.w3.org/Graphics/SVG/1.1/DTD/svg11.dtd">
<svg width="100%" height="100%" viewBox="0 0 216 185" version="1.1" xmlns="http://www.w3.org/2000/svg" xmlns:xlink="http://www.w3.org/1999/xlink" xml:space="preserve" style="fill-rule:evenodd;clip-rule:evenodd;stroke-linecap:round;stroke-linejoin:round;stroke-miterlimit:1.5;">
    <g transform="matrix(1,0,0,1,-279.376,-51.401)">
        <g id="_1" transform="matrix(1.15138,0,0,1.13723,-71.8845,-20.761)">
            <path d="M401.248,65.444C419.659,65.981 435.133,80.603 435.783,99.665C436.555,122.316 420,138.369 400.77,136.01C380.396,133.509 369.668,121.782 367.233,102.017C364.884,82.941 383.275,64.919 401.248,65.444Z" style="fill:rgb(242,242,242);"/>
            <clipPath id="_clip1">
                <path d="M401.248,65.444C419.659,65.981 435.133,80.603 435.783,99.665C436.555,122.316 420,138.369 400.77,136.01C380.396,133.509 369.668,121.782 367.233,102.017C364.884,82.941 383.275,64.919 401.248,65.444Z"/>
            </clipPath>
            <g clip-path="url(#_clip1)">
                <g transform="matrix(0.868523,0,0,0.879326,-25.0143,16.6571)">
                    <path d="M506.29,121.043L506.558,121.046L506.829,121.05L507.355,121.059L507.88,121.072L508.399,121.086L508.912,121.101L509.921,121.131L510.414,121.144L510.901,121.156L511.385,121.165L511.619,121.168L511.854,121.171L512.087,121.172L512.318,121.173L512.547,121.172L512.773,121.171L512.998,121.168L513.22,121.164L513.44,121.158L513.658,121.152L513.873,121.144L514.086,121.134L514.296,121.123L514.504,121.11L514.709,121.096L514.911,121.08L515.111,121.063L515.308,121.044L515.502,121.023L515.694,121.001L515.883,120.976L516.068,120.95L516.259,120.921L516.342,120.908L516.432,120.893L516.52,120.877L516.608,120.861L516.696,120.845L516.782,120.828L516.868,120.811L516.954,120.793L517.038,120.775L517.122,120.756L517.204,120.737L517.286,120.717L517.368,120.697L517.449,120.677L517.529,120.656L517.608,120.634L517.686,120.612L517.691,120.611L517.709,120.6L517.822,120.53L517.929,120.462L518.029,120.396L518.122,120.333L518.207,120.274L518.294,120.211L518.322,120.19L518.355,120.165L518.386,120.141L518.416,120.118L518.443,120.096L518.468,120.076L518.49,120.057L518.494,120.053L518.526,119.998L518.639,119.818L518.754,119.649L518.867,119.493L518.982,119.345L519.095,119.207L519.207,119.08L519.318,118.958L519.429,118.844L519.536,118.738L519.643,118.637L519.749,118.541L519.87,118.436L520.054,118.284L520.252,118.133L520.444,117.995L520.632,117.868L520.816,117.751L520.996,117.642L521.173,117.541L521.346,117.446L521.518,117.356L521.688,117.271L521.855,117.191L522.021,117.115L522.186,117.043L522.35,116.974L522.513,116.907L522.674,116.844L522.835,116.784L522.995,116.726L523.154,116.671L523.313,116.618L523.472,116.567L523.63,116.519L523.788,116.472L523.946,116.428L524.104,116.386L524.263,116.345L524.421,116.307L524.581,116.271L524.742,116.237L524.905,116.205L525.07,116.175L525.237,116.147L525.409,116.121L525.586,116.099L525.769,116.079L525.962,116.062L526.165,116.05L526.384,116.043L526.621,116.043L526.884,116.053L527.18,116.077L527.476,116.118L527.702,116.159L527.832,116.188L527.884,116.16L528,116.097L528.114,116.034L528.226,115.972L528.336,115.909L528.445,115.847L528.551,115.784L528.657,115.722L528.759,115.66L528.86,115.599L528.958,115.537L529.055,115.476L529.149,115.416L529.24,115.355L529.329,115.296L529.416,115.237L529.5,115.178L529.582,115.12L529.661,115.063L529.737,115.006L529.81,114.951L529.88,114.897L529.948,114.843L530.013,114.79L530.074,114.739L530.133,114.689L530.188,114.641L530.24,114.594L530.29,114.548L530.335,114.505L530.378,114.463L530.418,114.423L530.454,114.385L530.487,114.349L530.516,114.316L530.543,114.285L530.567,114.257L530.575,114.247L530.579,114.149L530.634,113.739L530.721,113.335L530.842,112.94L530.995,112.556L531.179,112.186L531.394,111.833L531.636,111.498L531.905,111.185L532.2,110.895L532.517,110.63L532.855,110.392L533.212,110.183L533.584,110.005L533.97,109.857L534.367,109.742L534.772,109.66L535.183,109.612L535.596,109.598L536.009,109.618L536.418,109.672L536.822,109.76L537.217,109.881L537.601,110.034L537.971,110.218L538.325,110.432L538.659,110.675L538.972,110.944L539.263,111.239L539.527,111.556L539.765,111.894L539.974,112.251L540.153,112.623L540.3,113.009L540.415,113.406L540.497,113.811L540.545,114.222L540.559,114.635L540.558,114.735L540.555,114.874L540.55,115.011L540.542,115.147L540.533,115.284L540.521,115.42L540.507,115.556L540.491,115.691L540.473,115.824L540.453,115.959L540.431,116.092L540.407,116.224L540.381,116.355L540.354,116.486L540.324,116.616L540.293,116.744L540.259,116.872L540.224,116.999L540.188,117.124L540.15,117.248L540.11,117.372L540.069,117.493L540.026,117.614L539.981,117.735L539.935,117.853L539.888,117.971L539.839,118.088L539.789,118.203L539.739,118.315L539.686,118.428L539.633,118.54L539.571,118.663L539.466,118.865L539.35,119.076L539.229,119.282L539.106,119.483L538.979,119.679L538.85,119.87L538.718,120.057L538.583,120.239L538.445,120.417L538.306,120.591L538.165,120.759L538.023,120.924L537.878,121.086L537.731,121.244L537.584,121.398L537.435,121.548L537.285,121.695L537.134,121.839L536.982,121.98L536.828,122.118L536.674,122.253L536.519,122.386L536.363,122.516L536.206,122.643L536.049,122.768L535.891,122.89L535.732,123.011L535.572,123.129L535.412,123.245L535.252,123.359L535.091,123.471L534.929,123.581L534.767,123.69L534.604,123.796L534.441,123.902L534.278,124.005L534.115,124.107L533.95,124.207L533.786,124.306L533.622,124.404L533.457,124.5L533.292,124.595L533.127,124.688L532.962,124.78L532.796,124.871L532.631,124.961L532.465,125.05L532.3,125.138L532.135,125.224L531.969,125.309L531.803,125.394L531.633,125.479L531.309,125.64L530.979,125.8L530.651,125.956L530.325,126.108L530,126.257L529.677,126.403L529.357,126.545L529.04,126.685L528.725,126.821L528.414,126.954L528.107,127.084L527.803,127.213L527.605,127.295L527.413,127.435L527.18,127.601L526.947,127.763L526.712,127.922L526.476,128.078L526.239,128.231L526.001,128.381L525.761,128.528L525.52,128.672L525.278,128.813L525.036,128.951L524.792,129.086L524.547,129.219L524.301,129.349L524.055,129.476L523.808,129.6L523.56,129.721L523.311,129.84L523.061,129.956L522.811,130.07L522.56,130.181L522.309,130.289L522.056,130.395L521.804,130.498L521.551,130.6L521.297,130.698L521.043,130.794L520.788,130.888L520.533,130.98L520.277,131.069L520.021,131.157L519.765,131.241L519.509,131.324L519.252,131.405L518.995,131.483L518.737,131.56L518.48,131.634L518.222,131.707L517.964,131.777L517.705,131.846L517.447,131.913L517.188,131.978L516.93,132.041L516.671,132.102L516.476,132.147L516.105,132.285L515.703,132.433L515.314,132.573L514.937,132.706L514.574,132.832L514.227,132.951L513.894,133.062L513.616,133.154L513.333,133.245L513.05,133.334L512.765,133.422L512.478,133.508L512.19,133.592L511.901,133.675L511.611,133.756L511.319,133.836L511.027,133.914L510.733,133.991L510.437,134.065L510.141,134.139L509.844,134.211L509.545,134.281L509.245,134.35L508.944,134.417L508.642,134.483L508.339,134.547L508.035,134.61L507.73,134.671L507.424,134.731L507.117,134.79L506.809,134.846L506.5,134.902L506.19,134.956L505.88,135.008L505.568,135.059L505.256,135.109L504.942,135.157L504.628,135.204L504.314,135.249L503.998,135.293L503.682,135.336L503.365,135.377L503.047,135.417L502.729,135.455L502.41,135.492L502.091,135.527L501.77,135.561L501.45,135.594L501.128,135.625L500.807,135.655L500.484,135.683L500.162,135.71L499.838,135.736L499.515,135.76L499.191,135.783L498.866,135.804L498.542,135.824L498.216,135.843L497.891,135.86L497.565,135.876L497.239,135.891L496.913,135.904L496.587,135.916L496.26,135.926L495.933,135.935L495.606,135.943L495.279,135.949L494.952,135.954L494.625,135.957L494.298,135.959L493.97,135.96L493.643,135.959L493.316,135.957L492.989,135.954L492.662,135.949L492.335,135.943L492.008,135.935L491.681,135.926L491.354,135.916L491.028,135.904L490.702,135.891L490.376,135.877L490.05,135.861L489.724,135.844L489.399,135.825L489.075,135.805L488.75,135.784L488.426,135.761L488.102,135.737L487.779,135.711L487.456,135.684L487.134,135.656L486.812,135.626L486.491,135.595L486.17,135.562L485.85,135.528L485.53,135.493L485.211,135.456L484.893,135.418L484.575,135.378L484.258,135.337L483.942,135.295L483.627,135.251L483.312,135.205L482.998,135.159L482.684,135.11L482.372,135.061L482.06,135.01L481.75,134.957L481.44,134.903L481.131,134.848L480.823,134.791L480.516,134.732L480.209,134.673L479.904,134.611L479.6,134.548L479.297,134.484L478.995,134.418L478.694,134.351L478.394,134.282L478.095,134.212L477.798,134.14L477.501,134.066L477.206,133.991L476.912,133.915L476.619,133.837L476.327,133.757L476.037,133.676L475.748,133.593L475.46,133.508L475.174,133.422L474.888,133.334L474.605,133.245L474.322,133.154L474.037,133.06L473.879,133.006L473.718,132.949L473.558,132.891L473.4,132.832L473.242,132.771L473.086,132.708L472.931,132.645L472.778,132.579L472.626,132.513L472.475,132.446L472.326,132.377L472.177,132.307L472.03,132.236L471.885,132.164L471.741,132.09L471.598,132.016L471.457,131.941L471.317,131.864L471.178,131.787L471.04,131.709L470.904,131.63L470.769,131.55L470.636,131.469L470.504,131.388L470.373,131.306L470.243,131.222L470.115,131.139L469.988,131.055L469.862,130.97L469.737,130.884L469.614,130.798L469.492,130.711L469.371,130.624L469.252,130.537L469.134,130.449L469.016,130.36L468.9,130.271L468.779,130.177L468.56,130.003L468.338,129.822L468.121,129.64L467.908,129.458L467.7,129.275L467.496,129.091L467.295,128.907L467.099,128.724L466.906,128.54L466.717,128.356L466.532,128.173L466.35,127.991L466.172,127.809L465.997,127.628L465.825,127.447L465.656,127.269L465.491,127.091L465.328,126.915L465.169,126.74L465.012,126.567L464.856,126.394L464.558,126.061L464.269,125.735L464.183,125.637L463.803,125.458L463.571,125.348L463.342,125.238L463.113,125.127L462.885,125.015L462.656,124.902L462.417,124.783L462.31,124.729L462.195,124.669L462.082,124.608L461.97,124.546L461.859,124.483L461.75,124.419L461.641,124.354L461.535,124.288L461.43,124.222L461.315,124.148L461.122,124.02L460.923,123.881L460.729,123.741L460.54,123.598L460.356,123.454L460.176,123.308L460.001,123.161L459.83,123.012L459.663,122.862L459.5,122.712L459.34,122.56L459.184,122.408L459.032,122.256L458.883,122.103L458.738,121.949L458.595,121.796L458.456,121.642L458.319,121.488L458.185,121.334L458.054,121.18L457.926,121.027L457.8,120.873L457.676,120.72L457.555,120.568L457.436,120.416L457.319,120.263L457.204,120.112L457.092,119.963L456.981,119.813L456.873,119.664L456.766,119.517L456.661,119.37L456.555,119.22L456.358,118.938L456.164,118.656L455.977,118.38L455.797,118.111L455.623,117.85L455.295,117.355L455.141,117.122L454.993,116.9L454.853,116.691L454.72,116.496L454.595,116.316L454.467,116.134L454.368,115.995L454.259,115.839L454.15,115.684L454.043,115.528L453.936,115.372L453.83,115.216L453.725,115.059L453.621,114.903L453.519,114.746L453.416,114.589L453.315,114.432L453.215,114.275L453.116,114.117L453.017,113.96L452.92,113.801L452.823,113.644L452.728,113.485L452.633,113.327L452.539,113.168L452.446,113.01L452.354,112.851L452.263,112.692L452.173,112.533L452.084,112.373L451.996,112.214L451.908,112.054L451.822,111.894L451.736,111.734L451.652,111.573L451.568,111.413L451.485,111.253L451.403,111.091L451.322,110.931L451.243,110.77L451.163,110.609L451.085,110.447L451.008,110.286L450.931,110.124L450.856,109.962L450.782,109.8L450.708,109.638L450.635,109.476L450.564,109.314L450.493,109.151L450.466,109.088L450.435,109.032L450.321,108.822L450.209,108.611L450.097,108.398L449.986,108.185L449.876,107.971L449.767,107.755L449.659,107.538L449.552,107.32L449.446,107.101L449.34,106.881L449.236,106.66L449.133,106.437L449.031,106.213L448.93,105.988L448.83,105.762L448.731,105.535L448.633,105.307L448.536,105.077L448.44,104.846L448.345,104.614L448.252,104.381L448.16,104.147L448.068,103.912L447.978,103.675L447.889,103.438L447.802,103.199L447.715,102.958L447.63,102.717L447.546,102.475L447.463,102.231L447.381,101.986L447.301,101.74L447.222,101.493L447.144,101.245L447.068,100.995L446.993,100.744L446.919,100.492L446.846,100.239L446.775,99.985L446.706,99.729L446.637,99.472L446.57,99.215L446.5,98.938L446.451,98.733L446.403,98.514L446.36,98.297L446.321,98.082L446.286,97.87L446.256,97.661L446.229,97.455L446.205,97.252L446.185,97.051L446.167,96.854L446.152,96.659L446.14,96.467L446.129,96.278L446.121,96.091L446.115,95.907L446.11,95.726L446.107,95.548L446.105,95.372L446.105,95.199L446.106,95.022L446.109,94.696L446.116,94.373L446.125,94.06L446.134,93.757L446.154,93.184L446.162,92.914L446.169,92.654L446.174,92.407L446.177,92.165L446.177,92.059L446.177,91.949L446.176,91.844L446.174,91.742L446.172,91.642L446.169,91.547L446.165,91.455L446.16,91.367L446.155,91.284L446.149,91.204L446.142,91.127L446.135,91.056L446.127,90.989L446.119,90.925L446.111,90.866L446.102,90.811L446.093,90.761L446.084,90.715L446.075,90.674L446.067,90.637L446.058,90.603L446.051,90.575L446.043,90.551L446.024,90.49L445.972,90.329L445.909,90.13L445.848,89.929L445.789,89.729L445.733,89.529L445.679,89.328L445.626,89.128L445.577,88.927L445.529,88.727L445.483,88.526L445.44,88.325L445.398,88.125L445.359,87.925L445.321,87.724L445.286,87.524L445.253,87.324L445.221,87.124L445.192,86.925L445.165,86.725L445.139,86.526L445.116,86.327L445.094,86.128L445.074,85.929L445.056,85.731L445.04,85.532L445.025,85.335L445.013,85.138L445.002,84.94L444.992,84.743L444.985,84.547L444.979,84.351L444.975,84.154L444.972,83.959L444.972,83.764L444.972,83.57L444.975,83.375L444.978,83.181L444.984,82.988L444.991,82.795L444.999,82.602L445.009,82.41L445.02,82.218L445.033,82.027L445.047,81.836L445.062,81.646L445.079,81.456L445.097,81.266L445.116,81.077L445.137,80.889L445.159,80.701L445.182,80.513L445.207,80.326L445.232,80.14L445.259,79.954L445.287,79.768L445.317,79.583L445.347,79.399L445.379,79.215L445.411,79.032L445.445,78.849L445.479,78.667L445.515,78.485L445.552,78.304L445.59,78.123L445.629,77.942L445.668,77.763L445.709,77.584L445.75,77.406L445.793,77.227L445.837,77.05L445.881,76.874L445.926,76.697L445.972,76.521L446.019,76.346L446.067,76.172L446.115,75.998L446.164,75.824L446.214,75.651L446.265,75.479L446.318,75.302L446.422,74.966L446.53,74.627L446.64,74.29L446.753,73.955L446.869,73.623L446.986,73.294L447.106,72.966L447.228,72.642L447.352,72.319L447.478,72L447.605,71.683L447.734,71.368L447.864,71.056L447.996,70.747L448.129,70.44L448.263,70.136L448.398,69.835L448.534,69.536L448.671,69.24L448.808,68.947L448.947,68.657L449.085,68.37L449.224,68.086L449.368,67.795L449.435,67.664L449.508,67.522L449.585,67.377L449.666,67.226L449.751,67.07L449.841,66.907L449.936,66.738L450.034,66.564L450.136,66.385L450.242,66.202L450.352,66.015L450.464,65.825L450.579,65.632L450.697,65.437L450.817,65.242L450.938,65.046L451.063,64.85L451.189,64.653L451.316,64.458L451.447,64.263L451.58,64.068L451.717,63.873L451.853,63.686L451.933,63.579L452.01,63.478L452.089,63.377L452.173,63.272L452.261,63.165L452.354,63.054L452.456,62.938L452.567,62.818L452.691,62.687L452.833,62.548L452.997,62.396L453.193,62.227L453.433,62.041L453.736,61.833L454.074,61.636L454.363,61.493L454.645,61.372L454.973,61.255L455.355,61.149L455.571,61.108L455.8,61.07L456.031,61.043L456.19,61.028L456.451,61.019L456.603,61.016L456.755,61.015L456.908,61.017L457.061,61.021L457.214,61.028L457.368,61.038L457.522,61.05L457.676,61.065L457.831,61.083L457.986,61.103L458.14,61.127L458.295,61.153L458.449,61.182L458.604,61.214L458.758,61.249L458.911,61.287L459.064,61.328L459.217,61.373L459.369,61.42L459.52,61.47L459.67,61.523L459.819,61.579L459.968,61.639L460.115,61.701L460.26,61.766L460.405,61.834L460.547,61.905L460.688,61.978L460.828,62.055L460.966,62.133L461.101,62.215L461.234,62.298L461.366,62.385L461.496,62.474L461.622,62.564L461.747,62.657L461.87,62.752L461.989,62.849L462.092,62.935L462.174,62.845L462.292,62.719L462.408,62.599L462.521,62.483L462.633,62.372L462.743,62.264L462.849,62.161L462.959,62.057L463.154,61.874L463.345,61.698L463.685,61.388L463.837,61.249L463.974,61.122L464.103,61.001L464.152,60.953L464.203,60.904L464.249,60.857L464.292,60.814L464.298,60.807L464.324,60.615L464.412,60.212L464.534,59.817L464.687,59.433L464.872,59.063L465.087,58.71L465.33,58.376L465.599,58.063L465.894,57.773L466.212,57.509L466.55,57.272L466.907,57.063L467.28,56.885L467.666,56.738L468.063,56.624L468.468,56.542L468.879,56.495L469.292,56.481L469.705,56.502L470.114,56.557L470.518,56.645L470.913,56.766L471.297,56.92L471.666,57.105L472.019,57.319L472.354,57.562L472.667,57.832L472.956,58.127L473.221,58.444L473.458,58.783L473.666,59.14L473.845,59.512L473.991,59.899L474.106,60.296L474.187,60.701L474.235,61.111L474.248,61.524L474.247,61.626L474.244,61.77L474.237,61.914L474.229,62.06L474.217,62.203L474.203,62.346L474.187,62.489L474.168,62.631L474.147,62.773L474.124,62.912L474.098,63.05L474.07,63.187L474.039,63.325L474.007,63.461L473.972,63.593L473.936,63.726L473.897,63.858L473.857,63.986L473.815,64.114L473.77,64.241L473.725,64.365L473.677,64.487L473.629,64.608L473.579,64.727L473.528,64.843L473.475,64.958L473.421,65.072L473.359,65.198L473.255,65.398L473.139,65.607L473.021,65.808L472.901,66L472.779,66.186L472.656,66.364L472.532,66.536L472.409,66.7L472.285,66.857L472.162,67.009L472.039,67.155L471.918,67.294L471.798,67.428L471.679,67.557L471.562,67.682L471.447,67.801L471.334,67.915L471.223,68.026L471.114,68.132L471.002,68.239L470.804,68.427L470.61,68.606L470.429,68.772L470.1,69.071L469.96,69.201L469.826,69.326L469.773,69.377L469.719,69.429L469.669,69.478L469.623,69.523L469.582,69.566L469.544,69.605L469.512,69.64L469.483,69.671L469.458,69.699L469.438,69.722L469.421,69.742L469.41,69.757L469.402,69.767L469.398,69.772L469.397,69.773L469.376,69.805L469.277,69.951L469.154,70.13L469.029,70.306L468.903,70.481L468.776,70.654L468.649,70.825L468.521,70.994L468.391,71.162L468.262,71.328L468.132,71.492L468.001,71.656L467.869,71.818L467.738,71.979L467.603,72.143L467.341,72.456L467.076,72.77L466.81,73.08L466.545,73.387L466.281,73.692L465.759,74.294L465.503,74.59L465.25,74.884L465.117,75.04L465.111,75.079L465.078,75.277L465.045,75.475L465.009,75.671L464.972,75.866L464.934,76.061L464.895,76.255L464.854,76.447L464.812,76.639L464.769,76.83L464.724,77.019L464.679,77.208L464.632,77.395L464.584,77.581L464.535,77.767L464.484,77.951L464.433,78.133L464.38,78.315L464.326,78.496L464.271,78.674L464.215,78.852L464.158,79.029L464.099,79.204L464.04,79.378L463.979,79.55L463.917,79.722L463.854,79.892L463.79,80.061L463.724,80.229L463.657,80.396L463.589,80.561L463.52,80.725L463.449,80.888L463.376,81.05L463.302,81.211L463.225,81.372L463.147,81.531L463.067,81.689L462.985,81.848L462.899,82.006L462.812,82.163L462.721,82.321L462.627,82.479L462.529,82.636L462.427,82.795L462.32,82.954L462.208,83.114L462.205,83.118L462.203,83.157L462.198,83.239L462.19,83.44L462.182,83.651L462.176,83.88L462.162,84.381L462.154,84.653L462.144,84.938L462.131,85.227L462.122,85.387L462.113,85.545L462.102,85.705L462.089,85.868L462.074,86.036L462.057,86.208L462.038,86.383L462.016,86.563L461.99,86.748L461.96,86.938L461.926,87.133L461.887,87.335L461.842,87.543L461.791,87.758L461.731,87.979L461.663,88.209L461.591,88.428L461.54,88.569L461.494,88.692L461.443,88.821L461.389,88.949L461.331,89.081L461.329,89.124L461.327,89.194L461.326,89.27L461.325,89.353L461.325,89.44L461.326,89.53L461.328,89.627L461.33,89.727L461.334,89.83L461.338,89.937L461.342,90.041L461.355,90.276L461.37,90.513L461.387,90.757L461.406,91.007L461.428,91.261L461.45,91.515L461.498,92.039L461.547,92.553L461.571,92.81L461.594,93.065L461.616,93.32L461.636,93.574L461.653,93.829L461.667,94.078L461.674,94.222L461.678,94.359L461.681,94.503L461.682,94.619L461.683,94.818L461.686,94.985L461.69,95.152L461.695,95.317L461.702,95.481L461.711,95.645L461.721,95.808L461.733,95.97L461.747,96.132L461.762,96.293L461.778,96.453L461.796,96.612L461.815,96.771L461.836,96.929L461.858,97.087L461.882,97.244L461.907,97.4L461.934,97.556L461.962,97.712L461.992,97.866L462.023,98.021L462.055,98.175L462.089,98.328L462.124,98.481L462.161,98.634L462.199,98.787L462.238,98.938L462.279,99.091L462.321,99.242L462.364,99.392L462.409,99.543L462.455,99.694L462.503,99.844L462.552,99.993L462.602,100.143L462.654,100.293L462.707,100.442L462.761,100.591L462.817,100.74L462.874,100.888L462.932,101.036L462.992,101.185L463.053,101.333L463.116,101.481L463.179,101.628L463.244,101.776L463.311,101.923L463.378,102.07L463.447,102.218L463.518,102.365L463.589,102.512L463.662,102.659L463.737,102.806L463.812,102.952L463.889,103.099L463.967,103.246L464.046,103.392L464.127,103.539L464.209,103.685L464.292,103.831L464.377,103.978L464.462,104.124L464.549,104.27L464.637,104.416L464.727,104.562L464.817,104.708L464.909,104.854L465.002,105L465.096,105.146L465.192,105.292L465.289,105.438L465.386,105.583L465.485,105.729L465.585,105.875L465.686,106.02L465.789,106.166L465.893,106.311L465.997,106.457L466.103,106.602L466.21,106.748L466.318,106.893L466.427,107.039L466.537,107.184L466.648,107.329L466.76,107.475L466.873,107.62L466.988,107.765L467.103,107.911L467.219,108.056L467.336,108.201L467.455,108.346L467.574,108.491L467.694,108.636L467.815,108.782L467.937,108.927L468.06,109.072L468.184,109.217L468.306,109.359L468.561,109.652L468.817,109.942L469.076,110.232L469.338,110.522L469.603,110.812L469.871,111.102L470.142,111.392L470.416,111.682L470.693,111.973L470.972,112.263L471.253,112.553L471.537,112.844L471.823,113.134L472.111,113.425L472.398,113.713L472.483,113.797L472.565,113.877L472.647,113.957L472.73,114.036L472.813,114.114L472.896,114.192L472.98,114.269L473.065,114.346L473.149,114.421L473.235,114.497L473.321,114.572L473.407,114.646L473.494,114.72L473.581,114.793L473.669,114.865L473.757,114.937L473.845,115.009L473.934,115.079L474.024,115.15L474.114,115.22L474.204,115.289L474.295,115.358L474.386,115.426L474.478,115.493L474.57,115.56L474.663,115.627L474.757,115.693L474.85,115.759L474.945,115.824L475.039,115.888L475.134,115.953L475.23,116.016L475.326,116.079L475.423,116.142L475.52,116.204L475.617,116.266L475.715,116.327L475.814,116.387L475.913,116.447L476.013,116.507L476.113,116.566L476.213,116.625L476.314,116.683L476.416,116.741L476.517,116.798L476.62,116.855L476.723,116.911L476.826,116.967L476.93,117.023L477.034,117.078L477.14,117.132L477.245,117.186L477.351,117.24L477.457,117.293L477.564,117.346L477.666,117.395L477.888,117.501L478.106,117.602L478.326,117.702L478.547,117.8L478.771,117.896L478.997,117.99L479.225,118.083L479.454,118.173L479.686,118.263L479.919,118.35L480.154,118.436L480.391,118.52L480.63,118.602L480.871,118.683L481.113,118.762L481.357,118.839L481.603,118.915L481.851,118.989L482.1,119.061L482.351,119.132L482.604,119.201L482.858,119.269L483.114,119.335L483.372,119.4L483.631,119.463L483.892,119.524L484.154,119.584L484.418,119.642L484.684,119.699L484.95,119.755L485.219,119.809L485.488,119.861L485.759,119.912L486.032,119.962L486.306,120.01L486.581,120.057L486.857,120.102L487.134,120.146L487.413,120.189L487.694,120.231L487.975,120.271L488.257,120.309L488.541,120.347L488.825,120.383L489.111,120.418L489.398,120.452L489.686,120.484L489.975,120.516L490.265,120.546L490.555,120.575L490.847,120.603L491.14,120.63L491.433,120.655L491.728,120.68L492.023,120.704L492.319,120.726L492.615,120.748L492.913,120.768L493.211,120.788L493.51,120.806L493.809,120.824L494.109,120.841L494.41,120.857L494.712,120.872L495.013,120.886L495.316,120.9L495.619,120.912L495.922,120.924L496.226,120.935L496.528,120.946L497.141,120.964L497.752,120.981L498.365,120.994L498.979,121.006L499.593,121.015L500.209,121.023L500.824,121.029L501.441,121.033L502.057,121.036L502.673,121.038L503.289,121.04L504.521,121.041L505.754,121.04L506.02,121.041L506.29,121.043ZM464.251,61.393L464.249,61.423L464.249,61.427L464.252,61.364L464.251,61.393Z" style="fill:rgb(217,217,217);"/>
                </g>
            </g>
            <path d="M401.248,65.444C419.659,65.981 435.133,80.603 435.783,99.665C436.555,122.316 420,138.369 400.77,136.01C380.396,133.509 369.668,121.782 367.233,102.017C364.884,82.941 383.275,64.919 401.248,65.444Z" style="fill:none;stroke:black;stroke-width:3.93px;"/>
        </g>
        <g id="_2">
            <g id="_21" transform="matrix(1.15138,0,0,1.13723,-141.113,76.9656)">
                <path d="M401.248,65.444C419.659,65.981 436.566,80.939 437.216,100.001C437.988,122.653 420.086,137.507 400.77,136.01C378.393,134.275 368.663,122.166 367.233,102.017C365.873,82.845 383.275,64.919 401.248,65.444Z" style="fill:rgb(242,242,242);"/>
                <clipPath id="_clip2">
                    <path d="M401.248,65.444C419.659,65.981 436.566,80.939 437.216,100.001C437.988,122.653 420.086,137.507 400.77,136.01C378.393,134.275 368.663,122.166 367.233,102.017C365.873,82.845 383.275,64.919 401.248,65.444Z"/>
                </clipPath>
                <g clip-path="url(#_clip2)">
                    <g transform="matrix(0.868523,0,0,0.879326,219.673,-70.7426)">
                        <path d="M181.772,160.913L181.99,160.93L182.217,160.958L182.451,160.995L182.693,161.046L182.941,161.109L183.196,161.187L183.455,161.28L183.713,161.388L183.974,161.514L184.231,161.656L184.486,161.815L184.731,161.988L184.966,162.174L185.194,162.377L185.404,162.587L185.601,162.805L185.781,163.028L185.947,163.256L186.097,163.489L186.162,163.6L186.404,163.313L186.789,162.859L187.177,162.407L187.567,161.958L187.958,161.511L188.35,161.067L188.742,160.627L189.135,160.191L189.526,159.76L189.916,159.334L190.305,158.914L190.691,158.5L191.075,158.092L191.456,157.692L191.834,157.298L192.208,156.913L192.567,156.547L192.839,156.29L193.129,156.054L193.436,155.84L193.758,155.65L194.093,155.485L194.44,155.345L194.796,155.231L195.16,155.144L195.529,155.085L195.902,155.053L196.276,155.05L196.649,155.074L197.019,155.126L197.384,155.206L197.743,155.313L198.092,155.446L198.43,155.605L198.756,155.789L199.067,155.996L199.362,156.227L199.638,156.478L199.895,156.75L200.131,157.04L200.345,157.347L200.535,157.669L200.7,158.004L200.84,158.351L200.954,158.707L201.041,159.071L201.1,159.44L201.131,159.813L201.135,160.187L201.111,160.56L201.058,160.93L200.979,161.295L200.872,161.654L200.739,162.003L200.58,162.341L200.396,162.667L200.188,162.978L199.958,163.273L199.706,163.549L199.365,163.897L199.028,164.245L198.685,164.601L198.338,164.967L197.986,165.34L197.632,165.72L197.274,166.106L196.915,166.498L196.554,166.896L196.192,167.298L195.83,167.704L195.468,168.114L195.108,168.526L194.748,168.94L194.391,169.356L194.037,169.773L193.685,170.19L193.338,170.607L192.993,171.025L192.826,171.229L192.658,171.436L192.491,171.642L192.326,171.847L192.162,172.052L192,172.256L191.84,172.459L191.682,172.661L191.525,172.861L191.371,173.061L191.219,173.259L191.068,173.456L190.92,173.651L190.774,173.845L190.631,174.037L190.49,174.227L190.352,174.415L190.216,174.602L190.083,174.786L189.953,174.968L189.826,175.148L189.701,175.325L189.58,175.5L189.462,175.672L189.347,175.841L189.239,176.002L189.178,176.095L189.119,176.187L189.059,176.283L188.997,176.384L188.933,176.488L188.869,176.596L188.803,176.709L188.737,176.825L188.669,176.944L188.601,177.066L188.532,177.192L188.462,177.321L188.391,177.453L188.322,177.583L188.175,177.864L188.028,178.15L187.879,178.444L187.728,178.746L187.575,179.053L187.262,179.687L187.102,180.009L186.94,180.336L186.774,180.666L186.606,180.998L186.434,181.332L186.262,181.661L186.17,181.834L186.079,182.002L185.987,182.171L185.894,182.339L185.799,182.508L185.703,182.677L185.605,182.846L185.505,183.015L185.403,183.184L185.299,183.354L185.192,183.523L185.083,183.693L184.971,183.863L184.856,184.033L184.737,184.203L184.615,184.374L184.489,184.545L184.358,184.716L184.315,184.771L184.318,184.808L184.331,184.923L184.345,185.046L184.361,185.176L184.378,185.313L184.398,185.456L184.418,185.602L184.464,185.922L184.512,186.259L184.563,186.615L184.614,186.984L184.64,187.184L184.664,187.384L184.688,187.588L184.711,187.798L184.732,188.013L184.751,188.232L184.767,188.458L184.781,188.689L184.792,188.926L184.799,189.157L184.801,189.293L184.801,189.419L184.801,189.546L184.799,189.676L184.795,189.807L184.79,189.94L184.783,190.076L184.774,190.214L184.764,190.353L184.751,190.495L184.735,190.639L184.718,190.786L184.697,190.934L184.674,191.085L184.648,191.239L184.618,191.395L184.585,191.553L184.549,191.714L184.508,191.877L184.463,192.041L184.414,192.208L184.359,192.379L184.3,192.551L184.236,192.724L184.166,192.899L184.09,193.075L184.008,193.253L183.919,193.432L183.825,193.61L183.723,193.789L183.614,193.969L183.582,194.019L183.581,194.022L183.579,194.039L183.576,194.058L183.573,194.079L183.571,194.102L183.568,194.127L183.566,194.154L183.564,194.184L183.562,194.215L183.561,194.249L183.559,194.284L183.559,194.321L183.558,194.359L183.559,194.4L183.559,194.443L183.56,194.487L183.562,194.533L183.564,194.58L183.567,194.629L183.571,194.679L183.575,194.732L183.58,194.785L183.585,194.839L183.591,194.896L183.598,194.954L183.605,195.012L183.614,195.072L183.623,195.133L183.632,195.195L183.642,195.258L183.653,195.323L183.665,195.389L183.677,195.455L183.69,195.521L183.704,195.589L183.719,195.659L183.732,195.719L183.766,195.87L183.801,196.014L183.839,196.16L183.879,196.309L183.921,196.459L183.966,196.611L184.014,196.765L184.063,196.919L184.114,197.074L184.168,197.229L184.223,197.384L184.28,197.54L184.338,197.696L184.398,197.85L184.459,198.004L184.522,198.158L184.585,198.31L184.65,198.461L184.715,198.609L184.781,198.757L184.847,198.902L184.913,199.045L184.98,199.185L185.047,199.323L185.114,199.458L185.18,199.589L185.245,199.717L185.311,199.842L185.375,199.963L185.438,200.079L185.5,200.191L185.56,200.298L185.619,200.401L185.676,200.498L185.734,200.596L185.912,200.891L186.094,201.191L186.275,201.489L186.456,201.785L186.636,202.078L186.817,202.37L186.997,202.66L187.177,202.949L187.357,203.235L187.536,203.519L187.716,203.802L187.895,204.082L188.074,204.361L188.252,204.637L188.431,204.912L188.61,205.185L188.788,205.456L188.967,205.725L189.145,205.993L189.323,206.258L189.501,206.522L189.68,206.783L189.858,207.043L190.036,207.301L190.214,207.557L190.393,207.812L190.571,208.065L190.749,208.315L190.927,208.564L191.106,208.812L191.285,209.057L191.463,209.301L191.642,209.543L191.821,209.783L192,210.021L192.179,210.258L192.359,210.493L192.539,210.726L192.718,210.957L192.898,211.187L193.079,211.415L193.259,211.641L193.44,211.866L193.622,212.089L193.803,212.31L193.985,212.53L194.167,212.748L194.35,212.964L194.533,213.179L194.716,213.392L194.9,213.603L195.084,213.813L195.268,214.021L195.453,214.228L195.639,214.433L195.825,214.637L196.011,214.839L196.198,215.039L196.386,215.238L196.574,215.436L196.763,215.632L196.952,215.826L197.142,216.019L197.328,216.206L197.376,216.254L197.421,216.297L197.466,216.34L197.513,216.384L197.56,216.427L197.609,216.47L197.659,216.513L197.71,216.557L197.762,216.6L197.815,216.643L197.869,216.686L197.924,216.729L197.98,216.773L198.038,216.816L198.096,216.859L198.156,216.902L198.217,216.945L198.279,216.988L198.342,217.031L198.407,217.074L198.472,217.117L198.538,217.16L198.606,217.202L198.676,217.245L198.745,217.287L198.817,217.33L198.889,217.372L198.963,217.414L199.038,217.456L199.114,217.498L199.191,217.54L199.269,217.581L199.348,217.623L199.429,217.664L199.51,217.705L199.593,217.746L199.677,217.786L199.762,217.827L199.849,217.867L199.936,217.907L200.024,217.947L200.114,217.986L200.204,218.025L200.296,218.064L200.389,218.103L200.483,218.142L200.578,218.18L200.673,218.218L200.771,218.256L200.869,218.293L200.968,218.33L201.068,218.367L201.169,218.404L201.272,218.44L201.375,218.476L201.479,218.511L201.584,218.547L201.684,218.58L201.906,218.651L202.124,218.718L202.347,218.785L202.573,218.85L202.803,218.914L203.037,218.976L203.273,219.037L203.513,219.096L203.757,219.154L204.003,219.211L204.253,219.266L204.505,219.32L204.761,219.372L205.019,219.423L205.281,219.472L205.544,219.52L205.811,219.567L206.08,219.612L206.351,219.656L206.626,219.698L206.902,219.739L207.18,219.779L207.461,219.817L207.744,219.853L208.029,219.889L208.315,219.923L208.604,219.956L208.894,219.987L209.187,220.017L209.481,220.046L209.776,220.074L210.073,220.1L210.372,220.125L210.672,220.149L210.973,220.172L211.276,220.193L211.579,220.214L211.884,220.233L212.19,220.251L212.497,220.269L212.805,220.285L213.114,220.3L213.423,220.314L213.733,220.327L214.044,220.339L214.356,220.35L214.668,220.36L214.981,220.37L215.294,220.378L215.607,220.386L215.921,220.393L216.235,220.399L216.546,220.404L217.178,220.413L217.807,220.418L218.435,220.422L219.062,220.422L219.688,220.421L220.313,220.418L220.935,220.413L221.554,220.407L222.17,220.399L222.783,220.39L223.39,220.381L224.596,220.361L225.779,220.34L226.937,220.32L227.508,220.312L228.072,220.304L228.628,220.297L229.121,220.293L229.272,220.249L229.514,220.182L229.755,220.116L229.997,220.052L230.241,219.99L230.484,219.929L230.729,219.87L230.974,219.811L231.223,219.752L231.711,219.64L232.206,219.529L232.702,219.419L233.197,219.309L233.692,219.2L234.184,219.09L234.469,219.026L234.985,218.812L235.318,218.675L235.661,218.534L236.011,218.391L236.363,218.25L236.549,218.177L236.732,218.106L236.918,218.035L237.106,217.964L237.295,217.894L237.488,217.824L237.682,217.755L237.879,217.687L238.078,217.62L238.279,217.554L238.484,217.489L238.69,217.425L238.9,217.363L239.112,217.303L239.151,217.293L239.256,217.235L239.382,217.163L239.523,217.081L239.676,216.99L239.837,216.894L240.003,216.793L240.355,216.579L240.705,216.366L240.885,216.258L241.065,216.15L241.247,216.043L241.436,215.935L241.625,215.831L241.747,215.766L241.871,215.703L242.009,215.636L242.173,215.56L242.379,215.473L242.652,215.371L242.823,215.318L243.049,215.254L243.277,215.201L243.301,215.196L243.563,215.149L243.827,215.115L243.837,215.115L244.099,215.096L244.361,215.09L244.37,215.09L244.725,215.105L245.078,215.145L245.085,215.147L245.407,215.206L245.724,215.286L246.036,215.386L246.042,215.388L246.351,215.511L246.651,215.654L246.941,215.817L247.219,215.999L247.224,216.002L247.481,216.195L247.726,216.404L247.957,216.629L248.172,216.868L248.372,217.12L248.375,217.124L248.554,217.383L248.717,217.652L248.862,217.93L248.99,218.218L249.099,218.513L249.101,218.518L249.196,218.838L249.27,219.164L249.322,219.494L249.352,219.826L249.352,219.833L249.36,220.163L249.346,220.494L249.31,220.823L249.308,220.83L249.248,221.168L249.165,221.5L249.162,221.509L249.085,221.756L248.994,221.998L248.921,222.181L248.739,222.549L248.519,222.914L248.318,223.199L248.157,223.404L248.02,223.567L247.898,223.703L247.785,223.824L247.676,223.938L247.561,224.054L247.434,224.178L247.299,224.306L247.164,224.43L247.028,224.55L246.89,224.667L246.752,224.78L246.613,224.891L246.474,224.998L246.335,225.102L246.195,225.204L246.055,225.303L245.915,225.399L245.774,225.492L245.633,225.583L245.492,225.672L245.35,225.758L245.209,225.842L245.067,225.925L244.925,226.005L244.783,226.083L244.642,226.159L244.5,226.233L244.357,226.306L244.215,226.377L244.073,226.447L243.93,226.514L243.788,226.581L243.646,226.646L243.509,226.707L243.447,226.772L243.299,226.919L243.161,227.049L243.029,227.167L242.901,227.276L242.778,227.377L242.658,227.472L242.54,227.563L242.425,227.65L242.31,227.734L242.195,227.816L242.081,227.896L241.967,227.974L241.845,228.056L241.622,228.203L241.387,228.353L241.147,228.502L240.903,228.651L240.652,228.8L240.396,228.95L240.134,229.101L239.867,229.253L239.594,229.406L239.316,229.56L239.032,229.715L238.744,229.871L238.452,230.027L238.155,230.185L237.855,230.343L237.552,230.501L237.246,230.659L236.938,230.818L236.628,230.977L236.316,231.135L236.004,231.293L235.691,231.45L235.376,231.607L234.754,231.915L234.136,232.218L233.527,232.514L232.933,232.8L232.356,233.075L231.8,233.338L231.27,233.587L230.77,233.82L230.302,234.035L229.871,234.232L229.478,234.409L229.125,234.565L228.817,234.699L228.667,234.763L228.526,234.821L228.383,234.879L228.249,234.931L227.982,235.03L227.733,235.121L227.484,235.211L227.235,235.298L226.986,235.384L226.737,235.469L226.488,235.551L226.24,235.632L225.991,235.712L225.743,235.789L225.495,235.865L225.247,235.94L224.999,236.012L224.751,236.083L224.503,236.153L224.256,236.22L224.008,236.286L223.761,236.351L223.514,236.413L223.267,236.474L223.02,236.534L222.773,236.592L222.526,236.648L222.28,236.702L222.034,236.755L221.788,236.806L221.541,236.856L221.296,236.904L221.05,236.951L220.805,236.995L220.559,237.038L220.314,237.08L220.07,237.12L219.825,237.158L219.58,237.195L219.336,237.23L219.092,237.264L218.848,237.296L218.604,237.326L218.361,237.355L218.118,237.382L217.875,237.408L217.632,237.432L217.39,237.454L217.147,237.475L216.905,237.495L216.663,237.512L216.422,237.529L216.181,237.543L215.94,237.557L215.699,237.568L215.458,237.578L215.218,237.587L214.978,237.594L214.738,237.599L214.499,237.603L214.26,237.606L214.021,237.607L213.783,237.606L213.544,237.604L213.307,237.601L213.069,237.596L212.832,237.589L212.595,237.581L212.358,237.572L212.122,237.561L211.886,237.549L211.65,237.535L211.415,237.52L211.18,237.503L210.945,237.485L210.711,237.465L210.477,237.444L210.244,237.422L210.01,237.398L209.778,237.373L209.545,237.346L209.313,237.318L209.081,237.289L208.85,237.258L208.619,237.226L208.388,237.192L208.158,237.157L207.929,237.121L207.699,237.083L207.47,237.044L207.242,237.004L207.013,236.962L206.785,236.919L206.558,236.875L206.331,236.829L206.104,236.782L205.878,236.734L205.653,236.684L205.427,236.633L205.202,236.581L204.978,236.528L204.754,236.473L204.53,236.417L204.307,236.36L204.084,236.302L203.862,236.242L203.64,236.181L203.419,236.119L203.198,236.055L202.978,235.991L202.758,235.925L202.538,235.858L202.319,235.79L202.1,235.721L201.882,235.65L201.664,235.578L201.447,235.505L201.23,235.431L201.014,235.356L200.798,235.28L200.582,235.202L200.367,235.123L200.152,235.044L199.938,234.963L199.725,234.881L199.512,234.798L199.299,234.713L199.087,234.628L198.875,234.542L198.664,234.454L198.453,234.366L198.243,234.276L198.033,234.185L197.823,234.093L197.615,234.001L197.406,233.907L197.198,233.812L196.991,233.716L196.784,233.619L196.639,233.55L196.536,233.521L196.378,233.476L196.222,233.43L196.065,233.383L195.908,233.334L195.752,233.285L195.596,233.235L195.441,233.183L195.285,233.13L195.13,233.077L194.976,233.022L194.822,232.966L194.668,232.908L194.514,232.85L194.361,232.79L194.208,232.729L194.056,232.667L193.904,232.604L193.752,232.539L193.601,232.474L193.45,232.406L193.299,232.338L193.15,232.269L193,232.198L192.851,232.125L192.706,232.053L192.535,231.967L192.368,231.882L192.202,231.796L192.036,231.709L191.871,231.621L191.706,231.532L191.543,231.443L191.38,231.353L191.217,231.263L191.055,231.171L190.894,231.079L190.734,230.987L190.574,230.893L190.414,230.799L190.256,230.704L190.093,230.606L189.783,230.416L189.471,230.221L189.162,230.024L188.854,229.824L188.549,229.622L188.246,229.417L187.946,229.211L187.647,229.003L187.351,228.793L187.057,228.581L186.765,228.367L186.475,228.152L186.187,227.934L185.901,227.716L185.617,227.496L185.335,227.274L185.054,227.051L184.776,226.827L184.499,226.601L184.224,226.375L183.951,226.147L183.679,225.919L183.409,225.689L183.14,225.459L182.874,225.227L182.608,224.995L182.344,224.762L182.082,224.529L181.821,224.295L181.562,224.06L181.303,223.826L181.047,223.59L180.791,223.354L180.537,223.118L180.284,222.882L180.032,222.646L179.781,222.409L179.53,222.171L179.037,221.7L178.546,221.228L178.058,220.757L177.575,220.287L177.095,219.819L176.147,218.892L175.677,218.433L175.194,217.962L175.06,217.829L174.913,217.678L174.769,217.526L174.629,217.373L174.491,217.218L174.357,217.063L174.226,216.905L174.099,216.748L173.974,216.589L173.852,216.429L173.733,216.269L173.618,216.108L173.504,215.946L173.394,215.783L173.287,215.621L173.182,215.458L173.08,215.294L172.98,215.13L172.883,214.967L172.788,214.802L172.696,214.638L172.606,214.473L172.518,214.309L172.432,214.144L172.349,213.98L172.267,213.815L172.188,213.65L172.111,213.486L172.035,213.322L171.961,213.158L171.889,212.994L171.819,212.83L171.75,212.667L171.683,212.503L171.618,212.34L171.554,212.178L171.492,212.016L171.431,211.853L171.371,211.692L171.313,211.53L171.256,211.37L171.2,211.209L171.146,211.049L171.093,210.89L171.041,210.731L170.988,210.566L170.891,210.257L170.796,209.943L170.704,209.631L170.616,209.323L170.531,209.017L170.449,208.713L170.37,208.413L170.293,208.115L170.219,207.821L170.146,207.53L170.075,207.242L169.939,206.683L169.808,206.139L169.68,205.61L169.617,205.356L169.556,205.107L169.494,204.863L169.434,204.626L169.374,204.395L169.314,204.171L169.254,203.954L169.195,203.744L169.136,203.543L169.077,203.349L169.017,203.157L168.99,203.075L168.962,202.988L168.933,202.904L168.905,202.822L168.877,202.742L168.849,202.665L168.822,202.591L168.794,202.519L168.767,202.449L168.741,202.384L168.715,202.32L168.689,202.258L168.664,202.201L168.64,202.146L168.616,202.094L168.593,202.045L168.57,201.999L168.549,201.956L168.528,201.916L168.509,201.879L168.491,201.846L168.474,201.816L168.457,201.788L168.443,201.764L168.43,201.744L168.384,201.674L168.311,201.56L168.214,201.396L168.127,201.238L168.048,201.084L167.976,200.933L167.911,200.788L167.853,200.648L167.789,200.486L167.706,200.252L167.63,200.006L167.567,199.773L167.514,199.551L167.47,199.339L167.434,199.138L167.403,198.943L167.378,198.756L167.357,198.574L167.34,198.397L167.326,198.226L167.314,198.058L167.306,197.893L167.299,197.731L167.295,197.571L167.292,197.415L167.291,197.26L167.291,197.107L167.292,196.957L167.295,196.807L167.299,196.659L167.304,196.506L167.316,196.226L167.33,195.942L167.348,195.665L167.367,195.394L167.387,195.129L167.409,194.871L167.431,194.618L167.474,194.151L167.514,193.724L167.548,193.347L167.561,193.193L167.572,193.057L167.58,192.948L167.584,192.871L167.586,192.825L167.586,192.824L167.586,192.526L167.588,192.201L167.59,191.874L167.593,191.544L167.598,191.211L167.604,190.876L167.611,190.538L167.619,190.198L167.629,189.856L167.641,189.511L167.653,189.165L167.668,188.817L167.684,188.466L167.702,188.114L167.721,187.76L167.743,187.405L167.766,187.048L167.791,186.689L167.819,186.33L167.848,185.968L167.88,185.606L167.914,185.243L167.951,184.878L167.99,184.513L168.031,184.146L168.075,183.779L168.122,183.411L168.171,183.042L168.224,182.673L168.279,182.304L168.337,181.934L168.399,181.563L168.463,181.192L168.531,180.821L168.601,180.456L168.639,180.265L168.677,180.079L168.715,179.894L168.755,179.708L168.795,179.522L168.837,179.337L168.879,179.152L168.922,178.966L168.966,178.781L169.012,178.596L169.058,178.411L169.105,178.226L169.153,178.041L169.203,177.856L169.253,177.671L169.304,177.486L169.357,177.302L169.41,177.117L169.465,176.934L169.521,176.749L169.577,176.566L169.635,176.382L169.695,176.198L169.755,176.015L169.816,175.832L169.879,175.649L169.943,175.467L170.008,175.285L170.075,175.103L170.143,174.921L170.212,174.74L170.282,174.558L170.354,174.378L170.427,174.197L170.501,174.017L170.577,173.838L170.654,173.658L170.733,173.479L170.813,173.3L170.894,173.122L170.977,172.945L171.062,172.767L171.148,172.59L171.235,172.414L171.324,172.238L171.415,172.063L171.507,171.888L171.601,171.714L171.696,171.54L171.793,171.367L171.892,171.194L171.992,171.023L172.094,170.851L172.198,170.681L172.303,170.511L172.411,170.342L172.519,170.173L172.6,170.051L172.611,170.032L172.633,169.994L172.658,169.949L172.736,169.805L172.826,169.635L172.93,169.436L173.177,168.957L173.456,168.414L173.609,168.117L173.769,167.811L173.935,167.495L174.108,167.171L174.284,166.846L174.378,166.675L174.471,166.508L174.565,166.34L174.662,166.17L174.759,166L174.858,165.83L174.959,165.66L175.062,165.489L175.167,165.318L175.273,165.147L175.382,164.976L175.493,164.805L175.607,164.633L175.724,164.462L175.844,164.289L175.968,164.117L176.097,163.943L176.231,163.769L176.371,163.592L176.518,163.414L176.664,163.246L176.755,163.144L176.839,163.053L176.927,162.96L177.018,162.866L177.113,162.772L177.212,162.677L177.316,162.58L177.425,162.482L177.54,162.383L177.659,162.284L177.788,162.182L177.924,162.08L178.068,161.977L178.221,161.874L178.385,161.77L178.561,161.666L178.749,161.564L178.951,161.462L179.168,161.364L179.401,161.27L179.652,161.182L179.92,161.101L180.206,161.03L180.511,160.972L180.833,160.929L181.131,160.908L181.361,160.902L181.562,160.904L181.772,160.913Z" style="fill:rgb(217,217,217);"/>
                    </g>
                </g>
                <path d="M401.248,65.444C419.659,65.981 436.566,80.939 437.216,100.001C437.988,122.653 420.086,137.507 400.77,136.01C378.393,134.275 368.663,122.166 367.233,102.017C365.873,82.845 383.275,64.919 401.248,65.444Z" style="fill:none;stroke:black;stroke-width:3.93px;"/>
            </g>
            <path id="_-Kurve-" d="M366.467,121.129C361.016,124.346 356.045,128.976 351.649,133.838C349.699,135.994 347.862,138.196 346.147,140.341C345.063,141.696 342.596,145.018 340.163,149.434C338.776,151.953 337.399,154.828 336.297,157.896" style="fill:none;stroke:rgb(13,13,13);stroke-width:4.5px;"/>
        </g>
        <g id="_2---senden">
            <g id="_22" transform="matrix(1.15138,0,0,1.13723,-141.113,76.9656)">
                <path d="M401.248,65.444C419.659,65.981 436.566,80.939 437.216,100.001C437.988,122.653 420.086,137.507 400.77,136.01C378.393,134.275 368.663,122.166 367.233,102.017C365.873,82.845 383.275,64.919 401.248,65.444Z" style="fill:rgb(242,138,242);"/>
                <clipPath id="_clip3">
                    <path d="M401.248,65.444C419.659,65.981 436.566,80.939 437.216,100.001C437.988,122.653 420.086,137.507 400.77,136.01C378.393,134.275 368.663,122.166 367.233,102.017C365.873,82.845 383.275,64.919 401.248,65.444Z"/>
                </clipPath>
                <g clip-path="url(#_clip3)">
                    <g transform="matrix(0.868523,0,0,0.879326,219.673,-70.7426)">
                        <path d="M181.772,160.913L181.99,160.93L182.217,160.958L182.451,160.995L182.693,161.046L182.941,161.109L183.196,161.187L183.455,161.28L183.713,161.388L183.974,161.514L184.231,161.656L184.486,161.815L184.731,161.988L184.966,162.174L185.194,162.377L185.404,162.587L185.601,162.805L185.781,163.028L185.947,163.256L186.097,163.489L186.162,163.6L186.404,163.313L186.789,162.859L187.177,162.407L187.567,161.958L187.958,161.511L188.35,161.067L188.742,160.627L189.135,160.191L189.526,159.76L189.916,159.334L190.305,158.914L190.691,158.5L191.075,158.092L191.456,157.692L191.834,157.298L192.208,156.913L192.567,156.547L192.839,156.29L193.129,156.054L193.436,155.84L193.758,155.65L194.093,155.485L194.44,155.345L194.796,155.231L195.16,155.144L195.529,155.085L195.902,155.053L196.276,155.05L196.649,155.074L197.019,155.126L197.384,155.206L197.743,155.313L198.092,155.446L198.43,155.605L198.756,155.789L199.067,155.996L199.362,156.227L199.638,156.478L199.895,156.75L200.131,157.04L200.345,157.347L200.535,157.669L200.7,158.004L200.84,158.351L200.954,158.707L201.041,159.071L201.1,159.44L201.131,159.813L201.135,160.187L201.111,160.56L201.058,160.93L200.979,161.295L200.872,161.654L200.739,162.003L200.58,162.341L200.396,162.667L200.188,162.978L199.958,163.273L199.706,163.549L199.365,163.897L199.028,164.245L198.685,164.601L198.338,164.967L197.986,165.34L197.632,165.72L197.274,166.106L196.915,166.498L196.554,166.896L196.192,167.298L195.83,167.704L195.468,168.114L195.108,168.526L194.748,168.94L194.391,169.356L194.037,169.773L193.685,170.19L193.338,170.607L192.993,171.025L192.826,171.229L192.658,171.436L192.491,171.642L192.326,171.847L192.162,172.052L192,172.256L191.84,172.459L191.682,172.661L191.525,172.861L191.371,173.061L191.219,173.259L191.068,173.456L190.92,173.651L190.774,173.845L190.631,174.037L190.49,174.227L190.352,174.415L190.216,174.602L190.083,174.786L189.953,174.968L189.826,175.148L189.701,175.325L189.58,175.5L189.462,175.672L189.347,175.841L189.239,176.002L189.178,176.095L189.119,176.187L189.059,176.283L188.997,176.384L188.933,176.488L188.869,176.596L188.803,176.709L188.737,176.825L188.669,176.944L188.601,177.066L188.532,177.192L188.462,177.321L188.391,177.453L188.322,177.583L188.175,177.864L188.028,178.15L187.879,178.444L187.728,178.746L187.575,179.053L187.262,179.687L187.102,180.009L186.94,180.336L186.774,180.666L186.606,180.998L186.434,181.332L186.262,181.661L186.17,181.834L186.079,182.002L185.987,182.171L185.894,182.339L185.799,182.508L185.703,182.677L185.605,182.846L185.505,183.015L185.403,183.184L185.299,183.354L185.192,183.523L185.083,183.693L184.971,183.863L184.856,184.033L184.737,184.203L184.615,184.374L184.489,184.545L184.358,184.716L184.315,184.771L184.318,184.808L184.331,184.923L184.345,185.046L184.361,185.176L184.378,185.313L184.398,185.456L184.418,185.602L184.464,185.922L184.512,186.259L184.563,186.615L184.614,186.984L184.64,187.184L184.664,187.384L184.688,187.588L184.711,187.798L184.732,188.013L184.751,188.232L184.767,188.458L184.781,188.689L184.792,188.926L184.799,189.157L184.801,189.293L184.801,189.419L184.801,189.546L184.799,189.676L184.795,189.807L184.79,189.94L184.783,190.076L184.774,190.214L184.764,190.353L184.751,190.495L184.735,190.639L184.718,190.786L184.697,190.934L184.674,191.085L184.648,191.239L184.618,191.395L184.585,191.553L184.549,191.714L184.508,191.877L184.463,192.041L184.414,192.208L184.359,192.379L184.3,192.551L184.236,192.724L184.166,192.899L184.09,193.075L184.008,193.253L183.919,193.432L183.825,193.61L183.723,193.789L183.614,193.969L183.582,194.019L183.581,194.022L183.579,194.039L183.576,194.058L183.573,194.079L183.571,194.102L183.568,194.127L183.566,194.154L183.564,194.184L183.562,194.215L183.561,194.249L183.559,194.284L183.559,194.321L183.558,194.359L183.559,194.4L183.559,194.443L183.56,194.487L183.562,194.533L183.564,194.58L183.567,194.629L183.571,194.679L183.575,194.732L183.58,194.785L183.585,194.839L183.591,194.896L183.598,194.954L183.605,195.012L183.614,195.072L183.623,195.133L183.632,195.195L183.642,195.258L183.653,195.323L183.665,195.389L183.677,195.455L183.69,195.521L183.704,195.589L183.719,195.659L183.732,195.719L183.766,195.87L183.801,196.014L183.839,196.16L183.879,196.309L183.921,196.459L183.966,196.611L184.014,196.765L184.063,196.919L184.114,197.074L184.168,197.229L184.223,197.384L184.28,197.54L184.338,197.696L184.398,197.85L184.459,198.004L184.522,198.158L184.585,198.31L184.65,198.461L184.715,198.609L184.781,198.757L184.847,198.902L184.913,199.045L184.98,199.185L185.047,199.323L185.114,199.458L185.18,199.589L185.245,199.717L185.311,199.842L185.375,199.963L185.438,200.079L185.5,200.191L185.56,200.298L185.619,200.401L185.676,200.498L185.734,200.596L185.912,200.891L186.094,201.191L186.275,201.489L186.456,201.785L186.636,202.078L186.817,202.37L186.997,202.66L187.177,202.949L187.357,203.235L187.536,203.519L187.716,203.802L187.895,204.082L188.074,204.361L188.252,204.637L188.431,204.912L188.61,205.185L188.788,205.456L188.967,205.725L189.145,205.993L189.323,206.258L189.501,206.522L189.68,206.783L189.858,207.043L190.036,207.301L190.214,207.557L190.393,207.812L190.571,208.065L190.749,208.315L190.927,208.564L191.106,208.812L191.285,209.057L191.463,209.301L191.642,209.543L191.821,209.783L192,210.021L192.179,210.258L192.359,210.493L192.539,210.726L192.718,210.957L192.898,211.187L193.079,211.415L193.259,211.641L193.44,211.866L193.622,212.089L193.803,212.31L193.985,212.53L194.167,212.748L194.35,212.964L194.533,213.179L194.716,213.392L194.9,213.603L195.084,213.813L195.268,214.021L195.453,214.228L195.639,214.433L195.825,214.637L196.011,214.839L196.198,215.039L196.386,215.238L196.574,215.436L196.763,215.632L196.952,215.826L197.142,216.019L197.328,216.206L197.376,216.254L197.421,216.297L197.466,216.34L197.513,216.384L197.56,216.427L197.609,216.47L197.659,216.513L197.71,216.557L197.762,216.6L197.815,216.643L197.869,216.686L197.924,216.729L197.98,216.773L198.038,216.816L198.096,216.859L198.156,216.902L198.217,216.945L198.279,216.988L198.342,217.031L198.407,217.074L198.472,217.117L198.538,217.16L198.606,217.202L198.676,217.245L198.745,217.287L198.817,217.33L198.889,217.372L198.963,217.414L199.038,217.456L199.114,217.498L199.191,217.54L199.269,217.581L199.348,217.623L199.429,217.664L199.51,217.705L199.593,217.746L199.677,217.786L199.762,217.827L199.849,217.867L199.936,217.907L200.024,217.947L200.114,217.986L200.204,218.025L200.296,218.064L200.389,218.103L200.483,218.142L200.578,218.18L200.673,218.218L200.771,218.256L200.869,218.293L200.968,218.33L201.068,218.367L201.169,218.404L201.272,218.44L201.375,218.476L201.479,218.511L201.584,218.547L201.684,218.58L201.906,218.651L202.124,218.718L202.347,218.785L202.573,218.85L202.803,218.914L203.037,218.976L203.273,219.037L203.513,219.096L203.757,219.154L204.003,219.211L204.253,219.266L204.505,219.32L204.761,219.372L205.019,219.423L205.281,219.472L205.544,219.52L205.811,219.567L206.08,219.612L206.351,219.656L206.626,219.698L206.902,219.739L207.18,219.779L207.461,219.817L207.744,219.853L208.029,219.889L208.315,219.923L208.604,219.956L208.894,219.987L209.187,220.017L209.481,220.046L209.776,220.074L210.073,220.1L210.372,220.125L210.672,220.149L210.973,220.172L211.276,220.193L211.579,220.214L211.884,220.233L212.19,220.251L212.497,220.269L212.805,220.285L213.114,220.3L213.423,220.314L213.733,220.327L214.044,220.339L214.356,220.35L214.668,220.36L214.981,220.37L215.294,220.378L215.607,220.386L215.921,220.393L216.235,220.399L216.546,220.404L217.178,220.413L217.807,220.418L218.435,220.422L219.062,220.422L219.688,220.421L220.313,220.418L220.935,220.413L221.554,220.407L222.17,220.399L222.783,220.39L223.39,220.381L224.596,220.361L225.779,220.34L226.937,220.32L227.508,220.312L228.072,220.304L228.628,220.297L229.121,220.293L229.272,220.249L229.514,220.182L229.755,220.116L229.997,220.052L230.241,219.99L230.484,219.929L230.729,219.87L230.974,219.811L231.223,219.752L231.711,219.64L232.206,219.529L232.702,219.419L233.197,219.309L233.692,219.2L234.184,219.09L234.469,219.026L234.985,218.812L235.318,218.675L235.661,218.534L236.011,218.391L236.363,218.25L236.549,218.177L236.732,218.106L236.918,218.035L237.106,217.964L237.295,217.894L237.488,217.824L237.682,217.755L237.879,217.687L238.078,217.62L238.279,217.554L238.484,217.489L238.69,217.425L238.9,217.363L239.112,217.303L239.151,217.293L239.256,217.235L239.382,217.163L239.523,217.081L239.676,216.99L239.837,216.894L240.003,216.793L240.355,216.579L240.705,216.366L240.885,216.258L241.065,216.15L241.247,216.043L241.436,215.935L241.625,215.831L241.747,215.766L241.871,215.703L242.009,215.636L242.173,215.56L242.379,215.473L242.652,215.371L242.823,215.318L243.049,215.254L243.277,215.201L243.301,215.196L243.563,215.149L243.827,215.115L243.837,215.115L244.099,215.096L244.361,215.09L244.37,215.09L244.725,215.105L245.078,215.145L245.085,215.147L245.407,215.206L245.724,215.286L246.036,215.386L246.042,215.388L246.351,215.511L246.651,215.654L246.941,215.817L247.219,215.999L247.224,216.002L247.481,216.195L247.726,216.404L247.957,216.629L248.172,216.868L248.372,217.12L248.375,217.124L248.554,217.383L248.717,217.652L248.862,217.93L248.99,218.218L249.099,218.513L249.101,218.518L249.196,218.838L249.27,219.164L249.322,219.494L249.352,219.826L249.352,219.833L249.36,220.163L249.346,220.494L249.31,220.823L249.308,220.83L249.248,221.168L249.165,221.5L249.162,221.509L249.085,221.756L248.994,221.998L248.921,222.181L248.739,222.549L248.519,222.914L248.318,223.199L248.157,223.404L248.02,223.567L247.898,223.703L247.785,223.824L247.676,223.938L247.561,224.054L247.434,224.178L247.299,224.306L247.164,224.43L247.028,224.55L246.89,224.667L246.752,224.78L246.613,224.891L246.474,224.998L246.335,225.102L246.195,225.204L246.055,225.303L245.915,225.399L245.774,225.492L245.633,225.583L245.492,225.672L245.35,225.758L245.209,225.842L245.067,225.925L244.925,226.005L244.783,226.083L244.642,226.159L244.5,226.233L244.357,226.306L244.215,226.377L244.073,226.447L243.93,226.514L243.788,226.581L243.646,226.646L243.509,226.707L243.447,226.772L243.299,226.919L243.161,227.049L243.029,227.167L242.901,227.276L242.778,227.377L242.658,227.472L242.54,227.563L242.425,227.65L242.31,227.734L242.195,227.816L242.081,227.896L241.967,227.974L241.845,228.056L241.622,228.203L241.387,228.353L241.147,228.502L240.903,228.651L240.652,228.8L240.396,228.95L240.134,229.101L239.867,229.253L239.594,229.406L239.316,229.56L239.032,229.715L238.744,229.871L238.452,230.027L238.155,230.185L237.855,230.343L237.552,230.501L237.246,230.659L236.938,230.818L236.628,230.977L236.316,231.135L236.004,231.293L235.691,231.45L235.376,231.607L234.754,231.915L234.136,232.218L233.527,232.514L232.933,232.8L232.356,233.075L231.8,233.338L231.27,233.587L230.77,233.82L230.302,234.035L229.871,234.232L229.478,234.409L229.125,234.565L228.817,234.699L228.667,234.763L228.526,234.821L228.383,234.879L228.249,234.931L227.982,235.03L227.733,235.121L227.484,235.211L227.235,235.298L226.986,235.384L226.737,235.469L226.488,235.551L226.24,235.632L225.991,235.712L225.743,235.789L225.495,235.865L225.247,235.94L224.999,236.012L224.751,236.083L224.503,236.153L224.256,236.22L224.008,236.286L223.761,236.351L223.514,236.413L223.267,236.474L223.02,236.534L222.773,236.592L222.526,236.648L222.28,236.702L222.034,236.755L221.788,236.806L221.541,236.856L221.296,236.904L221.05,236.951L220.805,236.995L220.559,237.038L220.314,237.08L220.07,237.12L219.825,237.158L219.58,237.195L219.336,237.23L219.092,237.264L218.848,237.296L218.604,237.326L218.361,237.355L218.118,237.382L217.875,237.408L217.632,237.432L217.39,237.454L217.147,237.475L216.905,237.495L216.663,237.512L216.422,237.529L216.181,237.543L215.94,237.557L215.699,237.568L215.458,237.578L215.218,237.587L214.978,237.594L214.738,237.599L214.499,237.603L214.26,237.606L214.021,237.607L213.783,237.606L213.544,237.604L213.307,237.601L213.069,237.596L212.832,237.589L212.595,237.581L212.358,237.572L212.122,237.561L211.886,237.549L211.65,237.535L211.415,237.52L211.18,237.503L210.945,237.485L210.711,237.465L210.477,237.444L210.244,237.422L210.01,237.398L209.778,237.373L209.545,237.346L209.313,237.318L209.081,237.289L208.85,237.258L208.619,237.226L208.388,237.192L208.158,237.157L207.929,237.121L207.699,237.083L207.47,237.044L207.242,237.004L207.013,236.962L206.785,236.919L206.558,236.875L206.331,236.829L206.104,236.782L205.878,236.734L205.653,236.684L205.427,236.633L205.202,236.581L204.978,236.528L204.754,236.473L204.53,236.417L204.307,236.36L204.084,236.302L203.862,236.242L203.64,236.181L203.419,236.119L203.198,236.055L202.978,235.991L202.758,235.925L202.538,235.858L202.319,235.79L202.1,235.721L201.882,235.65L201.664,235.578L201.447,235.505L201.23,235.431L201.014,235.356L200.798,235.28L200.582,235.202L200.367,235.123L200.152,235.044L199.938,234.963L199.725,234.881L199.512,234.798L199.299,234.713L199.087,234.628L198.875,234.542L198.664,234.454L198.453,234.366L198.243,234.276L198.033,234.185L197.823,234.093L197.615,234.001L197.406,233.907L197.198,233.812L196.991,233.716L196.784,233.619L196.639,233.55L196.536,233.521L196.378,233.476L196.222,233.43L196.065,233.383L195.908,233.334L195.752,233.285L195.596,233.235L195.441,233.183L195.285,233.13L195.13,233.077L194.976,233.022L194.822,232.966L194.668,232.908L194.514,232.85L194.361,232.79L194.208,232.729L194.056,232.667L193.904,232.604L193.752,232.539L193.601,232.474L193.45,232.406L193.299,232.338L193.15,232.269L193,232.198L192.851,232.125L192.706,232.053L192.535,231.967L192.368,231.882L192.202,231.796L192.036,231.709L191.871,231.621L191.706,231.532L191.543,231.443L191.38,231.353L191.217,231.263L191.055,231.171L190.894,231.079L190.734,230.987L190.574,230.893L190.414,230.799L190.256,230.704L190.093,230.606L189.783,230.416L189.471,230.221L189.162,230.024L188.854,229.824L188.549,229.622L188.246,229.417L187.946,229.211L187.647,229.003L187.351,228.793L187.057,228.581L186.765,228.367L186.475,228.152L186.187,227.934L185.901,227.716L185.617,227.496L185.335,227.274L185.054,227.051L184.776,226.827L184.499,226.601L184.224,226.375L183.951,226.147L183.679,225.919L183.409,225.689L183.14,225.459L182.874,225.227L182.608,224.995L182.344,224.762L182.082,224.529L181.821,224.295L181.562,224.06L181.303,223.826L181.047,223.59L180.791,223.354L180.537,223.118L180.284,222.882L180.032,222.646L179.781,222.409L179.53,222.171L179.037,221.7L178.546,221.228L178.058,220.757L177.575,220.287L177.095,219.819L176.147,218.892L175.677,218.433L175.194,217.962L175.06,217.829L174.913,217.678L174.769,217.526L174.629,217.373L174.491,217.218L174.357,217.063L174.226,216.905L174.099,216.748L173.974,216.589L173.852,216.429L173.733,216.269L173.618,216.108L173.504,215.946L173.394,215.783L173.287,215.621L173.182,215.458L173.08,215.294L172.98,215.13L172.883,214.967L172.788,214.802L172.696,214.638L172.606,214.473L172.518,214.309L172.432,214.144L172.349,213.98L172.267,213.815L172.188,213.65L172.111,213.486L172.035,213.322L171.961,213.158L171.889,212.994L171.819,212.83L171.75,212.667L171.683,212.503L171.618,212.34L171.554,212.178L171.492,212.016L171.431,211.853L171.371,211.692L171.313,211.53L171.256,211.37L171.2,211.209L171.146,211.049L171.093,210.89L171.041,210.731L170.988,210.566L170.891,210.257L170.796,209.943L170.704,209.631L170.616,209.323L170.531,209.017L170.449,208.713L170.37,208.413L170.293,208.115L170.219,207.821L170.146,207.53L170.075,207.242L169.939,206.683L169.808,206.139L169.68,205.61L169.617,205.356L169.556,205.107L169.494,204.863L169.434,204.626L169.374,204.395L169.314,204.171L169.254,203.954L169.195,203.744L169.136,203.543L169.077,203.349L169.017,203.157L168.99,203.075L168.962,202.988L168.933,202.904L168.905,202.822L168.877,202.742L168.849,202.665L168.822,202.591L168.794,202.519L168.767,202.449L168.741,202.384L168.715,202.32L168.689,202.258L168.664,202.201L168.64,202.146L168.616,202.094L168.593,202.045L168.57,201.999L168.549,201.956L168.528,201.916L168.509,201.879L168.491,201.846L168.474,201.816L168.457,201.788L168.443,201.764L168.43,201.744L168.384,201.674L168.311,201.56L168.214,201.396L168.127,201.238L168.048,201.084L167.976,200.933L167.911,200.788L167.853,200.648L167.789,200.486L167.706,200.252L167.63,200.006L167.567,199.773L167.514,199.551L167.47,199.339L167.434,199.138L167.403,198.943L167.378,198.756L167.357,198.574L167.34,198.397L167.326,198.226L167.314,198.058L167.306,197.893L167.299,197.731L167.295,197.571L167.292,197.415L167.291,197.26L167.291,197.107L167.292,196.957L167.295,196.807L167.299,196.659L167.304,196.506L167.316,196.226L167.33,195.942L167.348,195.665L167.367,195.394L167.387,195.129L167.409,194.871L167.431,194.618L167.474,194.151L167.514,193.724L167.548,193.347L167.561,193.193L167.572,193.057L167.58,192.948L167.584,192.871L167.586,192.825L167.586,192.824L167.586,192.526L167.588,192.201L167.59,191.874L167.593,191.544L167.598,191.211L167.604,190.876L167.611,190.538L167.619,190.198L167.629,189.856L167.641,189.511L167.653,189.165L167.668,188.817L167.684,188.466L167.702,188.114L167.721,187.76L167.743,187.405L167.766,187.048L167.791,186.689L167.819,186.33L167.848,185.968L167.88,185.606L167.914,185.243L167.951,184.878L167.99,184.513L168.031,184.146L168.075,183.779L168.122,183.411L168.171,183.042L168.224,182.673L168.279,182.304L168.337,181.934L168.399,181.563L168.463,181.192L168.531,180.821L168.601,180.456L168.639,180.265L168.677,180.079L168.715,179.894L168.755,179.708L168.795,179.522L168.837,179.337L168.879,179.152L168.922,178.966L168.966,178.781L169.012,178.596L169.058,178.411L169.105,178.226L169.153,178.041L169.203,177.856L169.253,177.671L169.304,177.486L169.357,177.302L169.41,177.117L169.465,176.934L169.521,176.749L169.577,176.566L169.635,176.382L169.695,176.198L169.755,176.015L169.816,175.832L169.879,175.649L169.943,175.467L170.008,175.285L170.075,175.103L170.143,174.921L170.212,174.74L170.282,174.558L170.354,174.378L170.427,174.197L170.501,174.017L170.577,173.838L170.654,173.658L170.733,173.479L170.813,173.3L170.894,173.122L170.977,172.945L171.062,172.767L171.148,172.59L171.235,172.414L171.324,172.238L171.415,172.063L171.507,171.888L171.601,171.714L171.696,171.54L171.793,171.367L171.892,171.194L171.992,171.023L172.094,170.851L172.198,170.681L172.303,170.511L172.411,170.342L172.519,170.173L172.6,170.051L172.611,170.032L172.633,169.994L172.658,169.949L172.736,169.805L172.826,169.635L172.93,169.436L173.177,168.957L173.456,168.414L173.609,168.117L173.769,167.811L173.935,167.495L174.108,167.171L174.284,166.846L174.378,166.675L174.471,166.508L174.565,166.34L174.662,166.17L174.759,166L174.858,165.83L174.959,165.66L175.062,165.489L175.167,165.318L175.273,165.147L175.382,164.976L175.493,164.805L175.607,164.633L175.724,164.462L175.844,164.289L175.968,164.117L176.097,163.943L176.231,163.769L176.371,163.592L176.518,163.414L176.664,163.246L176.755,163.144L176.839,163.053L176.927,162.96L177.018,162.866L177.113,162.772L177.212,162.677L177.316,162.58L177.425,162.482L177.54,162.383L177.659,162.284L177.788,162.182L177.924,162.08L178.068,161.977L178.221,161.874L178.385,161.77L178.561,161.666L178.749,161.564L178.951,161.462L179.168,161.364L179.401,161.27L179.652,161.182L179.92,161.101L180.206,161.03L180.511,160.972L180.833,160.929L181.131,160.908L181.361,160.902L181.562,160.904L181.772,160.913Z" style="fill:rgb(217,87,217);"/>
                    </g>
                </g>
                <path d="M401.248,65.444C419.659,65.981 436.566,80.939 437.216,100.001C437.988,122.653 420.086,137.507 400.77,136.01C378.393,134.275 368.663,122.166 367.233,102.017C365.873,82.845 383.275,64.919 401.248,65.444Z" style="fill:none;stroke:black;stroke-width:3.93px;"/>
            </g>
            <path id="_-Kurve-1" d="M366.467,121.129C361.016,124.346 356.045,128.976 351.649,133.838C349.699,135.994 347.862,138.196 346.147,140.341C345.063,141.696 342.596,145.018 340.163,149.434C338.776,151.953 337.399,154.828 336.297,157.896" style="fill:none;stroke:rgb(13,13,13);stroke-width:4.5px;"/>
        </g>
        <g id="_3">
            <g id="_31" transform="matrix(1.15138,0,0,1.13723,-9.00125,78.2763)">
                <path d="M401.248,65.444C418.153,64.218 433.084,78.205 435.783,99.665C438.612,122.152 420,138.369 400.77,136.01C380.396,133.509 371.579,121.446 369.145,101.681C366.795,82.605 383.314,66.743 401.248,65.444Z" style="fill:rgb(242,242,242);"/>
                <clipPath id="_clip4">
                    <path d="M401.248,65.444C418.153,64.218 433.084,78.205 435.783,99.665C438.612,122.152 420,138.369 400.77,136.01C380.396,133.509 371.579,121.446 369.145,101.681C366.795,82.605 383.314,66.743 401.248,65.444Z"/>
                </clipPath>
                <g clip-path="url(#_clip4)">
                    <g transform="matrix(0.868523,0,0,0.879326,7.81779,-68.8304)">
                        <path d="M428.43,160.376L428.784,160.418L429.135,160.484L429.48,160.576L429.817,160.692L430.146,160.832L430.463,160.994L430.769,161.179L431.06,161.386L431.336,161.612L431.594,161.858L431.835,162.122L432.056,162.402L432.257,162.697L432.436,163.005L432.593,163.326L432.727,163.657L432.836,163.997L432.921,164.343L432.981,164.695L433.016,165.05L433.025,165.407L433.024,165.572L433.018,165.782L433.008,165.992L432.995,166.199L432.978,166.404L432.958,166.608L432.934,166.811L432.908,167.011L432.878,167.209L432.846,167.406L432.81,167.601L432.772,167.793L432.732,167.984L432.689,168.173L432.644,168.36L432.596,168.545L432.547,168.729L432.495,168.909L432.442,169.089L432.386,169.267L432.329,169.443L432.27,169.618L432.21,169.79L432.148,169.961L432.085,170.131L432.02,170.298L431.954,170.464L431.887,170.629L431.819,170.792L431.75,170.954L431.679,171.115L431.607,171.273L431.535,171.431L431.462,171.587L431.388,171.742L431.313,171.896L431.237,172.048L431.161,172.199L431.084,172.349L431.006,172.498L430.928,172.646L430.85,172.793L430.77,172.938L430.688,173.088L430.531,173.368L430.369,173.65L430.207,173.928L430.044,174.203L429.88,174.474L429.717,174.741L429.553,175.005L429.39,175.266L429.227,175.523L429.065,175.778L428.748,176.273L428.435,176.759L428.13,177.234L427.984,177.463L427.839,177.691L427.698,177.915L427.56,178.135L427.427,178.351L427.297,178.564L427.171,178.773L427.051,178.977L426.935,179.176L426.824,179.371L426.715,179.568L426.668,179.655L426.618,179.747L426.57,179.837L426.524,179.926L426.479,180.014L426.436,180.1L426.394,180.185L426.353,180.268L426.314,180.35L426.277,180.429L426.242,180.507L426.207,180.584L426.175,180.658L426.144,180.731L426.115,180.802L426.087,180.871L426.061,180.938L426.036,181.002L426.013,181.065L425.992,181.126L425.972,181.185L425.953,181.241L425.936,181.295L425.921,181.346L425.907,181.395L425.894,181.442L425.883,181.486L425.873,181.529L425.864,181.567L425.854,181.615L425.822,181.778L425.789,181.953L425.757,182.129L425.725,182.305L425.695,182.483L425.666,182.662L425.638,182.841L425.61,183.022L425.584,183.204L425.559,183.386L425.535,183.569L425.512,183.752L425.49,183.937L425.469,184.122L425.449,184.308L425.43,184.495L425.412,184.682L425.396,184.87L425.38,185.058L425.366,185.248L425.352,185.437L425.34,185.627L425.329,185.817L425.319,186.008L425.31,186.2L425.302,186.392L425.295,186.584L425.289,186.777L425.285,186.97L425.282,187.163L425.28,187.356L425.279,187.55L425.279,187.744L425.28,187.938L425.282,188.132L425.286,188.327L425.291,188.521L425.297,188.716L425.304,188.911L425.312,189.105L425.322,189.3L425.332,189.495L425.344,189.689L425.357,189.884L425.371,190.078L425.386,190.273L425.403,190.467L425.42,190.661L425.439,190.855L425.459,191.049L425.481,191.242L425.503,191.435L425.527,191.628L425.551,191.821L425.577,192.013L425.604,192.205L425.633,192.396L425.662,192.587L425.693,192.777L425.725,192.967L425.758,193.157L425.792,193.346L425.828,193.534L425.864,193.722L425.902,193.909L425.941,194.096L425.981,194.282L426.023,194.467L426.065,194.652L426.109,194.836L426.153,195.019L426.199,195.201L426.247,195.383L426.295,195.563L426.344,195.743L426.395,195.922L426.447,196.1L426.5,196.277L426.554,196.453L426.609,196.629L426.665,196.803L426.723,196.976L426.781,197.148L426.841,197.319L426.901,197.489L426.963,197.658L427.026,197.826L427.09,197.993L427.156,198.159L427.222,198.323L427.289,198.486L427.357,198.648L427.427,198.808L427.497,198.967L427.569,199.126L427.641,199.282L427.715,199.438L427.79,199.592L427.865,199.744L427.942,199.896L428.019,200.045L428.098,200.194L428.178,200.341L428.258,200.486L428.34,200.631L428.422,200.773L428.506,200.914L428.59,201.054L428.675,201.192L428.762,201.328L428.849,201.463L428.937,201.597L429.026,201.728L429.116,201.859L429.206,201.987L429.298,202.114L429.39,202.24L429.484,202.364L429.578,202.486L429.673,202.606L429.769,202.725L429.866,202.842L429.963,202.958L430.062,203.072L430.161,203.184L430.261,203.295L430.362,203.404L430.482,203.531L430.58,203.634L430.694,203.757L430.807,203.88L430.918,204.004L431.027,204.127L431.134,204.252L431.239,204.376L431.343,204.5L431.445,204.624L431.545,204.749L431.643,204.873L431.74,204.998L431.835,205.122L431.929,205.246L432.02,205.37L432.111,205.494L432.2,205.617L432.288,205.741L432.373,205.864L432.462,205.993L432.623,206.231L432.783,206.474L432.937,206.715L433.087,206.954L433.232,207.192L433.373,207.426L433.509,207.658L433.642,207.888L433.771,208.114L433.896,208.338L434.019,208.558L434.139,208.778L434.366,209.196L434.586,209.603L434.796,209.995L435,210.373L435.097,210.55L435.194,210.726L435.288,210.896L435.382,211.061L435.474,211.221L435.564,211.377L435.653,211.527L435.741,211.671L435.827,211.81L435.912,211.943L435.995,212.07L436.082,212.2L436.119,212.253L436.159,212.31L436.198,212.366L436.238,212.421L436.277,212.474L436.316,212.527L436.354,212.577L436.392,212.626L436.43,212.674L436.467,212.72L436.504,212.766L436.541,212.81L436.577,212.852L436.612,212.893L436.648,212.934L436.684,212.973L436.718,213.01L436.752,213.046L436.787,213.082L436.82,213.116L436.854,213.149L436.888,213.182L436.92,213.212L436.953,213.242L436.986,213.272L437.018,213.3L437.05,213.327L437.082,213.354L437.115,213.38L437.146,213.405L437.178,213.429L437.21,213.453L437.242,213.476L437.274,213.499L437.307,213.521L437.339,213.542L437.373,213.564L437.406,213.584L437.44,213.605L437.475,213.625L437.509,213.645L437.544,213.664L437.581,213.683L437.632,213.709L438.068,213.926L438.515,214.148L438.96,214.367L439.403,214.585L439.844,214.8L440.283,215.012L440.72,215.222L441.155,215.429L441.588,215.634L442.02,215.837L442.45,216.036L442.879,216.233L443.306,216.427L443.732,216.619L444.157,216.807L444.581,216.992L445.004,217.175L445.426,217.355L445.847,217.531L446.267,217.705L446.687,217.875L447.111,218.044L447.317,218.125L447.526,218.206L447.736,218.287L447.945,218.367L448.155,218.446L448.364,218.525L448.573,218.602L448.783,218.679L448.992,218.755L449.202,218.83L449.411,218.904L449.621,218.978L449.831,219.05L450.041,219.122L450.251,219.193L450.461,219.263L450.671,219.332L450.881,219.4L451.091,219.468L451.302,219.534L451.513,219.6L451.725,219.665L451.936,219.729L452.147,219.792L452.359,219.854L452.571,219.915L452.784,219.975L452.997,220.035L453.21,220.093L453.424,220.151L453.638,220.208L453.852,220.264L454.067,220.318L454.282,220.372L454.497,220.425L454.713,220.477L454.93,220.529L455.147,220.579L455.364,220.628L455.582,220.676L455.801,220.724L456.02,220.77L456.239,220.816L456.46,220.86L456.68,220.903L456.902,220.946L457.124,220.987L457.347,221.028L457.57,221.068L457.794,221.106L458.019,221.144L458.245,221.18L458.471,221.215L458.698,221.25L458.926,221.283L459.155,221.316L459.385,221.347L459.615,221.377L459.846,221.407L460.079,221.435L460.311,221.462L460.545,221.488L460.781,221.513L461.016,221.537L461.253,221.56L461.491,221.581L461.73,221.602L461.97,221.621L462.21,221.64L462.453,221.657L462.696,221.673L462.94,221.688L463.185,221.702L463.431,221.714L463.679,221.726L463.928,221.736L464.177,221.745L464.428,221.753L464.681,221.76L464.934,221.765L465.189,221.77L465.445,221.773L465.702,221.775L465.972,221.775L466.16,221.776L466.362,221.777L466.749,221.782L467.135,221.789L467.515,221.797L467.889,221.807L468.255,221.817L468.973,221.837L469.32,221.846L469.661,221.853L469.996,221.858L470.328,221.861L470.484,221.862L470.642,221.862L470.799,221.861L470.954,221.859L471.107,221.856L471.257,221.853L471.406,221.849L471.552,221.844L471.696,221.838L471.839,221.831L471.978,221.823L472.116,221.814L472.234,221.805L472.239,221.802L472.64,221.562L473.047,221.32L473.459,221.077L473.87,220.837L474.082,220.715L474.291,220.596L474.5,220.477L474.709,220.36L474.918,220.244L475.127,220.13L475.336,220.017L475.546,219.906L475.756,219.797L475.967,219.69L476.178,219.584L476.39,219.481L476.605,219.38L476.823,219.281L477.044,219.185L477.26,219.095L477.385,219.045L477.503,218.999L477.624,218.953L477.746,218.909L477.873,218.864L478.003,218.821L478.137,218.779L478.276,218.737L478.42,218.697L478.572,218.657L478.732,218.619L478.899,218.583L479.077,218.549L479.268,218.518L479.471,218.491L479.689,218.47L479.926,218.455L480.184,218.45L480.465,218.457L480.771,218.48L481.105,218.525L481.466,218.596L481.856,218.702L482.274,218.852L482.5,218.956L482.709,219.058L482.913,219.17L483.106,219.281L483.38,219.469L483.597,219.634L483.814,219.818L484.081,220.071L484.232,220.242L484.438,220.491L484.629,220.753L484.634,220.761L484.81,221.039L484.967,221.329L484.971,221.338L485.117,221.658L485.241,221.988L485.244,221.997L485.343,222.333L485.419,222.676L485.42,222.685L485.467,222.99L485.495,223.298L485.495,223.308L485.504,223.595L485.496,223.883L485.495,223.893L485.474,224.154L485.438,224.413L485.437,224.424L485.391,224.667L485.334,224.907L485.283,225.098L485.155,225.464L485.017,225.783L484.856,226.101L484.63,226.472L484.393,226.796L484.183,227.048L483.995,227.251L483.828,227.417L483.677,227.556L483.538,227.678L483.408,227.785L483.287,227.882L483.172,227.97L483.062,228.051L482.956,228.127L482.852,228.2L482.741,228.276L482.555,228.398L482.363,228.521L482.174,228.637L481.987,228.75L481.802,228.859L481.619,228.964L481.438,229.067L481.259,229.167L481.083,229.263L480.906,229.359L480.582,229.532L480.278,229.692L480.005,229.832L479.771,229.952L479.467,230.105L479.352,230.162L479.228,230.221L479.106,230.279L478.983,230.335L478.859,230.391L478.737,230.444L478.614,230.497L478.491,230.548L478.368,230.598L478.244,230.647L478.121,230.694L477.998,230.74L477.875,230.785L477.743,230.832L477.507,230.913L477.262,230.992L477.018,231.066L476.774,231.136L476.531,231.202L476.289,231.264L476.049,231.322L475.809,231.376L475.661,231.407L475.469,231.52L475.104,231.733L474.918,231.84L474.736,231.943L474.555,232.044L474.376,232.144L474.197,232.241L474.018,232.337L473.837,232.431L473.655,232.524L473.469,232.615L473.277,232.706L473.075,232.797L472.877,232.881L472.75,232.932L472.628,232.979L472.5,233.026L472.383,233.066L472.143,233.146L471.918,233.219L471.691,233.291L471.462,233.362L471.232,233.433L470.999,233.503L470.766,233.572L470.53,233.64L470.293,233.707L470.054,233.774L469.813,233.84L469.571,233.905L469.327,233.969L469.081,234.033L468.834,234.096L468.585,234.158L468.335,234.219L468.084,234.279L467.83,234.338L467.575,234.397L467.319,234.454L467.062,234.511L466.803,234.567L466.543,234.622L466.281,234.677L466.018,234.73L465.754,234.783L465.489,234.834L465.222,234.885L464.954,234.935L464.685,234.983L464.415,235.031L464.144,235.078L463.871,235.124L463.598,235.169L463.323,235.213L463.048,235.256L462.772,235.298L462.494,235.339L462.216,235.379L461.937,235.418L461.657,235.455L461.376,235.492L461.094,235.528L460.812,235.562L460.528,235.596L460.245,235.628L459.96,235.659L459.675,235.69L459.389,235.719L459.103,235.746L458.816,235.773L458.528,235.798L458.24,235.823L457.951,235.846L457.663,235.867L457.373,235.888L457.083,235.907L456.793,235.925L456.503,235.942L456.212,235.957L455.921,235.971L455.63,235.984L455.338,235.996L455.046,236.006L454.754,236.014L454.463,236.022L454.17,236.028L453.878,236.032L453.586,236.035L453.293,236.037L453.001,236.037L452.709,236.036L452.416,236.033L452.124,236.028L451.832,236.022L451.54,236.015L451.249,236.006L450.957,235.995L450.666,235.983L450.375,235.969L450.084,235.954L449.793,235.937L449.503,235.918L449.213,235.897L448.923,235.875L448.634,235.851L448.346,235.825L448.057,235.797L447.769,235.768L447.482,235.737L447.195,235.703L446.909,235.668L446.623,235.631L446.338,235.592L446.053,235.552L445.769,235.509L445.486,235.464L445.204,235.417L444.922,235.368L444.64,235.317L444.36,235.263L444.08,235.208L443.801,235.15L443.523,235.09L443.246,235.028L442.969,234.963L442.693,234.897L442.419,234.827L442.145,234.756L441.872,234.681L441.6,234.605L441.329,234.525L441.059,234.443L440.79,234.359L440.522,234.272L440.255,234.182L439.989,234.089L439.725,233.993L439.462,233.894L439.2,233.793L438.938,233.688L438.679,233.58L438.421,233.47L438.164,233.356L437.908,233.238L437.654,233.117L437.431,233.008L437.243,232.915L437.045,232.821L436.81,232.71L436.544,232.585L435.935,232.302L435.599,232.145L435.245,231.979L434.876,231.804L434.494,231.62L434.105,231.431L433.901,231.33L433.699,231.229L433.495,231.126L433.29,231.022L433.083,230.915L432.875,230.807L432.666,230.696L432.456,230.584L432.245,230.469L432.034,230.353L431.823,230.234L431.611,230.114L431.399,229.991L431.188,229.865L430.977,229.738L430.766,229.607L430.555,229.474L430.344,229.337L430.135,229.198L429.925,229.054L429.715,228.906L429.507,228.755L429.307,228.605L429.194,228.518L429.09,228.436L428.986,228.352L428.882,228.267L428.778,228.18L428.672,228.09L428.568,227.999L428.465,227.906L428.36,227.81L428.255,227.711L428.151,227.61L428.046,227.506L427.941,227.398L427.837,227.288L427.731,227.173L427.626,227.053L427.522,226.931L427.417,226.804L427.311,226.669L427.207,226.531L427.103,226.387L426.999,226.235L426.898,226.079L426.796,225.914L426.696,225.74L426.599,225.56L426.503,225.369L426.411,225.17L426.323,224.962L426.24,224.744L426.162,224.515L426.09,224.273L426.027,224.024L425.973,223.766L425.928,223.497L425.894,223.217L425.874,222.932L425.87,222.764L425.874,222.408L425.903,222.052L425.958,221.699L426.038,221.351L426.142,221.01L426.27,220.677L426.422,220.354L426.597,220.042L426.793,219.744L427.01,219.461L427.247,219.194L427.502,218.944L427.774,218.713L428.062,218.503L428.223,218.402L428.149,218.301L428.064,218.183L427.98,218.065L427.898,217.947L427.813,217.823L427.661,217.597L427.508,217.364L427.361,217.132L427.219,216.903L427.081,216.676L426.947,216.45L426.817,216.228L426.69,216.007L426.567,215.788L426.446,215.572L426.329,215.359L426.213,215.146L425.992,214.738L425.777,214.337L425.568,213.949L425.362,213.57L425.264,213.391L425.165,213.212L425.067,213.037L424.969,212.866L424.872,212.698L424.776,212.534L424.68,212.374L424.584,212.218L424.489,212.066L424.393,211.917L424.299,211.773L424.199,211.626L424.156,211.563L424.109,211.495L424.062,211.428L424.014,211.362L423.967,211.298L423.919,211.233L423.872,211.17L423.824,211.108L423.776,211.047L423.729,210.987L423.681,210.927L423.633,210.869L423.585,210.812L423.537,210.754L423.489,210.699L423.44,210.644L423.392,210.59L423.343,210.537L423.295,210.484L423.227,210.413L423.063,210.24L422.883,210.045L422.705,209.849L422.53,209.651L422.358,209.451L422.188,209.25L422.02,209.046L421.855,208.842L421.692,208.635L421.532,208.427L421.374,208.218L421.218,208.007L421.065,207.794L420.914,207.58L420.765,207.365L420.619,207.149L420.475,206.93L420.334,206.711L420.195,206.491L420.058,206.269L419.923,206.046L419.79,205.822L419.66,205.597L419.532,205.371L419.406,205.143L419.282,204.915L419.161,204.685L419.041,204.455L418.924,204.223L418.809,203.991L418.696,203.757L418.585,203.523L418.476,203.288L418.369,203.052L418.264,202.815L418.162,202.577L418.061,202.338L417.962,202.099L417.865,201.859L417.771,201.618L417.678,201.376L417.587,201.134L417.498,200.891L417.411,200.648L417.326,200.404L417.243,200.159L417.161,199.913L417.082,199.667L417.004,199.421L416.928,199.174L416.854,198.926L416.782,198.678L416.712,198.43L416.643,198.18L416.577,197.931L416.512,197.681L416.449,197.431L416.387,197.18L416.328,196.929L416.27,196.677L416.214,196.425L416.159,196.173L416.106,195.921L416.055,195.668L416.006,195.415L415.958,195.162L415.912,194.908L415.868,194.655L415.826,194.401L415.785,194.146L415.745,193.892L415.708,193.638L415.672,193.383L415.637,193.128L415.604,192.873L415.573,192.618L415.544,192.364L415.516,192.109L415.489,191.854L415.464,191.599L415.441,191.343L415.42,191.088L415.399,190.834L415.381,190.578L415.364,190.323L415.349,190.068L415.335,189.814L415.322,189.559L415.312,189.304L415.302,189.05L415.295,188.796L415.288,188.542L415.284,188.288L415.28,188.034L415.279,187.781L415.279,187.527L415.28,187.274L415.283,187.022L415.287,186.769L415.293,186.517L415.3,186.265L415.309,186.014L415.319,185.762L415.331,185.512L415.344,185.262L415.359,185.011L415.375,184.762L415.393,184.513L415.412,184.264L415.432,184.016L415.454,183.768L415.478,183.52L415.502,183.274L415.529,183.027L415.557,182.782L415.586,182.536L415.617,182.292L415.649,182.047L415.683,181.804L415.718,181.561L415.754,181.319L415.792,181.077L415.832,180.836L415.873,180.596L415.915,180.356L415.959,180.117L416.004,179.879L416.053,179.63L416.09,179.453L416.132,179.266L416.176,179.082L416.223,178.9L416.271,178.719L416.322,178.541L416.375,178.365L416.43,178.191L416.486,178.018L416.544,177.847L416.604,177.679L416.665,177.512L416.728,177.347L416.792,177.183L416.857,177.021L416.923,176.86L416.991,176.702L417.06,176.544L417.129,176.388L417.2,176.234L417.271,176.08L417.344,175.929L417.417,175.778L417.491,175.629L417.566,175.481L417.641,175.334L417.717,175.188L417.794,175.043L417.871,174.9L417.951,174.752L418.104,174.476L418.262,174.198L418.422,173.923L418.582,173.652L418.743,173.384L418.904,173.12L419.066,172.858L419.227,172.599L419.388,172.344L419.549,172.091L419.709,171.84L420.023,171.351L420.333,170.871L420.636,170.398L420.781,170.169L420.925,169.941L421.065,169.717L421.203,169.496L421.336,169.277L421.466,169.062L421.592,168.851L421.713,168.643L421.83,168.439L421.945,168.233L421.997,168.14L422.05,168.043L422.101,167.946L422.152,167.851L422.2,167.758L422.248,167.665L422.294,167.573L422.339,167.482L422.383,167.394L422.424,167.306L422.465,167.22L422.504,167.135L422.542,167.051L422.577,166.97L422.612,166.889L422.645,166.81L422.677,166.733L422.707,166.657L422.735,166.583L422.762,166.51L422.788,166.44L422.812,166.371L422.834,166.304L422.856,166.239L422.875,166.176L422.893,166.115L422.91,166.055L422.926,165.998L422.94,165.943L422.953,165.89L422.964,165.838L422.975,165.789L422.984,165.742L422.992,165.697L422.999,165.654L423.005,165.614L423.011,165.575L423.015,165.538L423.018,165.504L423.021,165.471L423.023,165.44L423.024,165.412L423.025,165.385L423.026,165.312L423.042,164.956L423.083,164.601L423.15,164.25L423.242,163.905L423.358,163.568L423.497,163.239L423.66,162.922L423.845,162.617L424.051,162.325L424.278,162.05L424.524,161.791L424.787,161.55L425.067,161.329L425.362,161.128L425.671,160.949L425.992,160.792L426.323,160.659L426.662,160.549L427.009,160.464L427.361,160.404L427.716,160.369L428.073,160.36L428.43,160.376Z" style="fill:rgb(217,217,217);"/>
                    </g>
                </g>
                <path d="M401.248,65.444C418.153,64.218 433.084,78.205 435.783,99.665C438.612,122.152 420,138.369 400.77,136.01C380.396,133.509 371.579,121.446 369.145,101.681C366.795,82.605 383.314,66.743 401.248,65.444Z" style="fill:none;stroke:black;stroke-width:3.93px;"/>
            </g>
            <path d="M416.163,121.485C423.39,128.809 429.448,138.511 434.719,147.301C436.627,150.483 438.036,155.096 439.713,156.845C440.128,157.278 440.604,159.748 440.604,158.611" style="fill:none;stroke:rgb(13,13,13);stroke-width:4.5px;"/>
        </g>
        <g id="sibling" transform="matrix(0.774072,0.612882,-0.612882,0.774072,290.557,-73.4341)">
            <g transform="matrix(-0.14268,0.989769,0.989769,0.14268,156.766,-231.293)">
                <path d="M330.928,106.759L330.745,106.935L330.564,107.111L330.383,107.287L330.204,107.464L330.025,107.642L329.848,107.82L329.672,107.999L329.496,108.179L329.322,108.358L329.149,108.539L328.977,108.72L328.806,108.902L328.637,109.084L328.468,109.266L328.3,109.449L328.134,109.633L327.968,109.817L327.804,110.002L327.64,110.187L327.478,110.372L327.317,110.558L327.157,110.745L326.998,110.932L326.84,111.119L326.683,111.307L326.527,111.496L326.372,111.684L326.219,111.874L326.066,112.063L325.914,112.253L325.764,112.444L325.615,112.635L325.466,112.826L325.319,113.018L325.173,113.21L325.028,113.402L324.884,113.595L324.741,113.788L324.599,113.982L324.458,114.176L324.319,114.37L324.18,114.565L324.043,114.76L323.906,114.955L323.771,115.151L323.636,115.347L323.503,115.543L323.371,115.74L323.24,115.937L323.11,116.134L322.981,116.332L322.853,116.529L322.726,116.728L322.6,116.926L322.475,117.125L322.352,117.324L322.229,117.523L322.108,117.722L321.987,117.922L321.868,118.122L321.75,118.322L321.633,118.522L321.516,118.723L321.401,118.924L321.287,119.125L321.174,119.326L321.063,119.527L320.952,119.729L320.842,119.931L320.733,120.133L320.626,120.335L320.519,120.537L320.414,120.74L320.309,120.942L320.206,121.145L320.104,121.348L320.003,121.551L319.903,121.755L319.804,121.958L319.706,122.162L319.609,122.365L319.513,122.569L319.418,122.773L319.324,122.977L319.232,123.181L319.14,123.385L319.049,123.589L318.96,123.793L318.872,123.998L318.784,124.202L318.698,124.406L318.613,124.611L318.529,124.816L318.446,125.02L318.364,125.225L318.283,125.43L318.203,125.634L318.124,125.839L318.046,126.044L317.97,126.249L317.894,126.453L317.819,126.658L317.746,126.863L317.673,127.068L317.602,127.272L317.532,127.477L317.463,127.682L317.394,127.886L317.327,128.091L317.261,128.295L317.196,128.5L317.132,128.704L317.07,128.909L317.008,129.113L316.947,129.317L316.887,129.521L316.829,129.725L316.771,129.929L316.715,130.133L316.659,130.337L316.605,130.541L316.552,130.744L316.5,130.948L316.449,131.151L316.398,131.354L316.349,131.557L316.302,131.76L316.255,131.963L316.209,132.165L316.164,132.368L316.12,132.57L316.078,132.772L316.036,132.974L315.996,133.176L315.956,133.377L315.918,133.578L315.881,133.78L315.845,133.981L315.81,134.181L315.776,134.382L315.743,134.582L315.711,134.782L315.68,134.982L315.65,135.182L315.622,135.375L315.621,135.385L316.055,137.064L317.543,137.954L317.563,137.957L319.241,137.522L320.132,136.035L320.133,136.025L320.16,135.843L320.186,135.666L320.213,135.489L320.242,135.311L320.271,135.134L320.301,134.956L320.332,134.777L320.364,134.599L320.398,134.42L320.432,134.24L320.467,134.061L320.503,133.881L320.54,133.701L320.578,133.521L320.617,133.34L320.657,133.16L320.698,132.978L320.74,132.797L320.783,132.616L320.826,132.434L320.871,132.252L320.917,132.07L320.964,131.887L321.012,131.705L321.06,131.522L321.11,131.339L321.161,131.156L321.213,130.973L321.265,130.789L321.319,130.606L321.373,130.422L321.429,130.238L321.486,130.054L321.543,129.87L321.602,129.686L321.661,129.501L321.722,129.317L321.783,129.132L321.846,128.947L321.909,128.763L321.974,128.578L322.039,128.393L322.106,128.208L322.173,128.022L322.241,127.837L322.311,127.652L322.381,127.467L322.453,127.281L322.525,127.096L322.598,126.91L322.673,126.725L322.748,126.54L322.824,126.354L322.901,126.169L322.98,125.983L323.059,125.798L323.139,125.612L323.22,125.427L323.303,125.241L323.386,125.056L323.47,124.871L323.555,124.685L323.641,124.5L323.728,124.315L323.816,124.13L323.906,123.945L323.996,123.76L324.087,123.575L324.179,123.39L324.272,123.205L324.366,123.02L324.461,122.836L324.557,122.651L324.654,122.467L324.752,122.283L324.851,122.099L324.951,121.915L325.052,121.731L325.154,121.548L325.257,121.364L325.361,121.181L325.466,120.998L325.572,120.815L325.679,120.632L325.787,120.449L325.896,120.267L326.006,120.085L326.116,119.903L326.228,119.721L326.341,119.539L326.455,119.358L326.57,119.177L326.686,118.996L326.803,118.815L326.92,118.635L327.039,118.454L327.159,118.274L327.28,118.095L327.402,117.915L327.524,117.736L327.648,117.557L327.773,117.379L327.899,117.201L328.025,117.023L328.153,116.845L328.282,116.668L328.411,116.491L328.542,116.314L328.674,116.137L328.807,115.961L328.94,115.786L329.075,115.61L329.211,115.435L329.347,115.261L329.485,115.086L329.624,114.912L329.763,114.739L329.904,114.566L330.045,114.393L330.188,114.221L330.332,114.049L330.476,113.877L330.622,113.706L330.768,113.535L330.916,113.365L331.064,113.195L331.214,113.025L331.365,112.856L331.516,112.688L331.669,112.52L331.822,112.352L331.977,112.185L332.132,112.018L332.289,111.852L332.446,111.686L332.605,111.52L332.764,111.356L332.925,111.191L333.086,111.028L333.249,110.864L333.412,110.701L333.577,110.539L333.742,110.377L333.909,110.216L334.076,110.055L334.245,109.895L334.414,109.736L334.584,109.577L334.756,109.418L334.928,109.26L335.102,109.103L335.276,108.946L335.452,108.79L335.628,108.635L335.805,108.48L335.984,108.325L336.163,108.171L336.344,108.018L336.525,107.866L336.708,107.714L336.891,107.562L337.075,107.412L337.261,107.262L337.447,107.112L337.635,106.964L337.823,106.816L338.013,106.668L338.203,106.521L338.394,106.375L338.587,106.23L338.78,106.085L338.975,105.941L339.17,105.798L339.366,105.655L339.564,105.514L339.762,105.372L339.962,105.232L340.162,105.092L340.364,104.953L340.566,104.815L340.77,104.677L340.974,104.541L341.18,104.405L341.386,104.269L341.593,104.135L341.802,104.001L342.011,103.868L342.222,103.736L342.433,103.605L342.646,103.474L342.86,103.344L343.074,103.215L343.29,103.087L343.506,102.96L343.724,102.833L343.942,102.708L344.162,102.583L344.383,102.459L344.604,102.336L344.827,102.213L345.05,102.092L345.275,101.971L345.501,101.851L345.728,101.733L345.955,101.615L346.184,101.497L346.414,101.381L346.644,101.266L346.876,101.152L347.109,101.038L347.343,100.925L347.578,100.814L347.814,100.703L348.05,100.593L348.288,100.484L348.527,100.376L348.767,100.269L349.008,100.163L349.25,100.058L349.493,99.954L349.737,99.851L349.982,99.749L350.228,99.648L350.476,99.547L350.724,99.448L350.973,99.35L351.223,99.253L351.474,99.157L351.727,99.061L351.98,98.967L352.234,98.874L352.49,98.782L352.746,98.691L353.003,98.601L353.262,98.512L353.521,98.424L353.782,98.337L354.044,98.252L354.306,98.167L354.57,98.083L354.835,98.001L355.1,97.92L355.367,97.839L355.635,97.76L355.904,97.682L356.174,97.605L356.445,97.529L356.716,97.454L356.99,97.381L357.264,97.308L357.539,97.237L357.815,97.167L358.092,97.098L358.37,97.03L358.65,96.963L358.935,96.897L358.945,96.894L360.35,95.879L360.638,94.169L360.634,94.149L359.618,92.744L357.909,92.456L357.899,92.458L357.602,92.528L357.302,92.599L357.002,92.672L356.703,92.747L356.406,92.822L356.109,92.899L355.814,92.977L355.52,93.057L355.226,93.137L354.934,93.219L354.643,93.302L354.353,93.386L354.064,93.472L353.776,93.558L353.489,93.646L353.203,93.735L352.918,93.826L352.634,93.917L352.352,94.01L352.07,94.104L351.789,94.199L351.51,94.295L351.231,94.392L350.954,94.491L350.678,94.59L350.403,94.691L350.128,94.793L349.855,94.896L349.583,95L349.312,95.106L349.042,95.212L348.773,95.319L348.506,95.428L348.239,95.538L347.973,95.648L347.709,95.76L347.445,95.873L347.183,95.987L346.921,96.102L346.661,96.218L346.402,96.335L346.144,96.453L345.886,96.573L345.63,96.693L345.375,96.814L345.122,96.936L344.869,97.06L344.617,97.184L344.366,97.309L344.117,97.435L343.868,97.563L343.621,97.691L343.374,97.82L343.129,97.95L342.885,98.081L342.642,98.213L342.4,98.346L342.159,98.48L341.919,98.615L341.68,98.751L341.442,98.888L341.205,99.025L340.97,99.164L340.735,99.303L340.502,99.444L340.269,99.585L340.038,99.727L339.808,99.87L339.579,100.014L339.351,100.159L339.124,100.304L338.898,100.451L338.673,100.598L338.449,100.746L338.226,100.895L338.005,101.045L337.784,101.196L337.565,101.347L337.346,101.499L337.129,101.652L336.913,101.806L336.698,101.961L336.484,102.116L336.271,102.272L336.059,102.429L335.848,102.587L335.638,102.745L335.43,102.905L335.222,103.065L335.015,103.225L334.81,103.387L334.606,103.549L334.402,103.712L334.2,103.875L333.999,104.04L333.799,104.205L333.6,104.37L333.402,104.537L333.205,104.704L333.01,104.872L332.815,105.04L332.622,105.209L332.429,105.379L332.238,105.549L332.047,105.72L331.858,105.892L331.67,106.064L331.483,106.237L331.297,106.411L331.112,106.585L330.928,106.759Z" style="fill:rgb(210,0,48);"/>
            </g>
            <g transform="matrix(-0.393355,-0.919387,0.919387,-0.393355,243.426,436.897)">
                <path d="M303.533,125.437L303.576,125.751L303.617,126.039L303.657,126.307L303.676,126.427L303.696,126.546L303.715,126.66L303.735,126.769L303.755,126.875L303.776,126.977L303.796,127.076L303.818,127.173L303.84,127.269L303.863,127.363L303.887,127.456L303.912,127.55L303.938,127.644L303.966,127.74L303.996,127.837L304.027,127.937L304.061,128.039L304.097,128.145L304.136,128.255L304.177,128.369L304.221,128.488L304.268,128.612L304.318,128.741L304.374,128.883L304.451,129.076L304.531,129.281L304.692,129.7L304.858,130.134L305.029,130.58L305.116,130.804L305.204,131.029L305.293,131.254L305.384,131.48L305.475,131.704L305.568,131.927L305.661,132.147L305.755,132.365L305.851,132.579L305.948,132.792L305.994,132.892L306.043,132.994L306.091,133.094L306.132,133.177L306.455,132.774L306.874,132.252L307.292,131.735L307.709,131.222L307.919,130.966L308.129,130.711L308.339,130.457L308.55,130.203L308.761,129.951L308.973,129.699L309.186,129.447L309.4,129.196L309.615,128.946L309.831,128.697L310.049,128.447L310.268,128.199L310.488,127.951L310.71,127.703L310.934,127.456L311.16,127.209L311.387,126.962L311.617,126.716L311.849,126.47L312.083,126.224L312.32,125.979L312.559,125.733L312.8,125.488L313.04,125.249L313.047,125.241L314.65,124.582L316.255,125.238L316.27,125.252L316.929,126.856L316.273,128.461L316.266,128.468L316.036,128.698L315.813,128.924L315.592,129.151L315.374,129.378L315.157,129.605L314.942,129.833L314.728,130.062L314.516,130.292L314.306,130.522L314.097,130.753L313.889,130.985L313.682,131.218L313.476,131.452L313.27,131.687L313.066,131.924L312.862,132.161L312.659,132.399L312.456,132.639L312.253,132.88L312.05,133.122L311.848,133.366L311.645,133.611L311.443,133.857L311.24,134.104L310.832,134.606L310.423,135.113L310.01,135.626L309.601,136.136L309.594,136.145L309.577,136.169L309.497,136.275L309.386,136.425L309.251,136.603L309.17,136.707L309.086,136.813L308.997,136.924L308.903,137.039L308.803,137.156L308.697,137.276L308.586,137.399L308.469,137.523L308.351,137.643L308.281,137.711L308.214,137.774L308.144,137.838L308.072,137.902L307.998,137.966L307.92,138.031L307.839,138.095L307.753,138.159L307.664,138.224L307.569,138.288L307.468,138.353L307.361,138.416L307.247,138.479L307.124,138.541L306.991,138.6L306.848,138.657L306.692,138.709L306.524,138.756L306.341,138.795L306.144,138.823L305.956,138.835L305.824,138.837L305.71,138.833L305.594,138.824L305.476,138.81L305.356,138.791L305.235,138.765L305.114,138.734L304.994,138.696L304.874,138.652L304.756,138.603L304.641,138.548L304.529,138.488L304.421,138.423L304.317,138.353L304.217,138.28L304.123,138.204L304.034,138.126L303.956,138.052L303.845,137.938L303.745,137.83L303.647,137.72L303.552,137.61L303.46,137.498L303.371,137.385L303.284,137.271L303.199,137.156L303.116,137.04L303.035,136.924L302.956,136.806L302.878,136.688L302.803,136.568L302.728,136.448L302.655,136.327L302.584,136.206L302.514,136.083L302.445,135.96L302.377,135.837L302.31,135.713L302.244,135.588L302.18,135.463L302.116,135.338L302.053,135.212L301.991,135.085L301.93,134.959L301.87,134.832L301.81,134.702L301.695,134.451L301.582,134.197L301.472,133.943L301.365,133.69L301.26,133.438L301.158,133.188L301.059,132.941L300.963,132.697L300.869,132.457L300.777,132.22L300.602,131.765L300.437,131.333L300.282,130.93L300.209,130.744L300.136,130.561L300.075,130.405L300.013,130.245L299.953,130.089L299.896,129.935L299.842,129.783L299.789,129.633L299.738,129.484L299.69,129.336L299.643,129.19L299.599,129.044L299.557,128.899L299.516,128.755L299.477,128.61L299.441,128.466L299.406,128.322L299.372,128.178L299.34,128.034L299.31,127.89L299.281,127.745L299.254,127.6L299.227,127.453L299.202,127.306L299.177,127.157L299.153,127.003L299.107,126.698L299.061,126.377L299.016,126.04L298.969,125.687L298.968,125.677L299.423,124.004L300.921,123.131L300.941,123.129L302.614,123.583L303.487,125.082L303.533,125.437Z" style="fill:rgb(210,0,48);"/>
            </g>
        </g>
    </g>
</svg>
